{
copyright = "Copyright \UFFEF\UFFBF\UFFAF\UFFEF\UFFBE\UFFBF\UFFEF\UFFBE\UFFAF\UFFEF\UFFBF\UFFAF\UFFEF\UFFBE\UFFBE\UFFEF\UFFBE\UFFBF\UFFEF\UFFBF\UFFAF\UFFEF\UFFBE\UFFBE\UFFEF\UFFBE\UFF82\UFFEF\UFFBF\UFFAF\UFFEF\UFFBE\UFFBF\UFFEF\UFFBE\UFFAF\UFFEF\UFFBF\UFFAF\UFFEF\UFFBE\UFFBE\UFFEF\UFFBE\UFFBE\UFFEF\UFFBF\UFFAF\UFFEF\UFFBE\UFFBE\UFFEF\UFFBE\UFFA9 2011 by Cyreal";
customParameters = (
{
name = description;
value = "Lora is designed by Olga Karpushina, and Alexei Vanyashin for Cyreal.\012\012This Font Software is licensed under the SIL Open Font License, Version 1.1. \012";
},
{
name = licenseURL;
value = "http://scripts.sil.org/OFL";
},
{
name = fsType;
value = (
);
},
{
name = "Disable Last Change";
value = 1;
}
);
date = "2016-08-10 14:21:55 +0000";
designer = "Olga Karpushina, Alexei Vanyashin (Cyrillic)";
designerURL = "http://cyreal.org";
familyName = "Lora";
featurePrefixes = (
{
automatic = 1;
code = "languagesystem DFLT dflt;\012languagesystem latn dflt;\012languagesystem latn ROM;\012languagesystem latn MOL;\012";
name = Languagesystems;
}
);
features = (
{
automatic = 1;
code = "feature locl;\012feature sups;\012feature frac;\012feature ordn;\012feature case;\012";
name = aalt;
},
{
automatic = 1;
code = "script latn;\012language ROM;\012sub Scedilla by Scommaaccent;\012sub scedilla by scommaaccent;\012language MOL;\012sub Scedilla by Scommaaccent;\012sub scedilla by scommaaccent;\012";
name = locl;
},
{
automatic = 1;
code = "sub one by onesuperior;\012sub two by twosuperior;\012sub three by threesuperior;\012";
name = sups;
},
{
automatic = 1;
code = "sub one slash four by onequarter;\012sub one slash two by onehalf;\012sub three slash four by threequarters;\012";
name = frac;
},
{
automatic = 1;
code = "sub [zero one two three four five six seven eight nine] [A a]' by ordfeminine;\012sub [zero one two three four five six seven eight nine] [O o]' by ordmasculine;\012";
name = ordn;
},
{
automatic = 1;

glyphs = (
{
color = 4;
glyphname = A;
layers = (
{
anchors = (
{
name = ogonek;
position = "{563, 0}";
},
{
name = top;
position = "{313, 700}";
}
);
layerId = "C9B29665-C437-4A1D-A258-6E2E4B235112";
name = Light;
paths = (
{
closed = 1;
nodes = (
"297 719 LINE",
"91 158 LINE SMOOTH",
"63 84 OFFCURVE",
"54 33 OFFCURVE",
"-6 33 CURVE",
"-6 0 LINE",
"181 0 LINE",
"181 44 LINE",
"103 40 LINE",
"112 62 OFFCURVE",
"118 77 OFFCURVE",
"128 109 CURVE SMOOTH",
"138 142 OFFCURVE",
"148 175 OFFCURVE",
"163 216 CURVE",
"423 222 LINE",
"458 128 LINE SMOOTH",
"472 91 OFFCURVE",
"484 35 OFFCURVE",
"409 33 CURVE",
"409 0 LINE",
"638 0 LINE",
"638 44 LINE",
"570 40 LINE",
"572 70 OFFCURVE",
"555 122 OFFCURVE",
"544 150 CURVE SMOOTH",
"321 719 LINE"
);
},
{
closed = 1;
nodes = (
"338 450 LINE",
"409 259 LINE",
"178 259 LINE",
"196 310 OFFCURVE",
"218 374 OFFCURVE",
"249 460 CURVE SMOOTH",
"291 573 LINE",
"293 573 LINE"
);
}
);
width = 626;
}
);
leftKerningGroup = A;
rightKerningGroup = A;
unicode = 0041;
},
{
color = 4;
glyphname = AE;
layers = (
{
layerId = "C9B29665-C437-4A1D-A258-6E2E4B235112";
name = Light;
paths = (
{
closed = 1;
nodes = (
"362 700 LINE",
"362 656 LINE",
"452 660 LINE",
"452 660 LINE",
"91 125 LINE SMOOTH",
"64 85 OFFCURVE",
"32 33 OFFCURVE",
"-21 33 CURVE",
"-21 0 LINE",
"166 0 LINE",
"166 44 LINE",
"90 40 LINE",
"208 216 LINE",
"451 221 LINE",
"451 130 LINE SMOOTH",
"451 69 OFFCURVE",
"442 40 OFFCURVE",
"390 36 CURVE",
"382 36 LINE",
"382 0 LINE",
"898 0 LINE",
"904 195 LINE",
"870 195 LINE",
"870 79 OFFCURVE",
"817 36 OFFCURVE",
"732 37 CURVE SMOOTH",
"535 40 LINE",
"537 57 OFFCURVE",
"538 82 OFFCURVE",
"538 118 CURVE SMOOTH",
"538 343 LINE",
"613 347 LINE",
"696 347 OFFCURVE",
"730 347 OFFCURVE",
"730 259 CURVE",
"763 259 LINE",
"763 477 LINE",
"730 477 LINE",
"730 389 OFFCURVE",
"696 383 OFFCURVE",
"612 383 CURVE SMOOTH",
"538 383 LINE",
"538 544 LINE SMOOTH",
"538 625 OFFCURVE",
"539 661 OFFCURVE",
"614 663 CURVE SMOOTH",
"700 665 LINE SMOOTH",
"775 667 OFFCURVE",
"835 643 OFFCURVE",
"835 525 CURVE",
"868 525 LINE",
"863 700 LINE"
);
},
{
closed = 1;
nodes = (
"451 259 LINE",
"236 259 LINE",
"451 582 LINE"
);
}
);
width = 949;
}
);
leftKerningGroup = A;
rightKerningGroup = E;
unicode = 00C6;
},
{
color = 4;
glyphname = B;
lastChange = "2016-08-19 17:25:06 +0000";
layers = (
{
layerId = "C9B29665-C437-4A1D-A258-6E2E4B235112";
name = Light;
paths = (
{
closed = 1;
nodes = (
"201 702 OFFCURVE",
"128 701 OFFCURVE",
"55 700 CURVE",
"55 656 LINE",
"127 660 LINE",
"125 643 OFFCURVE",
"124 617 OFFCURVE",
"124 581 CURVE SMOOTH",
"124 161 LINE SMOOTH",
"124 86 OFFCURVE",
"130 35 OFFCURVE",
"55 33 CURVE",
"55 0 LINE",
"347 0 LINE SMOOTH",
"482 0 OFFCURVE",
"583 73 OFFCURVE",
"583 196 CURVE SMOOTH",
"583 299 OFFCURVE",
"508 374 OFFCURVE",
"361 374 CURVE",
"361 376 LINE",
"471 396 OFFCURVE",
"525 466 OFFCURVE",
"526 531 CURVE SMOOTH",
"528 649 OFFCURVE",
"436 702 OFFCURVE",
"281 702 CURVE SMOOTH"
);
},
{
closed = 1;
nodes = (
"405 347 OFFCURVE",
"484 312 OFFCURVE",
"484 190 CURVE SMOOTH",
"484 90 OFFCURVE",
"417 38 OFFCURVE",
"314 38 CURVE SMOOTH",
"301 38 OFFCURVE",
"239 37 OFFCURVE",
"208 40 CURVE",
"210 57 OFFCURVE",
"211 82 OFFCURVE",
"211 118 CURVE SMOOTH",
"211 344 LINE",
"243 346 OFFCURVE",
"274 347 OFFCURVE",
"314 347 CURVE SMOOTH"
);
},
{
closed = 1;
nodes = (
"352 666 OFFCURVE",
"433 644 OFFCURVE",
"435 536 CURVE SMOOTH",
"436 462 OFFCURVE",
"398 387 OFFCURVE",
"284 385 CURVE SMOOTH",
"211 383 LINE",
"211 569 LINE SMOOTH",
"211 642 OFFCURVE",
"221 666 OFFCURVE",
"286 666 CURVE SMOOTH"
);
}
);
width = 622;
}
);
leftKerningGroup = I;
unicode = 0042;
},
{
color = 4;
glyphname = C;
lastChange = "2016-08-19 17:24:56 +0000";
layers = (
{
anchors = (
{
name = bottom;
position = "{415, 0}";
},
{
name = top;
position = "{389, 700}";
}
);
layerId = "C9B29665-C437-4A1D-A258-6E2E4B235112";
name = Light;
paths = (
{
closed = 1;
nodes = (
"160 716 OFFCURVE",
"46 527 OFFCURVE",
"46 339 CURVE SMOOTH",
"46 140 OFFCURVE",
"185 -16 OFFCURVE",
"386 -16 CURVE SMOOTH",
"468 -16 OFFCURVE",
"583 11 OFFCURVE",
"669 130 CURVE",
"643 151 LINE",
"589 76 OFFCURVE",
"499 36 OFFCURVE",
"412 36 CURVE SMOOTH",
"264 36 OFFCURVE",
"145 165 OFFCURVE",
"145 354 CURVE SMOOTH",
"145 550 OFFCURVE",
"258 675 OFFCURVE",
"400 675 CURVE SMOOTH",
"516 675 OFFCURVE",
"594 602 OFFCURVE",
"608 477 CURVE",
"644 477 LINE",
"644 709 LINE",
"590 709 LINE",
"595 655 LINE",
"533 696 OFFCURVE",
"468 716 OFFCURVE",
"393 716 CURVE SMOOTH"
);
}
);
width = 699;
}
);
leftKerningGroup = O;
rightKerningGroup = C;
unicode = 0043;
},
{
color = 4;
glyphname = D;
lastChange = "2016-08-19 17:24:37 +0000";
layers = (
{
anchors = (
{
name = center;
position = "{373, 350}";
},
{
name = top;
position = "{346, 700}";
}
);
layerId = "C9B29665-C437-4A1D-A258-6E2E4B235112";
name = Light;
paths = (
{
closed = 1;
nodes = (
"55 700 LINE",
"55 656 LINE",
"127 660 LINE",
"125 640 OFFCURVE",
"124 615 OFFCURVE",
"124 588 CURVE SMOOTH",
"124 156 LINE SMOOTH",
"124 85 OFFCURVE",
"130 36 OFFCURVE",
"55 33 CURVE",
"55 0 LINE",
"318 0 LINE SMOOTH",
"569 0 OFFCURVE",
"699 165 OFFCURVE",
"699 349 CURVE SMOOTH",
"699 590 OFFCURVE",
"532 702 OFFCURVE",
"291 701 CURVE SMOOTH"
);
},
{
closed = 1;
nodes = (
"500 664 OFFCURVE",
"600 542 OFFCURVE",
"600 353 CURVE SMOOTH",
"600 174 OFFCURVE",
"487 38 OFFCURVE",
"315 38 CURVE SMOOTH",
"307 38 OFFCURVE",
"261 37 OFFCURVE",
"208 40 CURVE",
"210 57 OFFCURVE",
"211 82 OFFCURVE",
"211 118 CURVE SMOOTH",
"211 544 LINE SMOOTH",
"211 615 OFFCURVE",
"205 664 OFFCURVE",
"280 664 CURVE SMOOTH"
);
}
);
width = 745;
}
);
leftKerningGroup = I;
rightKerningGroup = D;
unicode = 0044;
},
{
color = 4;
glyphname = Eth;
layers = (
{
components = (
{
name = D;
transform = "{1, 0, 0, 1, 1, 0}";
}
);
layerId = "C9B29665-C437-4A1D-A258-6E2E4B235112";
name = Light;
paths = (
{
closed = 1;
nodes = (
"19 377 LINE",
"19 335 LINE",
"393 335 LINE",
"393 377 LINE"
);
}
);
width = 746;
}
);
leftKerningGroup = I;
rightKerningGroup = D;
unicode = 00D0;
},
{
color = 4;
glyphname = E;
layers = (
{
anchors = (
{
name = bottom;
position = "{372, 0}";
},
{
name = ogonek;
position = "{560, 5}";
},
{
name = top;
position = "{327, 700}";
}
);
layerId = "C9B29665-C437-4A1D-A258-6E2E4B235112";
name = Light;
paths = (
{
closed = 1;
nodes = (
"55 700 LINE",
"55 656 LINE",
"127 660 LINE",
"125 640 OFFCURVE",
"124 615 OFFCURVE",
"124 588 CURVE SMOOTH",
"124 156 LINE SMOOTH",
"124 85 OFFCURVE",
"130 36 OFFCURVE",
"55 33 CURVE",
"55 0 LINE",
"571 0 LINE",
"577 195 LINE",
"543 195 LINE",
"543 76 OFFCURVE",
"486 41 OFFCURVE",
"399 40 CURVE SMOOTH",
"208 37 LINE",
"210 54 OFFCURVE",
"211 79 OFFCURVE",
"211 115 CURVE SMOOTH",
"211 344 LINE",
"284 347 LINE SMOOTH",
"369 350 OFFCURVE",
"403 347 OFFCURVE",
"403 259 CURVE",
"436 259 LINE",
"436 469 LINE",
"392 469 LINE",
"399 383 LINE",
"211 384 LINE",
"211 544 LINE SMOOTH",
"211 625 OFFCURVE",
"212 661 OFFCURVE",
"287 663 CURVE SMOOTH",
"373 665 LINE SMOOTH",
"448 667 OFFCURVE",
"508 643 OFFCURVE",
"508 525 CURVE",
"541 525 LINE",
"536 700 LINE"
);
}
);
width = 622;
}
);
leftKerningGroup = I;
rightKerningGroup = E;
unicode = 0045;
},
{
color = 4;
glyphname = F;
layers = (
{
layerId = "C9B29665-C437-4A1D-A258-6E2E4B235112";
name = Light;
paths = (
{
closed = 1;
nodes = (
"55 700 LINE",
"55 656 LINE",
"127 660 LINE",
"125 640 OFFCURVE",
"124 615 OFFCURVE",
"124 588 CURVE SMOOTH",
"124 156 LINE SMOOTH",
"124 85 OFFCURVE",
"130 36 OFFCURVE",
"55 33 CURVE",
"55 0 LINE",
"310 0 LINE",
"310 44 LINE",
"208 40 LINE",
"210 57 OFFCURVE",
"211 83 OFFCURVE",
"211 119 CURVE SMOOTH",
"211 329 LINE",
"271 332 LINE SMOOTH",
"355 336 OFFCURVE",
"390 332 OFFCURVE",
"390 243 CURVE",
"422 243 LINE",
"422 454 LINE",
"378 454 LINE",
"385 367 LINE",
"211 368 LINE",
"211 540 LINE SMOOTH",
"211 609 OFFCURVE",
"206 661 OFFCURVE",
"280 663 CURVE SMOOTH",
"353 665 LINE SMOOTH",
"428 667 OFFCURVE",
"491 643 OFFCURVE",
"491 525 CURVE",
"524 525 LINE",
"519 700 LINE"
);
}
);
width = 548;
}
);
leftKerningGroup = I;
unicode = 0046;
},
{
color = 4;
glyphname = G;
lastChange = "2016-08-19 17:26:00 +0000";
layers = (
{
anchors = (
{
name = bottom;
position = "{427, 0}";
},
{
name = top;
position = "{396, 700}";
}
);
layerId = "C9B29665-C437-4A1D-A258-6E2E4B235112";
name = Light;
paths = (
{
closed = 1;
nodes = (
"162 716 OFFCURVE",
"47 523 OFFCURVE",
"47 335 CURVE SMOOTH",
"47 116 OFFCURVE",
"186 -16 OFFCURVE",
"387 -16 CURVE SMOOTH",
"431 -16 OFFCURVE",
"492 -6 OFFCURVE",
"533 10 CURVE SMOOTH",
"581 29 OFFCURVE",
"619 36 OFFCURVE",
"641 36 CURVE SMOOTH",
"668 36 LINE",
"668 189 LINE SMOOTH",
"668 216 OFFCURVE",
"665 308 OFFCURVE",
"740 308 CURVE",
"740 341 LINE",
"514 341 LINE",
"514 297 LINE",
"584 301 LINE",
"584 82 LINE",
"532 47 OFFCURVE",
"466 32 OFFCURVE",
"413 32 CURVE SMOOTH",
"255 32 OFFCURVE",
"146 169 OFFCURVE",
"146 358 CURVE SMOOTH",
"146 544 OFFCURVE",
"260 676 OFFCURVE",
"402 676 CURVE SMOOTH",
"518 676 OFFCURVE",
"608 605 OFFCURVE",
"617 480 CURVE",
"653 480 LINE",
"653 709 LINE",
"598 709 LINE",
"602 661 LINE",
"546 695 OFFCURVE",
"467 716 OFFCURVE",
"395 716 CURVE SMOOTH"
);
}
);
width = 761;
}
);
leftKerningGroup = O;
rightKerningGroup = G;
unicode = 0047;
},
{
color = 4;
glyphname = H;
layers = (
{
anchors = (
{
name = center;
position = "{390, 350}";
},
{
name = top;
position = "{390, 700}";
}
);
layerId = "C9B29665-C437-4A1D-A258-6E2E4B235112";
name = Light;
paths = (
{
closed = 1;
nodes = (
"500 700 LINE",
"500 656 LINE",
"572 660 LINE",
"570 640 OFFCURVE",
"569 615 OFFCURVE",
"569 588 CURVE SMOOTH",
"569 378 LINE",
"211 378 LINE",
"211 544 LINE SMOOTH",
"211 615 OFFCURVE",
"205 664 OFFCURVE",
"280 667 CURVE",
"280 700 LINE",
"55 700 LINE",
"55 656 LINE",
"127 660 LINE",
"125 640 OFFCURVE",
"124 615 OFFCURVE",
"124 588 CURVE SMOOTH",
"124 156 LINE SMOOTH",
"124 85 OFFCURVE",
"130 36 OFFCURVE",
"55 33 CURVE",
"55 0 LINE",
"280 0 LINE",
"280 44 LINE",
"208 40 LINE",
"210 57 OFFCURVE",
"211 83 OFFCURVE",
"211 119 CURVE SMOOTH",
"211 334 LINE",
"569 338 LINE",
"569 156 LINE SMOOTH",
"569 85 OFFCURVE",
"575 36 OFFCURVE",
"500 33 CURVE",
"500 0 LINE",
"725 0 LINE",
"725 44 LINE",
"653 40 LINE",
"655 57 OFFCURVE",
"656 83 OFFCURVE",
"656 119 CURVE SMOOTH",
"656 544 LINE SMOOTH",
"656 615 OFFCURVE",
"650 664 OFFCURVE",
"725 667 CURVE",
"725 700 LINE"
);
}
);
width = 780;
}
);
leftKerningGroup = I;
rightKerningGroup = I;
unicode = 0048;
},
{
color = 4;
glyphname = I;
layers = (
{
anchors = (
{
name = ogonek;
position = "{274, 0}";
},
{
name = top;
position = "{170, 700}";
}
);
layerId = "C9B29665-C437-4A1D-A258-6E2E4B235112";
name = Light;
paths = (
{
closed = 1;
nodes = (
"55 700 LINE",
"55 656 LINE",
"127 660 LINE",
"125 640 OFFCURVE",
"124 615 OFFCURVE",
"124 588 CURVE SMOOTH",
"124 156 LINE SMOOTH",
"124 85 OFFCURVE",
"130 36 OFFCURVE",
"55 33 CURVE",
"55 0 LINE",
"280 0 LINE",
"280 44 LINE",
"208 40 LINE",
"210 57 OFFCURVE",
"211 83 OFFCURVE",
"211 119 CURVE SMOOTH",
"211 544 LINE SMOOTH",
"211 615 OFFCURVE",
"205 664 OFFCURVE",
"280 667 CURVE",
"280 700 LINE"
);
}
);
width = 335;
}
);
leftKerningGroup = I;
rightKerningGroup = I;
unicode = 0049;
},
{
color = 4;
glyphname = Icircumflex;
layers = (
{
anchors = (
{
name = _top;
position = "{171, 700}";
}
);
components = (
{
name = I;
transform = "{1, 0, 0, 1, 0, 0}";
}
);
layerId = "C9B29665-C437-4A1D-A258-6E2E4B235112";
name = Light;
paths = (
{
closed = 1;
nodes = (
"174 931 LINE",
"19 789 LINE",
"44 760 LINE",
"171 844 LINE",
"172 844 LINE",
"300 760 LINE",
"323 790 LINE",
"176 931 LINE"
);
}
);
width = 335;
}
);
leftKerningGroup = I;
rightKerningGroup = I;
unicode = 00CE;
},
{
color = 4;
glyphname = J;
layers = (
{
anchors = (
{
name = top;
position = "{215, 700}";
}
);
layerId = "C9B29665-C437-4A1D-A258-6E2E4B235112";
name = Light;
paths = (
{
closed = 1;
nodes = (
"77 700 LINE",
"77 656 LINE",
"179 660 LINE",
"179 139 LINE SMOOTH",
"179 57 OFFCURVE",
"160 26 OFFCURVE",
"120 25 CURVE SMOOTH",
"110 24 OFFCURVE",
"89 28 OFFCURVE",
"81 41 CURVE",
"84 47 OFFCURVE",
"85 57 OFFCURVE",
"85 63 CURVE SMOOTH",
"85 83 OFFCURVE",
"74 109 OFFCURVE",
"41 107 CURVE SMOOTH",
"12 106 OFFCURVE",
"-2 81 OFFCURVE",
"-2 55 CURVE SMOOTH",
"-2 11 OFFCURVE",
"48 -16 OFFCURVE",
"104 -16 CURVE SMOOTH",
"219 -16 OFFCURVE",
"266 56 OFFCURVE",
"266 244 CURVE SMOOTH",
"266 568 LINE SMOOTH",
"266 624 OFFCURVE",
"277 667 OFFCURVE",
"343 667 CURVE",
"343 700 LINE"
);
}
);
width = 373;
}
);
leftKerningGroup = J;
rightKerningGroup = J;
unicode = 004A;
},
{
color = 4;
glyphname = Jcircumflex;
layers = (
{
components = (
{
name = J;
transform = "{1, 0, 0, 1, 0, 0}";
}
);
layerId = "C9B29665-C437-4A1D-A258-6E2E4B235112";
name = Light;
paths = (
{
closed = 1;
nodes = (
"213 931 LINE",
"58 789 LINE",
"83 760 LINE",
"210 844 LINE",
"211 844 LINE",
"339 760 LINE",
"362 790 LINE",
"215 931 LINE"
);
}
);
width = 373;
}
);
leftKerningGroup = J;
rightKerningGroup = J;
unicode = 0134;
},
{
color = 4;
glyphname = K;
layers = (
{
anchors = (
{
name = bottom;
position = "{378, 0}";
},
{
name = top;
position = "{347, 700}";
}
);
layerId = "C9B29665-C437-4A1D-A258-6E2E4B235112";
name = Light;
paths = (
{
closed = 1;
nodes = (
"421 700 LINE",
"421 659 LINE",
"482 661 LINE",
"455 639 OFFCURVE",
"428 603 OFFCURVE",
"411 577 CURVE SMOOTH",
"286 380 LINE",
"211 380 LINE",
"211 544 LINE SMOOTH",
"211 615 OFFCURVE",
"205 664 OFFCURVE",
"280 667 CURVE",
"280 700 LINE",
"55 700 LINE",
"55 656 LINE",
"127 660 LINE",
"125 640 OFFCURVE",
"124 615 OFFCURVE",
"124 588 CURVE SMOOTH",
"124 156 LINE SMOOTH",
"124 85 OFFCURVE",
"130 36 OFFCURVE",
"55 33 CURVE",
"55 0 LINE",
"280 0 LINE",
"280 44 LINE",
"208 40 LINE",
"210 57 OFFCURVE",
"211 83 OFFCURVE",
"211 119 CURVE SMOOTH",
"211 340 LINE",
"260 341 LINE",
"284 326 OFFCURVE",
"310 293 OFFCURVE",
"335 260 CURVE SMOOTH",
"455 98 LINE SMOOTH",
"494 47 OFFCURVE",
"536 0 OFFCURVE",
"556 0 CURVE SMOOTH",
"678 0 LINE",
"678 33 LINE",
"635 33 OFFCURVE",
"607 41 OFFCURVE",
"531 142 CURVE SMOOTH",
"419 291 LINE SMOOTH",
"395 322 OFFCURVE",
"374 353 OFFCURVE",
"336 376 CURVE",
"434 532 LINE SMOOTH",
"502 641 OFFCURVE",
"552 660 OFFCURVE",
"636 667 CURVE",
"636 700 LINE"
);
}
);
width = 683;
}
);
leftKerningGroup = I;
rightKerningGroup = K;
unicode = 004B;
},
{
color = 4;
glyphname = L;
layers = (
{
anchors = (
{
name = bottom;
position = "{319, 0}";
},
{
name = top;
position = "{181, 700}";
}
);
layerId = "C9B29665-C437-4A1D-A258-6E2E4B235112";
name = Light;
paths = (
{
closed = 1;
nodes = (
"55 700 LINE",
"55 656 LINE",
"127 660 LINE",
"125 640 OFFCURVE",
"124 615 OFFCURVE",
"124 588 CURVE SMOOTH",
"124 156 LINE SMOOTH",
"124 85 OFFCURVE",
"130 36 OFFCURVE",
"55 33 CURVE",
"55 0 LINE",
"551 0 LINE",
"557 207 LINE",
"523 207 LINE",
"523 89 OFFCURVE",
"479 41 OFFCURVE",
"395 40 CURVE SMOOTH",
"208 37 LINE",
"210 54 OFFCURVE",
"211 79 OFFCURVE",
"211 115 CURVE SMOOTH",
"211 544 LINE SMOOTH",
"211 615 OFFCURVE",
"205 664 OFFCURVE",
"280 667 CURVE",
"280 700 LINE"
);
}
);
width = 578;
}
);
leftKerningGroup = I;
rightKerningGroup = L;
unicode = 004C;
},
{
color = 4;
glyphname = Lslash;
layers = (
{
components = (
{
name = L;
transform = "{1, 0, 0, 1, 0, 0}";
}
);
layerId = "C9B29665-C437-4A1D-A258-6E2E4B235112";
name = Light;
paths = (
{
closed = 1;
nodes = (
"48 284 LINE",
"48 228 LINE",
"390 481 LINE",
"390 536 LINE"
);
}
);
width = 578;
}
);
leftKerningGroup = I;
rightKerningGroup = L;
unicode = 0141;
},
{
color = 4;
glyphname = M;
layers = (
{
layerId = "C9B29665-C437-4A1D-A258-6E2E4B235112";
name = Light;
paths = (
{
closed = 1;
nodes = (
"704 700 LINE",
"642 543 OFFCURVE",
"577 397 OFFCURVE",
"519 251 CURVE SMOOTH",
"505 215 OFFCURVE",
"483 158 OFFCURVE",
"468 122 CURVE",
"466 122 LINE",
"381 316 OFFCURVE",
"308 491 OFFCURVE",
"216 700 CURVE",
"63 700 LINE",
"63 657 LINE",
"135 660 LINE",
"113 125 LINE SMOOTH",
"111 76 OFFCURVE",
"106 34 OFFCURVE",
"44 33 CURVE",
"44 0 LINE",
"235 0 LINE",
"235 44 LINE",
"160 40 LINE",
"163 65 OFFCURVE",
"163 95 OFFCURVE",
"164 125 CURVE SMOOTH",
"166 260 OFFCURVE",
"172 447 OFFCURVE",
"175 543 CURVE SMOOTH",
"176 587 LINE",
"254 379 OFFCURVE",
"345 186 OFFCURVE",
"432 -10 CURVE",
"462 -10 LINE",
"687 546 LINE SMOOTH",
"691 558 OFFCURVE",
"696 568 OFFCURVE",
"700 578 CURVE",
"726 152 LINE SMOOTH",
"730 76 OFFCURVE",
"722 35 OFFCURVE",
"660 33 CURVE",
"660 0 LINE",
"884 0 LINE",
"884 44 LINE",
"811 41 LINE",
"811 58 OFFCURVE",
"811 80 OFFCURVE",
"809 103 CURVE SMOOTH",
"783 558 LINE SMOOTH",
"778 640 OFFCURVE",
"802 668 OFFCURVE",
"852 667 CURVE",
"852 700 LINE"
);
}
);
width = 918;
}
);
unicode = 004D;
},
{
color = 4;
glyphname = N;
layers = (
{
anchors = (
{
name = bottom;
position = "{381, 0}";
},
{
name = top;
position = "{395, 700}";
}
);
layerId = "C9B29665-C437-4A1D-A258-6E2E4B235112";
name = Light;
paths = (
{
closed = 1;
nodes = (
"535 700 LINE",
"535 656 LINE",
"607 660 LINE",
"605 640 OFFCURVE",
"604 615 OFFCURVE",
"604 588 CURVE SMOOTH",
"603 130 LINE",
"602 130 LINE",
"176 700 LINE",
"57 700 LINE",
"57 656 LINE",
"124 660 LINE",
"123 112 LINE SMOOTH",
"123 81 OFFCURVE",
"118 33 OFFCURVE",
"57 33 CURVE",
"57 0 LINE",
"240 0 LINE",
"240 44 LINE",
"168 40 LINE",
"170 72 OFFCURVE",
"170 105 OFFCURVE",
"170 139 CURVE SMOOTH",
"167 567 LINE",
"168 567 LINE",
"602 -16 LINE",
"650 -16 LINE",
"652 544 LINE SMOOTH",
"652 615 OFFCURVE",
"644 664 OFFCURVE",
"719 667 CURVE",
"719 700 LINE"
);
}
);
width = 762;
}
);
leftKerningGroup = I;
rightKerningGroup = N;
unicode = 004E;
},
{
color = 4;
glyphname = O;
lastChange = "2016-08-19 17:45:27 +0000";
layers = (
{
anchors = (
{
name = top;
position = "{388, 700}";
}
);
layerId = "C9B29665-C437-4A1D-A258-6E2E4B235112";
name = Light;
paths = (
{
closed = 1;
nodes = (
"157 716 OFFCURVE",
"45 518 OFFCURVE",
"45 350 CURVE SMOOTH",
"45 176 OFFCURVE",
"147 -16 OFFCURVE",
"401 -16 CURVE SMOOTH",
"637 -16 OFFCURVE",
"749 184 OFFCURVE",
"749 350 CURVE SMOOTH",
"749 517 OFFCURVE",
"637 716 OFFCURVE",
"393 716 CURVE SMOOTH"
);
},
{
closed = 1;
nodes = (
"556 675 OFFCURVE",
"649 495 OFFCURVE",
"649 331 CURVE SMOOTH",
"649 184 OFFCURVE",
"567 25 OFFCURVE",
"403 25 CURVE SMOOTH",
"224 25 OFFCURVE",
"143 220 OFFCURVE",
"143 368 CURVE SMOOTH",
"143 516 OFFCURVE",
"225 675 OFFCURVE",
"390 675 CURVE SMOOTH"
);
}
);
width = 794;
}
);
leftKerningGroup = O;
rightKerningGroup = O;
unicode = 004F;
},
{
color = 4;
glyphname = Oslash;
layers = (
{
components = (
{
name = O;
transform = "{1, 0, 0, 1, -1, 0}";
}
);
layerId = "C9B29665-C437-4A1D-A258-6E2E4B235112";
name = Light;
paths = (
{
closed = 1;
nodes = (
"145 -50 LINE",
"193 -80 LINE",
"665 721 LINE",
"611 755 LINE"
);
}
);
width = 794;
}
);
leftKerningGroup = O;
rightKerningGroup = O;
unicode = 00D8;
},
{
color = 4;
glyphname = OE;
lastChange = "2016-08-19 17:27:01 +0000";
layers = (
{
layerId = "C9B29665-C437-4A1D-A258-6E2E4B235112";
name = Light;
paths = (
{
closed = 1;
nodes = (
"155 710 OFFCURVE",
"46 517 OFFCURVE",
"46 329 CURVE SMOOTH",
"46 130 OFFCURVE",
"174 -16 OFFCURVE",
"385 -16 CURVE SMOOTH",
"424 -16 OFFCURVE",
"471 -11 OFFCURVE",
"524 0 CURVE",
"971 0 LINE",
"977 195 LINE",
"943 195 LINE",
"943 76 OFFCURVE",
"887 34 OFFCURVE",
"800 37 CURVE SMOOTH",
"608 43 LINE",
"610 60 OFFCURVE",
"611 85 OFFCURVE",
"611 121 CURVE SMOOTH",
"611 343 LINE",
"686 347 LINE SMOOTH",
"771 350 OFFCURVE",
"805 347 OFFCURVE",
"805 259 CURVE",
"838 259 LINE",
"838 469 LINE",
"793 469 LINE",
"801 383 LINE",
"611 383 LINE",
"611 544 LINE SMOOTH",
"611 625 OFFCURVE",
"612 661 OFFCURVE",
"687 663 CURVE SMOOTH",
"773 665 LINE SMOOTH",
"848 667 OFFCURVE",
"908 643 OFFCURVE",
"908 525 CURVE",
"941 525 LINE",
"936 700 LINE",
"524 700 LINE",
"484 709 OFFCURVE",
"435 716 OFFCURVE",
"397 716 CURVE SMOOTH"
);
},
{
closed = 1;
nodes = (
"439 674 OFFCURVE",
"486 668 OFFCURVE",
"524 651 CURVE",
"524 48 LINE",
"484 37 OFFCURVE",
"451 32 OFFCURVE",
"414 32 CURVE SMOOTH",
"256 32 OFFCURVE",
"147 155 OFFCURVE",
"145 344 CURVE SMOOTH",
"143 550 OFFCURVE",
"258 674 OFFCURVE",
"400 674 CURVE SMOOTH"
);
}
);
width = 1022;
}
);
leftKerningGroup = O;
rightKerningGroup = E;
unicode = 0152;
},
{
color = 4;
glyphname = P;
lastChange = "2016-08-19 17:26:37 +0000";
layers = (
{
layerId = "C9B29665-C437-4A1D-A258-6E2E4B235112";
name = Light;
paths = (
{
closed = 1;
nodes = (
"200 702 OFFCURVE",
"125 701 OFFCURVE",
"55 700 CURVE",
"55 656 LINE",
"127 660 LINE",
"125 640 OFFCURVE",
"124 615 OFFCURVE",
"124 588 CURVE SMOOTH",
"124 156 LINE SMOOTH",
"124 85 OFFCURVE",
"130 36 OFFCURVE",
"55 33 CURVE",
"55 0 LINE",
"300 0 LINE",
"300 45 LINE",
"208 40 LINE",
"210 57 OFFCURVE",
"211 83 OFFCURVE",
"211 119 CURVE SMOOTH",
"211 264 LINE",
"224 263 OFFCURVE",
"241 263 OFFCURVE",
"247 263 CURVE SMOOTH",
"521 263 OFFCURVE",
"585 404 OFFCURVE",
"580 508 CURVE SMOOTH",
"574 636 OFFCURVE",
"471 702 OFFCURVE",
"278 702 CURVE SMOOTH"
);
},
{
closed = 1;
nodes = (
"398 663 OFFCURVE",
"481 615 OFFCURVE",
"481 489 CURVE SMOOTH",
"481 372 OFFCURVE",
"390 302 OFFCURVE",
"276 302 CURVE SMOOTH",
"251 302 OFFCURVE",
"236 302 OFFCURVE",
"211 305 CURVE",
"211 544 LINE SMOOTH",
"211 615 OFFCURVE",
"205 663 OFFCURVE",
"276 663 CURVE SMOOTH"
);
}
);
width = 606;
}
);
leftKerningGroup = I;
unicode = 0050;
},
{
color = 4;
glyphname = Thorn;
lastChange = "2016-08-19 17:26:53 +0000";
layers = (
{
components = (
{
name = I;
transform = "{1, 0, 0, 1, 0, 0}";
}
);
layerId = "C9B29665-C437-4A1D-A258-6E2E4B235112";
name = Light;
paths = (
{
closed = 1;
nodes = (
"202 578 LINE",
"208 539 LINE",
"228 540 OFFCURVE",
"246 541 OFFCURVE",
"271 541 CURVE SMOOTH",
"404 541 OFFCURVE",
"471 483 OFFCURVE",
"471 377 CURVE SMOOTH",
"471 278 OFFCURVE",
"410 203 OFFCURVE",
"276 200 CURVE SMOOTH",
"251 199 OFFCURVE",
"234 199 OFFCURVE",
"208 203 CURVE",
"201 162 LINE",
"214 161 OFFCURVE",
"230 161 OFFCURVE",
"237 161 CURVE SMOOTH",
"511 161 OFFCURVE",
"577 288 OFFCURVE",
"570 392 CURVE SMOOTH",
"562 520 OFFCURVE",
"458 579 OFFCURVE",
"265 579 CURVE SMOOTH"
);
}
);
width = 596;
}
);
leftKerningGroup = I;
unicode = 00DE;
},
{
color = 4;
glyphname = Q;
layers = (
{
components = (
{
name = O;
transform = "{1, 0, 0, 1, 0, 0}";
}
);
layerId = "C9B29665-C437-4A1D-A258-6E2E4B235112";
name = Light;
paths = (
{
closed = 1;
nodes = (
"395 -16 LINE",
"459 -16 OFFCURVE",
"495 -81 OFFCURVE",
"585 -162 CURVE SMOOTH",
"647 -218 OFFCURVE",
"682 -218 OFFCURVE",
"754 -218 CURVE SMOOTH",
"786 -218 LINE",
"786 -185 LINE",
"747 -185 OFFCURVE",
"719 -157 OFFCURVE",
"626 -71 CURVE SMOOTH",
"540 9 OFFCURVE",
"507 -11 OFFCURVE",
"403 -7 CURVE"
);
}
);
width = 796;
}
);
leftKerningGroup = O;
rightKerningGroup = O;
unicode = 0051;
},
{
color = 4;
glyphname = R;
layers = (
{
anchors = (
{
name = bottom;
position = "{334, 0}";
},
{
name = top;
position = "{314, 700}";
}
);
layerId = "C9B29665-C437-4A1D-A258-6E2E4B235112";
name = Light;
paths = (
{
closed = 1;
nodes = (
"207 703 OFFCURVE",
"130 701 OFFCURVE",
"55 700 CURVE",
"55 656 LINE",
"127 660 LINE",
"125 640 OFFCURVE",
"124 615 OFFCURVE",
"124 588 CURVE SMOOTH",
"124 156 LINE SMOOTH",
"124 85 OFFCURVE",
"130 36 OFFCURVE",
"55 33 CURVE",
"55 0 LINE",
"280 0 LINE",
"280 44 LINE",
"208 40 LINE",
"210 57 OFFCURVE",
"211 83 OFFCURVE",
"211 119 CURVE SMOOTH",
"211 313 LINE",
"234 312 OFFCURVE",
"257 311 OFFCURVE",
"279 313 CURVE SMOOTH",
"307 287 OFFCURVE",
"328 246 OFFCURVE",
"346 218 CURVE SMOOTH",
"413 111 LINE SMOOTH",
"441 67 OFFCURVE",
"463 34 OFFCURVE",
"502 0 CURVE",
"628 0 LINE",
"628 33 LINE",
"565 33 OFFCURVE",
"540 74 OFFCURVE",
"506 128 CURVE SMOOTH",
"438 235 LINE SMOOTH",
"413 274 OFFCURVE",
"395 303 OFFCURVE",
"369 322 CURVE",
"521 353 OFFCURVE",
"557 444 OFFCURVE",
"556 522 CURVE SMOOTH",
"556 633 OFFCURVE",
"477 698 OFFCURVE",
"284 701 CURVE SMOOTH"
);
},
{
closed = 1;
nodes = (
"403 663 OFFCURVE",
"459 612 OFFCURVE",
"459 511 CURVE SMOOTH",
"459 396 OFFCURVE",
"382 354 OFFCURVE",
"273 350 CURVE SMOOTH",
"250 349 OFFCURVE",
"232 350 OFFCURVE",
"211 352 CURVE",
"211 544 LINE SMOOTH",
"211 615 OFFCURVE",
"205 663 OFFCURVE",
"280 663 CURVE SMOOTH"
);
}
);
width = 628;
}
);
leftKerningGroup = I;
rightKerningGroup = R;
unicode = 0052;
},
{
color = 4;
glyphname = S;
layers = (
{
anchors = (
{
name = bottom;
position = "{304, 0}";
},
{
name = top;
position = "{272, 700}";
}
);
layerId = "C9B29665-C437-4A1D-A258-6E2E4B235112";
name = Light;
paths = (
{
closed = 1;
nodes = (
"101 716 OFFCURVE",
"60 608 OFFCURVE",
"60 540 CURVE SMOOTH",
"60 304 OFFCURVE",
"437 345 OFFCURVE",
"437 151 CURVE SMOOTH",
"437 70 OFFCURVE",
"371 26 OFFCURVE",
"293 26 CURVE SMOOTH",
"187 26 OFFCURVE",
"104 87 OFFCURVE",
"97 205 CURVE",
"58 205 LINE",
"64 -8 LINE",
"116 -8 LINE",
"111 35 LINE",
"160 1 OFFCURVE",
"229 -16 OFFCURVE",
"289 -16 CURVE SMOOTH",
"438 -16 OFFCURVE",
"523 63 OFFCURVE",
"523 174 CURVE SMOOTH",
"523 411 OFFCURVE",
"142 376 OFFCURVE",
"142 559 CURVE SMOOTH",
"142 622 OFFCURVE",
"187 676 OFFCURVE",
"270 676 CURVE SMOOTH",
"387 676 OFFCURVE",
"442 584 OFFCURVE",
"448 488 CURVE",
"484 488 LINE",
"484 708 LINE",
"433 708 LINE",
"437 665 LINE",
"382 705 OFFCURVE",
"314 716 OFFCURVE",
"263 716 CURVE SMOOTH"
);
}
);
width = 567;
}
);
leftKerningGroup = S;
rightKerningGroup = S;
unicode = 0053;
},
{
color = 4;
glyphname = T;
layers = (
{
anchors = (
{
name = bottom;
position = "{321, 0}";
},
{
name = center;
position = "{320, 350}";
},
{
name = top;
position = "{320, 700}";
}
);
layerId = "C9B29665-C437-4A1D-A258-6E2E4B235112";
name = Light;
paths = (
{
closed = 1;
nodes = (
"28 700 LINE",
"22 489 LINE",
"59 489 LINE",
"59 607 OFFCURVE",
"90 662 OFFCURVE",
"174 662 CURVE SMOOTH",
"277 663 LINE",
"276 156 LINE SMOOTH",
"276 88 OFFCURVE",
"283 36 OFFCURVE",
"208 33 CURVE",
"208 0 LINE",
"443 0 LINE",
"443 44 LINE",
"360 40 LINE",
"362 57 OFFCURVE",
"363 83 OFFCURVE",
"363 119 CURVE SMOOTH",
"364 664 LINE",
"449 664 LINE SMOOTH",
"552 665 OFFCURVE",
"577 607 OFFCURVE",
"579 489 CURVE",
"617 489 LINE",
"611 700 LINE"
);
}
);
width = 640;
}
);
leftKerningGroup = T;
rightKerningGroup = T;
unicode = 0054;
},
{
color = 4;
glyphname = U;
lastChange = "2016-08-19 17:27:19 +0000";
layers = (
{
anchors = (
{
name = ogonek;
position = "{497, 5}";
},
{
name = top;
position = "{388, 700}";
}
);
layerId = "C9B29665-C437-4A1D-A258-6E2E4B235112";
name = Light;
paths = (
{
closed = 1;
nodes = (
"536 700 LINE",
"536 656 LINE",
"607 660 LINE",
"605 640 OFFCURVE",
"604 615 OFFCURVE",
"604 588 CURVE SMOOTH",
"601 307 LINE SMOOTH",
"599 151 OFFCURVE",
"538 41 OFFCURVE",
"394 41 CURVE SMOOTH",
"214 41 OFFCURVE",
"186 187 OFFCURVE",
"186 336 CURVE SMOOTH",
"186 588 LINE SMOOTH",
"186 615 OFFCURVE",
"187 667 OFFCURVE",
"254 667 CURVE",
"254 700 LINE",
"31 700 LINE",
"31 657 LINE",
"103 660 LINE",
"101 634 OFFCURVE",
"99 579 OFFCURVE",
"99 544 CURVE SMOOTH",
"99 341 LINE SMOOTH",
"99 94 OFFCURVE",
"167 -16 OFFCURVE",
"381 -16 CURVE SMOOTH",
"582 -16 OFFCURVE",
"649 138 OFFCURVE",
"650 312 CURVE SMOOTH",
"652 544 LINE SMOOTH",
"652 615 OFFCURVE",
"646 664 OFFCURVE",
"722 667 CURVE",
"722 700 LINE"
);
}
);
width = 752;
}
);
leftKerningGroup = U;
rightKerningGroup = U;
unicode = 0055;
},
{
color = 4;
glyphname = V;
layers = (
{
layerId = "C9B29665-C437-4A1D-A258-6E2E4B235112";
name = Light;
paths = (
{
closed = 1;
nodes = (
"468 700 LINE",
"468 656 LINE",
"545 660 LINE",
"537 644 OFFCURVE",
"528 620 OFFCURVE",
"516 586 CURVE SMOOTH",
"495 527 OFFCURVE",
"464 442 OFFCURVE",
"405 275 CURVE SMOOTH",
"384 216 OFFCURVE",
"370 178 OFFCURVE",
"355 132 CURVE",
"353 132 LINE",
"337 177 OFFCURVE",
"304 250 OFFCURVE",
"272 325 CURVE SMOOTH",
"236 410 OFFCURVE",
"209 479 OFFCURVE",
"177 558 CURVE SMOOTH",
"150 624 OFFCURVE",
"160 662 OFFCURVE",
"227 666 CURVE",
"228 667 LINE",
"228 700 LINE",
"-4 700 LINE",
"-4 656 LINE",
"52 658 LINE",
"56 628 OFFCURVE",
"66 590 OFFCURVE",
"95 522 CURVE SMOOTH",
"322 -10 LINE",
"350 -10 LINE",
"546 527 OFFCURVE",
"553 547 OFFCURVE",
"561 569 CURVE SMOOTH",
"586 641 OFFCURVE",
"612 664 OFFCURVE",
"671 667 CURVE",
"671 700 LINE"
);
}
);
width = 653;
}
);
unicode = 0056;
},
{
color = 4;
glyphname = W;
layers = (
{
anchors = (
{
name = top;
position = "{513, 700}";
}
);
layerId = "C9B29665-C437-4A1D-A258-6E2E4B235112";
name = Light;
paths = (
{
closed = 1;
nodes = (
"495 702 LINE",
"478 642 OFFCURVE",
"418 467 OFFCURVE",
"362 289 CURVE SMOOTH",
"353 262 OFFCURVE",
"334 202 OFFCURVE",
"321 157 CURVE",
"319 157 LINE",
"299 220 OFFCURVE",
"280 265 OFFCURVE",
"261 325 CURVE SMOOTH",
"235 406 OFFCURVE",
"208 470 OFFCURVE",
"185 558 CURVE SMOOTH",
"163 638 OFFCURVE",
"172 663 OFFCURVE",
"250 667 CURVE",
"250 700 LINE",
"7 700 LINE",
"7 656 LINE",
"63 658 LINE",
"69 628 OFFCURVE",
"82 592 OFFCURVE",
"105 522 CURVE SMOOTH",
"284 -10 LINE",
"313 -10 LINE",
"489 525 LINE",
"676 -10 LINE",
"706 -10 LINE",
"769 163 OFFCURVE",
"825 338 OFFCURVE",
"886 519 CURVE SMOOTH",
"928 642 OFFCURVE",
"942 659 OFFCURVE",
"1010 667 CURVE",
"1010 700 LINE",
"807 700 LINE",
"807 656 LINE",
"887 659 LINE",
"874 636 OFFCURVE",
"864 608 OFFCURVE",
"856 586 CURVE SMOOTH",
"835 524 OFFCURVE",
"822 472 OFFCURVE",
"753 274 CURVE SMOOTH",
"738 229 OFFCURVE",
"724 184 OFFCURVE",
"712 145 CURVE",
"709 145 LINE",
"691 208 OFFCURVE",
"669 265 OFFCURVE",
"651 325 CURVE SMOOTH",
"625 406 OFFCURVE",
"552 614 OFFCURVE",
"527 702 CURVE"
);
}
);
width = 995;
}
);
unicode = 0057;
},
{
color = 4;
glyphname = X;
layers = (
{
layerId = "C9B29665-C437-4A1D-A258-6E2E4B235112";
name = Light;
paths = (
{
closed = 1;
nodes = (
"426 700 LINE",
"426 656 LINE",
"510 660 LINE",
"489 641 OFFCURVE",
"455 592 OFFCURVE",
"421 544 CURVE SMOOTH",
"325 405 LINE",
"273 477 OFFCURVE",
"225 544 OFFCURVE",
"201 584 CURVE SMOOTH",
"178 621 OFFCURVE",
"151 662 OFFCURVE",
"224 665 CURVE SMOOTH",
"268 667 LINE",
"268 700 LINE",
"9 700 LINE",
"9 656 LINE",
"64 658 LINE",
"86 604 OFFCURVE",
"104 584 OFFCURVE",
"279 339 CURVE",
"149 153 LINE SMOOTH",
"104 87 OFFCURVE",
"76 46 OFFCURVE",
"12 33 CURVE",
"12 0 LINE",
"208 0 LINE",
"208 44 LINE",
"125 39 LINE",
"158 77 OFFCURVE",
"183 117 OFFCURVE",
"207 153 CURVE SMOOTH",
"240 203 OFFCURVE",
"273 252 OFFCURVE",
"306 300 CURVE",
"367 215 OFFCURVE",
"422 147 OFFCURVE",
"453 106 CURVE SMOOTH",
"477 73 OFFCURVE",
"488 30 OFFCURVE",
"411 33 CURVE",
"411 0 LINE",
"656 0 LINE",
"656 44 LINE",
"598 42 LINE",
"529 135 LINE SMOOTH",
"498 176 OFFCURVE",
"424 272 OFFCURVE",
"353 368 CURVE",
"466 528 LINE SMOOTH",
"508 588 OFFCURVE",
"559 658 OFFCURVE",
"623 667 CURVE",
"623 700 LINE"
);
}
);
width = 649;
}
);
unicode = 0058;
},
{
color = 4;
glyphname = Y;
layers = (
{
anchors = (
{
name = top;
position = "{331, 700}";
}
);
layerId = "C9B29665-C437-4A1D-A258-6E2E4B235112";
name = Light;
paths = (
{
closed = 1;
nodes = (
"440 700 LINE",
"440 656 LINE",
"519 659 LINE",
"500 638 OFFCURVE",
"481 602 OFFCURVE",
"471 583 CURVE SMOOTH",
"428 502 OFFCURVE",
"390 431 OFFCURVE",
"343 340 CURVE",
"341 340 LINE",
"284 420 OFFCURVE",
"249 479 OFFCURVE",
"199 558 CURVE SMOOTH",
"159 622 OFFCURVE",
"160 667 OFFCURVE",
"252 667 CURVE",
"252 700 LINE",
"-6 700 LINE",
"-6 656 LINE",
"56 658 LINE",
"61 633 OFFCURVE",
"76 598 OFFCURVE",
"110 545 CURVE SMOOTH",
"284 270 LINE",
"283 156 LINE SMOOTH",
"283 88 OFFCURVE",
"290 36 OFFCURVE",
"215 33 CURVE",
"215 0 LINE",
"450 0 LINE",
"450 44 LINE",
"367 40 LINE",
"369 57 OFFCURVE",
"370 83 OFFCURVE",
"370 119 CURVE SMOOTH",
"369 120 OFFCURVE",
"370 251 OFFCURVE",
"371 300 CURVE",
"410 374 OFFCURVE",
"451 452 OFFCURVE",
"497 538 CURVE SMOOTH",
"543 623 OFFCURVE",
"578 663 OFFCURVE",
"644 667 CURVE",
"644 700 LINE"
);
}
);
width = 634;
}
);
leftKerningGroup = Y;
rightKerningGroup = Y;
unicode = 0059;
},
{
color = 4;
glyphname = Z;
layers = (
{
anchors = (
{
name = top;
position = "{305, 700}";
}
);
layerId = "C9B29665-C437-4A1D-A258-6E2E4B235112";
name = Light;
paths = (
{
closed = 1;
nodes = (
"61 700 LINE",
"55 493 LINE",
"89 493 LINE",
"89 607 OFFCURVE",
"128 656 OFFCURVE",
"207 659 CURVE SMOOTH",
"462 663 LINE",
"437 634 OFFCURVE",
"417 603 OFFCURVE",
"398 573 CURVE SMOOTH",
"233 310 OFFCURVE",
"118 151 OFFCURVE",
"43 46 CURVE",
"43 0 LINE",
"556 0 LINE",
"562 205 LINE",
"528 205 LINE",
"528 93 OFFCURVE",
"461 42 OFFCURVE",
"373 41 CURVE SMOOTH",
"130 37 LINE",
"151 56 OFFCURVE",
"169 77 OFFCURVE",
"198 120 CURVE SMOOTH",
"557 665 LINE",
"557 700 LINE"
);
}
);
width = 610;
}
);
leftKerningGroup = Z;
rightKerningGroup = Z;
unicode = 005A;
},
{
color = 4;
glyphname = a;
lastChange = "2016-08-19 17:27:56 +0000";
layers = (
{
anchors = (
{
name = ogonek;
position = "{469, 5}";
},
{
name = top;
position = "{248, 500}";
}
);
background = {
paths = (
{
closed = 1;
nodes = (
"147 516 OFFCURVE",
"64 463 OFFCURVE",
"64 396 CURVE SMOOTH",
"64 369 OFFCURVE",
"79 347 OFFCURVE",
"107 347 CURVE SMOOTH",
"140 346 OFFCURVE",
"152 373 OFFCURVE",
"152 389 CURVE SMOOTH",
"152 401 OFFCURVE",
"149 416 OFFCURVE",
"139 427 CURVE",
"158 465 OFFCURVE",
"204 480 OFFCURVE",
"243 479 CURVE SMOOTH",
"330 477 OFFCURVE",
"339 410 OFFCURVE",
"339 341 CURVE SMOOTH",
"339 279 LINE",
"206 281 OFFCURVE",
"34 226 OFFCURVE",
"34 103 CURVE SMOOTH",
"34 36 OFFCURVE",
"83 -16 OFFCURVE",
"184 -16 CURVE SMOOTH",
"243 -16 OFFCURVE",
"296 12 OFFCURVE",
"341 57 CURVE",
"343 38 OFFCURVE",
"344 23 OFFCURVE",
"348 0 CURVE",
"491 0 LINE",
"491 42 LINE",
"420 38 LINE",
"423 65 OFFCURVE",
"424 85 OFFCURVE",
"424 106 CURVE SMOOTH",
"425 331 LINE SMOOTH",
"426 459 OFFCURVE",
"374 516 OFFCURVE",
"262 516 CURVE SMOOTH"
);
},
{
closed = 1;
nodes = (
"339 198 OFFCURVE",
"338 157 OFFCURVE",
"338 151 CURVE SMOOTH",
"338 132 OFFCURVE",
"338 115 OFFCURVE",
"339 100 CURVE",
"299 63 OFFCURVE",
"261 41 OFFCURVE",
"207 41 CURVE SMOOTH",
"166 41 OFFCURVE",
"131 65 OFFCURVE",
"129 115 CURVE SMOOTH",
"126 209 OFFCURVE",
"247 242 OFFCURVE",
"339 245 CURVE"
);
}
);
};
layerId = "C9B29665-C437-4A1D-A258-6E2E4B235112";
name = Light;
paths = (
{
closed = 1;
nodes = (
"147 516 OFFCURVE",
"64 463 OFFCURVE",
"64 396 CURVE SMOOTH",
"64 369 OFFCURVE",
"79 347 OFFCURVE",
"107 347 CURVE SMOOTH",
"140 346 OFFCURVE",
"152 373 OFFCURVE",
"152 389 CURVE SMOOTH",
"152 401 OFFCURVE",
"149 416 OFFCURVE",
"139 427 CURVE",
"158 465 OFFCURVE",
"204 480 OFFCURVE",
"243 479 CURVE SMOOTH",
"330 477 OFFCURVE",
"338 410 OFFCURVE",
"338 341 CURVE SMOOTH",
"338 279 LINE",
"198 281 OFFCURVE",
"34 226 OFFCURVE",
"34 103 CURVE SMOOTH",
"34 36 OFFCURVE",
"83 -16 OFFCURVE",
"184 -16 CURVE SMOOTH",
"243 -16 OFFCURVE",
"295 12 OFFCURVE",
"340 57 CURVE",
"340 57 OFFCURVE",
"342 57 OFFCURVE",
"342 57 CURVE",
"344 39 OFFCURVE",
"343 23 OFFCURVE",
"347 0 CURVE",
"491 0 LINE",
"491 42 LINE",
"420 38 LINE",
"423 65 OFFCURVE",
"424 85 OFFCURVE",
"424 106 CURVE SMOOTH",
"425 331 LINE SMOOTH",
"426 459 OFFCURVE",
"374 516 OFFCURVE",
"262 516 CURVE SMOOTH"
);
},
{
closed = 1;
nodes = (
"338 197 OFFCURVE",
"337 157 OFFCURVE",
"337 151 CURVE SMOOTH",
"337 132 OFFCURVE",
"337 115 OFFCURVE",
"338 100 CURVE",
"298 63 OFFCURVE",
"261 41 OFFCURVE",
"207 41 CURVE SMOOTH",
"166 41 OFFCURVE",
"130 65 OFFCURVE",
"129 115 CURVE SMOOTH",
"126 226 OFFCURVE",
"253 244 OFFCURVE",
"338 244 CURVE"
);
}
);
width = 516;
}
);
leftKerningGroup = a;
rightKerningGroup = a;
unicode = 0061;
},
{
color = 4;
glyphname = ae;
lastChange = "2016-08-19 17:36:30 +0000";
layers = (
{
background = {
paths = (
{
closed = 1;
nodes = (
"147 516 OFFCURVE",
"64 463 OFFCURVE",
"64 396 CURVE SMOOTH",
"64 369 OFFCURVE",
"79 347 OFFCURVE",
"107 347 CURVE SMOOTH",
"140 346 OFFCURVE",
"152 373 OFFCURVE",
"152 389 CURVE SMOOTH",
"152 401 OFFCURVE",
"149 416 OFFCURVE",
"139 427 CURVE",
"158 465 OFFCURVE",
"204 480 OFFCURVE",
"243 479 CURVE SMOOTH",
"330 477 OFFCURVE",
"338 410 OFFCURVE",
"338 341 CURVE SMOOTH",
"338 279 LINE",
"198 281 OFFCURVE",
"34 226 OFFCURVE",
"34 103 CURVE SMOOTH",
"34 36 OFFCURVE",
"83 -16 OFFCURVE",
"184 -16 CURVE SMOOTH",
"243 -16 OFFCURVE",
"295 12 OFFCURVE",
"340 57 CURVE",
"340 57 OFFCURVE",
"342 57 OFFCURVE",
"342 57 CURVE",
"344 39 OFFCURVE",
"343 23 OFFCURVE",
"347 0 CURVE",
"491 0 LINE",
"491 42 LINE",
"420 38 LINE",
"423 65 OFFCURVE",
"424 85 OFFCURVE",
"424 106 CURVE SMOOTH",
"425 331 LINE SMOOTH",
"426 459 OFFCURVE",
"374 516 OFFCURVE",
"262 516 CURVE SMOOTH"
);
},
{
closed = 1;
nodes = (
"338 197 OFFCURVE",
"337 157 OFFCURVE",
"337 151 CURVE SMOOTH",
"337 132 OFFCURVE",
"337 115 OFFCURVE",
"338 100 CURVE",
"298 63 OFFCURVE",
"261 41 OFFCURVE",
"207 41 CURVE SMOOTH",
"166 41 OFFCURVE",
"130 65 OFFCURVE",
"129 115 CURVE SMOOTH",
"126 226 OFFCURVE",
"253 244 OFFCURVE",
"338 244 CURVE"
);
}
);
};
layerId = "C9B29665-C437-4A1D-A258-6E2E4B235112";
name = Light;
paths = (
{
closed = 1;
nodes = (
"482 516 OFFCURVE",
"427 480 OFFCURVE",
"390 430 CURVE",
"366 483 OFFCURVE",
"319 516 OFFCURVE",
"252 516 CURVE SMOOTH",
"137 516 OFFCURVE",
"66 453 OFFCURVE",
"66 393 CURVE SMOOTH",
"66 363 OFFCURVE",
"83 345 OFFCURVE",
"108 345 CURVE SMOOTH",
"140 344 OFFCURVE",
"151 372 OFFCURVE",
"151 387 CURVE SMOOTH",
"151 395 OFFCURVE",
"147 412 OFFCURVE",
"138 420 CURVE",
"152 456 OFFCURVE",
"193 480 OFFCURVE",
"237 480 CURVE SMOOTH",
"328 480 OFFCURVE",
"336 407 OFFCURVE",
"336 336 CURVE SMOOTH",
"336 278 LINE",
"212 282 OFFCURVE",
"34 233 OFFCURVE",
"34 100 CURVE SMOOTH",
"34 33 OFFCURVE",
"89 -16 OFFCURVE",
"180 -16 CURVE SMOOTH",
"252 -16 OFFCURVE",
"305 5 OFFCURVE",
"360 75 CURVE",
"361 75 LINE",
"398 8 OFFCURVE",
"471 -16 OFFCURVE",
"549 -16 CURVE SMOOTH",
"617 -16 OFFCURVE",
"681 15 OFFCURVE",
"736 98 CURVE",
"711 118 LINE",
"678 71 OFFCURVE",
"635 35 OFFCURVE",
"573 35 CURVE SMOOTH",
"481 35 OFFCURVE",
"413 125 OFFCURVE",
"425 289 CURVE",
"730 295 LINE",
"729 454 OFFCURVE",
"654 516 OFFCURVE",
"553 516 CURVE SMOOTH"
);
},
{
closed = 1;
nodes = (
"336 205 OFFCURVE",
"342 134 OFFCURVE",
"345 107 CURVE",
"306 63 OFFCURVE",
"259 37 OFFCURVE",
"199 41 CURVE SMOOTH",
"167 43 OFFCURVE",
"131 63 OFFCURVE",
"129 112 CURVE SMOOTH",
"126 226 OFFCURVE",
"253 245 OFFCURVE",
"335 244 CURVE"
);
},
{
closed = 1;
nodes = (
"627 480 OFFCURVE",
"640 399 OFFCURVE",
"640 328 CURVE",
"432 328 LINE",
"441 407 OFFCURVE",
"471 480 OFFCURVE",
"549 480 CURVE SMOOTH"
);
}
);
width = 777;
}
);
leftKerningGroup = a;
rightKerningGroup = e;
unicode = 00E6;
},
{
color = 4;
glyphname = b;
lastChange = "2016-08-19 17:34:07 +0000";
layers = (
{
guideLines = (
{
angle = 90;
position = "{162, 457}";
},
{
angle = 90;
position = "{76, 563}";
}
);
layerId = "C9B29665-C437-4A1D-A258-6E2E4B235112";
name = Light;
paths = (
{
closed = 1;
nodes = (
"133 755 LINE",
"118 741 OFFCURVE",
"96 728 OFFCURVE",
"8 728 CURVE",
"8 686 LINE",
"79 690 LINE",
"76 663 OFFCURVE",
"76 646 OFFCURVE",
"76 625 CURVE SMOOTH",
"76 0 LINE",
"111 0 LINE",
"133 45 LINE",
"175 -3 OFFCURVE",
"235 -16 OFFCURVE",
"280 -16 CURVE SMOOTH",
"415 -16 OFFCURVE",
"540 91 OFFCURVE",
"540 262 CURVE SMOOTH",
"540 418 OFFCURVE",
"441 516 OFFCURVE",
"313 516 CURVE SMOOTH",
"251 516 OFFCURVE",
"199 494 OFFCURVE",
"162 457 CURVE",
"162 755 LINE"
);
},
{
closed = 1;
nodes = (
"387 470 OFFCURVE",
"437 372 OFFCURVE",
"437 237 CURVE SMOOTH",
"437 111 OFFCURVE",
"376 19 OFFCURVE",
"280 19 CURVE SMOOTH",
"219 19 OFFCURVE",
"162 51 OFFCURVE",
"162 157 CURVE SMOOTH",
"162 413 LINE",
"192 447 OFFCURVE",
"239 470 OFFCURVE",
"283 470 CURVE SMOOTH"
);
}
);
width = 582;
}
);
leftKerningGroup = b;
rightKerningGroup = o;
unicode = 0062;
},
{
color = 4;
glyphname = c;
lastChange = "2016-08-19 17:31:51 +0000";
layers = (
{
anchors = (
{
name = bottom;
position = "{342, 0}";
},
{
name = top;
position = "{292, 500}";
}
);
layerId = "C9B29665-C437-4A1D-A258-6E2E4B235112";
name = Light;
paths = (
{
closed = 1;
nodes = (
"147 516 OFFCURVE",
"41 379 OFFCURVE",
"41 241 CURVE SMOOTH",
"41 79 OFFCURVE",
"153 -16 OFFCURVE",
"288 -16 CURVE SMOOTH",
"356 -16 OFFCURVE",
"445 19 OFFCURVE",
"498 102 CURVE",
"472 122 LINE",
"440 74 OFFCURVE",
"377 36 OFFCURVE",
"315 36 CURVE SMOOTH",
"212 36 OFFCURVE",
"143 132 OFFCURVE",
"143 266 CURVE SMOOTH",
"143 404 OFFCURVE",
"213 481 OFFCURVE",
"304 481 CURVE SMOOTH",
"332 481 OFFCURVE",
"392 472 OFFCURVE",
"409 425 CURVE",
"397 413 OFFCURVE",
"394 398 OFFCURVE",
"394 385 CURVE SMOOTH",
"394 368 OFFCURVE",
"406 339 OFFCURVE",
"440 340 CURVE SMOOTH",
"470 340 OFFCURVE",
"487 364 OFFCURVE",
"487 393 CURVE SMOOTH",
"487 458 OFFCURVE",
"413 516 OFFCURVE",
"302 516 CURVE SMOOTH"
);
}
);
width = 532;
}
);
leftKerningGroup = o;
rightKerningGroup = c;
unicode = 0063;
},
{
color = 4;
glyphname = d;
lastChange = "2016-08-19 17:34:53 +0000";
layers = (
{
anchors = (
{
name = center;
position = "{299, 250}";
},
{
name = topright;
position = "{588, 500}";
}
);
layerId = "C9B29665-C437-4A1D-A258-6E2E4B235112";
name = Light;
paths = (
{
closed = 1;
nodes = (
"472 755 LINE",
"457 741 OFFCURVE",
"435 728 OFFCURVE",
"347 728 CURVE",
"347 686 LINE",
"418 690 LINE",
"415 663 OFFCURVE",
"415 646 OFFCURVE",
"415 625 CURVE SMOOTH",
"415 488 LINE",
"389 502 OFFCURVE",
"342 516 OFFCURVE",
"298 516 CURVE SMOOTH",
"149 516 OFFCURVE",
"42 399 OFFCURVE",
"42 236 CURVE SMOOTH",
"42 81 OFFCURVE",
"135 -16 OFFCURVE",
"258 -16 CURVE SMOOTH",
"324 -16 OFFCURVE",
"379 11 OFFCURVE",
"417 52 CURVE",
"418 36 OFFCURVE",
"420 20 OFFCURVE",
"424 0 CURVE",
"568 0 LINE",
"568 42 LINE",
"497 38 LINE",
"500 65 OFFCURVE",
"501 85 OFFCURVE",
"501 106 CURVE SMOOTH",
"501 755 LINE"
);
},
{
closed = 1;
nodes = (
"344 479 OFFCURVE",
"383 468 OFFCURVE",
"415 444 CURVE",
"414 154 LINE SMOOTH",
"414 133 OFFCURVE",
"414 115 OFFCURVE",
"415 99 CURVE",
"385 61 OFFCURVE",
"337 33 OFFCURVE",
"294 33 CURVE SMOOTH",
"200 33 OFFCURVE",
"149 122 OFFCURVE",
"145 245 CURVE SMOOTH",
"140 384 OFFCURVE",
"204 479 OFFCURVE",
"304 479 CURVE SMOOTH"
);
}
);
width = 598;
}
);
leftKerningGroup = o;
rightKerningGroup = d;
unicode = 0064;
},
{
color = 4;
glyphname = eth;
lastChange = "2016-08-19 17:35:25 +0000";
layers = (
{
layerId = "C9B29665-C437-4A1D-A258-6E2E4B235112";
name = Light;
paths = (
{
closed = 1;
nodes = (
"237 729 LINE",
"197 746 OFFCURVE",
"155 757 OFFCURVE",
"107 760 CURVE",
"103 718 LINE",
"140 715 OFFCURVE",
"174 705 OFFCURVE",
"204 691 CURVE",
"146 622 LINE",
"182 592 LINE",
"243 669 LINE",
"333 610 OFFCURVE",
"385 510 OFFCURVE",
"405 430 CURVE",
"403 430 LINE",
"371 481 OFFCURVE",
"307 498 OFFCURVE",
"257 496 CURVE SMOOTH",
"123 491 OFFCURVE",
"43 364 OFFCURVE",
"43 222 CURVE SMOOTH",
"43 74 OFFCURVE",
"139 -16 OFFCURVE",
"259 -16 CURVE SMOOTH",
"429 -16 OFFCURVE",
"503 114 OFFCURVE",
"502 272 CURVE SMOOTH",
"501 458 OFFCURVE",
"419 629 OFFCURVE",
"276 710 CURVE",
"320 766 LINE",
"291 793 LINE"
);
},
{
closed = 1;
nodes = (
"384 455 OFFCURVE",
"414 322 OFFCURVE",
"413 229 CURVE SMOOTH",
"412 93 OFFCURVE",
"348 20 OFFCURVE",
"275 20 CURVE SMOOTH",
"200 20 OFFCURVE",
"143 101 OFFCURVE",
"143 243 CURVE SMOOTH",
"143 359 OFFCURVE",
"193 464 OFFCURVE",
"283 460 CURVE SMOOTH"
);
}
);
width = 559;
}
);
unicode = 00F0;
},
{
color = 4;
glyphname = dcroat;
layers = (
{
components = (
{
name = d;
transform = "{1, 0, 0, 1, 0, 0}";
}
);
layerId = "C9B29665-C437-4A1D-A258-6E2E4B235112";
name = Light;
paths = (
{
closed = 1;
nodes = (
"255 628 LINE",
"255 583 LINE",
"579 586 LINE",
"579 628 LINE"
);
}
);
width = 598;
}
);
leftKerningGroup = o;
rightKerningGroup = d;
unicode = 0111;
userData = {
public.markColor = "0.75,0.75,0.75,1";
};
},
{
color = 4;
glyphname = e;
lastChange = "2016-08-19 17:36:01 +0000";
layers = (
{
anchors = (
{
name = bottom;
position = "{325, 0}";
},
{
name = ogonek;
position = "{389, 5}";
},
{
name = top;
position = "{282, 500}";
}
);
layerId = "C9B29665-C437-4A1D-A258-6E2E4B235112";
name = Light;
paths = (
{
closed = 1;
nodes = (
"143 516 OFFCURVE",
"42 389 OFFCURVE",
"42 249 CURVE SMOOTH",
"42 87 OFFCURVE",
"148 -16 OFFCURVE",
"286 -16 CURVE SMOOTH",
"354 -16 OFFCURVE",
"448 15 OFFCURVE",
"503 98 CURVE",
"479 118 LINE",
"445 71 OFFCURVE",
"372 35 OFFCURVE",
"310 35 CURVE SMOOTH",
"193 35 OFFCURVE",
"144 136 OFFCURVE",
"145 289 CURVE",
"497 295 LINE",
"497 444 OFFCURVE",
"405 516 OFFCURVE",
"294 516 CURVE SMOOTH"
);
},
{
closed = 1;
nodes = (
"373 481 OFFCURVE",
"403 399 OFFCURVE",
"403 328 CURVE",
"148 328 LINE",
"164 431 OFFCURVE",
"217 481 OFFCURVE",
"295 481 CURVE SMOOTH"
);
}
);
width = 542;
}
);
leftKerningGroup = o;
rightKerningGroup = e;
unicode = 0065;
},
{
color = 4;
glyphname = f;
lastChange = "2016-08-19 17:36:47 +0000";
layers = (
{
layerId = "C9B29665-C437-4A1D-A258-6E2E4B235112";
name = Light;
paths = (
{
closed = 1;
nodes = (
"155 760 OFFCURVE",
"107 669 OFFCURVE",
"107 521 CURVE SMOOTH",
"107 500 LINE",
"25 500 LINE",
"25 455 LINE",
"107 457 LINE",
"108 152 LINE SMOOTH",
"108 80 OFFCURVE",
"110 30 OFFCURVE",
"49 30 CURVE",
"49 0 LINE",
"254 0 LINE",
"254 41 LINE",
"191 38 LINE",
"195 61 OFFCURVE",
"195 79 OFFCURVE",
"195 106 CURVE SMOOTH",
"194 458 LINE",
"328 461 LINE",
"328 500 LINE",
"194 500 LINE",
"194 605 LINE SMOOTH",
"194 662 OFFCURVE",
"210 724 OFFCURVE",
"272 724 CURVE SMOOTH",
"286 724 OFFCURVE",
"305 719 OFFCURVE",
"315 707 CURVE",
"311 698 OFFCURVE",
"310 690 OFFCURVE",
"310 682 CURVE SMOOTH",
"310 667 OFFCURVE",
"321 640 OFFCURVE",
"353 641 CURVE SMOOTH",
"379 641 OFFCURVE",
"394 661 OFFCURVE",
"394 686 CURVE SMOOTH",
"394 738 OFFCURVE",
"330 760 OFFCURVE",
"287 760 CURVE SMOOTH"
);
}
);
width = 338;
}
);
leftKerningGroup = f;
rightKerningGroup = f;
unicode = 0066;
},
{
color = 4;
glyphname = g;
layers = (
{
anchors = (
{
name = top;
position = "{264, 500}";
}
);
layerId = "C9B29665-C437-4A1D-A258-6E2E4B235112";
name = Light;
paths = (
{
closed = 1;
nodes = (
"463 576 OFFCURVE",
"415 535 OFFCURVE",
"395 479 CURVE",
"357 503 OFFCURVE",
"312 516 OFFCURVE",
"268 516 CURVE SMOOTH",
"164 516 OFFCURVE",
"57 438 OFFCURVE",
"57 318 CURVE SMOOTH",
"57 249 OFFCURVE",
"97 195 OFFCURVE",
"158 166 CURVE",
"99 156 OFFCURVE",
"58 110 OFFCURVE",
"58 63 CURVE SMOOTH",
"58 21 OFFCURVE",
"84 -2 OFFCURVE",
"127 -16 CURVE",
"87 -33 OFFCURVE",
"35 -75 OFFCURVE",
"35 -136 CURVE SMOOTH",
"35 -202 OFFCURVE",
"104 -271 OFFCURVE",
"285 -271 CURVE SMOOTH",
"403 -271 OFFCURVE",
"530 -212 OFFCURVE",
"530 -104 CURVE SMOOTH",
"530 4 OFFCURVE",
"438 39 OFFCURVE",
"284 46 CURVE SMOOTH",
"192 50 OFFCURVE",
"135 54 OFFCURVE",
"125 86 CURVE SMOOTH",
"115 119 OFFCURVE",
"152 147 OFFCURVE",
"201 147 CURVE SMOOTH",
"227 147 OFFCURVE",
"243 142 OFFCURVE",
"268 142 CURVE SMOOTH",
"380 142 OFFCURVE",
"479 222 OFFCURVE",
"479 335 CURVE SMOOTH",
"479 381 OFFCURVE",
"458 424 OFFCURVE",
"426 454 CURVE",
"433 484 OFFCURVE",
"450 515 OFFCURVE",
"484 520 CURVE",
"488 500 OFFCURVE",
"503 485 OFFCURVE",
"526 485 CURVE SMOOTH",
"558 484 OFFCURVE",
"569 511 OFFCURVE",
"569 526 CURVE SMOOTH",
"569 557 OFFCURVE",
"550 576 OFFCURVE",
"516 576 CURVE SMOOTH"
);
},
{
closed = 1;
nodes = (
"203 -30 OFFCURVE",
"238 -32 OFFCURVE",
"274 -33 CURVE SMOOTH",
"385 -36 OFFCURVE",
"466 -51 OFFCURVE",
"466 -125 CURVE SMOOTH",
"466 -182 OFFCURVE",
"398 -232 OFFCURVE",
"284 -232 CURVE SMOOTH",
"181 -232 OFFCURVE",
"114 -190 OFFCURVE",
"114 -124 CURVE SMOOTH",
"114 -85 OFFCURVE",
"135 -49 OFFCURVE",
"171 -25 CURVE"
);
},
{
closed = 1;
nodes = (
"343 481 OFFCURVE",
"382 403 OFFCURVE",
"382 315 CURVE SMOOTH",
"382 237 OFFCURVE",
"345 178 OFFCURVE",
"271 178 CURVE SMOOTH",
"196 178 OFFCURVE",
"153 244 OFFCURVE",
"153 340 CURVE SMOOTH",
"153 420 OFFCURVE",
"194 481 OFFCURVE",
"266 481 CURVE SMOOTH"
);
}
);
width = 553;
}
);
leftKerningGroup = g;
rightKerningGroup = g;
unicode = 0067;
},
{
color = 4;
glyphname = h;
lastChange = "2016-08-19 17:37:29 +0000";
layers = (
{
anchors = (
{
name = center;
position = "{300, 250}";
},
{
name = top;
position = "{149, 703}";
}
);
layerId = "C9B29665-C437-4A1D-A258-6E2E4B235112";
name = Light;
paths = (
{
closed = 1;
nodes = (
"151 755 LINE",
"136 741 OFFCURVE",
"114 728 OFFCURVE",
"26 728 CURVE",
"26 686 LINE",
"97 690 LINE",
"94 663 OFFCURVE",
"94 646 OFFCURVE",
"94 625 CURVE SMOOTH",
"94 152 LINE SMOOTH",
"94 80 OFFCURVE",
"95 30 OFFCURVE",
"34 30 CURVE",
"34 0 LINE",
"238 0 LINE",
"238 41 LINE",
"175 38 LINE",
"179 61 OFFCURVE",
"180 79 OFFCURVE",
"180 106 CURVE SMOOTH",
"180 401 LINE",
"209 437 OFFCURVE",
"261 462 OFFCURVE",
"310 463 CURVE SMOOTH",
"389 464 OFFCURVE",
"423 406 OFFCURVE",
"423 292 CURVE SMOOTH",
"423 152 LINE SMOOTH",
"423 80 OFFCURVE",
"425 30 OFFCURVE",
"364 30 CURVE",
"364 0 LINE",
"569 0 LINE",
"569 41 LINE",
"506 38 LINE",
"510 61 OFFCURVE",
"510 79 OFFCURVE",
"510 106 CURVE SMOOTH",
"509 292 LINE SMOOTH",
"508 445 OFFCURVE",
"460 516 OFFCURVE",
"344 516 CURVE SMOOTH",
"287 516 OFFCURVE",
"224 487 OFFCURVE",
"180 450 CURVE",
"180 755 LINE"
);
}
);
width = 599;
}
);
leftKerningGroup = h;
rightKerningGroup = n;
unicode = 0068;
},
{
color = 4;
glyphname = i;
layers = (
{
components = (
{
name = period;
transform = "{0.920, 0, 0, 0.920, 31, 624}";
}
);
layerId = "C9B29665-C437-4A1D-A258-6E2E4B235112";
name = Light;
paths = (
{
closed = 1;
nodes = (
"160 510 LINE",
"145 496 OFFCURVE",
"124 483 OFFCURVE",
"36 483 CURVE",
"36 441 LINE",
"107 445 LINE",
"104 418 OFFCURVE",
"103 401 OFFCURVE",
"103 380 CURVE SMOOTH",
"103 152 LINE SMOOTH",
"103 80 OFFCURVE",
"105 30 OFFCURVE",
"44 30 CURVE",
"44 0 LINE",
"248 0 LINE",
"248 41 LINE",
"185 38 LINE",
"189 61 OFFCURVE",
"189 79 OFFCURVE",
"189 106 CURVE SMOOTH",
"189 510 LINE"
);
}
);
width = 281;
}
);
leftKerningGroup = i;
rightKerningGroup = i;
unicode = 0069;
},
{
color = 4;
glyphname = idotless;
layers = (
{
layerId = "C9B29665-C437-4A1D-A258-6E2E4B235112";
name = Light;
paths = (
{
closed = 1;
nodes = (
"160 510 LINE",
"145 496 OFFCURVE",
"124 483 OFFCURVE",
"36 483 CURVE",
"36 441 LINE",
"107 445 LINE",
"104 418 OFFCURVE",
"103 401 OFFCURVE",
"103 380 CURVE SMOOTH",
"103 152 LINE SMOOTH",
"103 80 OFFCURVE",
"105 30 OFFCURVE",
"44 30 CURVE",
"44 0 LINE",
"248 0 LINE",
"248 41 LINE",
"185 38 LINE",
"189 61 OFFCURVE",
"189 79 OFFCURVE",
"189 106 CURVE SMOOTH",
"189 510 LINE"
);
}
);
width = 281;
}
);
leftKerningGroup = i;
rightKerningGroup = i;
unicode = 0131;
},
{
color = 4;
glyphname = icircumflex;
layers = (
{
components = (
{
name = idotless;
transform = "{1, 0, 0, 1, 0, 0}";
}
);
layerId = "C9B29665-C437-4A1D-A258-6E2E4B235112";
name = Light;
paths = (
{
closed = 1;
nodes = (
"129 778 LINE",
"-6 619 LINE",
"25 590 LINE",
"125 683 LINE",
"127 683 LINE",
"230 587 LINE",
"258 615 LINE",
"131 778 LINE"
);
}
);
width = 281;
}
);
leftKerningGroup = i;
rightKerningGroup = i;
unicode = 00EE;
},
{
color = 4;
glyphname = j;
layers = (
{
components = (
{
name = period;
transform = "{0.920, 0, 0, 0.920, 20, 624}";
}
);
layerId = "C9B29665-C437-4A1D-A258-6E2E4B235112";
name = Light;
paths = (
{
closed = 1;
nodes = (
"152 510 LINE",
"137 496 OFFCURVE",
"115 483 OFFCURVE",
"27 483 CURVE",
"27 441 LINE",
"98 445 LINE",
"95 418 OFFCURVE",
"95 401 OFFCURVE",
"95 380 CURVE SMOOTH",
"93 -86 LINE SMOOTH",
"93 -142 OFFCURVE",
"86 -187 OFFCURVE",
"64 -208 CURVE SMOOTH",
"49 -223 OFFCURVE",
"24 -231 OFFCURVE",
"-2 -219 CURVE",
"-1 -216 OFFCURVE",
"-1 -213 OFFCURVE",
"-1 -210 CURVE SMOOTH",
"-1 -194 OFFCURVE",
"-12 -167 OFFCURVE",
"-45 -168 CURVE SMOOTH",
"-72 -168 OFFCURVE",
"-88 -191 OFFCURVE",
"-88 -215 CURVE SMOOTH",
"-88 -244 OFFCURVE",
"-64 -271 OFFCURVE",
"-9 -271 CURVE SMOOTH",
"99 -271 OFFCURVE",
"181 -190 OFFCURVE",
"181 -3 CURVE SMOOTH",
"181 510 LINE"
);
}
);
width = 218;
}
);
leftKerningGroup = j;
rightKerningGroup = i;
unicode = 006A;
},
{
color = 4;
glyphname = jcircumflex;
layers = (
{
layerId = "C9B29665-C437-4A1D-A258-6E2E4B235112";
name = Light;
paths = (
{
closed = 1;
nodes = (
"152 510 LINE",
"137 496 OFFCURVE",
"115 483 OFFCURVE",
"27 483 CURVE",
"27 441 LINE",
"98 445 LINE",
"95 418 OFFCURVE",
"95 401 OFFCURVE",
"95 380 CURVE SMOOTH",
"93 -86 LINE SMOOTH",
"93 -142 OFFCURVE",
"86 -187 OFFCURVE",
"64 -208 CURVE SMOOTH",
"49 -223 OFFCURVE",
"24 -231 OFFCURVE",
"-2 -219 CURVE",
"-1 -216 OFFCURVE",
"-1 -213 OFFCURVE",
"-1 -210 CURVE SMOOTH",
"-1 -194 OFFCURVE",
"-12 -167 OFFCURVE",
"-45 -168 CURVE SMOOTH",
"-72 -168 OFFCURVE",
"-88 -191 OFFCURVE",
"-88 -215 CURVE SMOOTH",
"-88 -244 OFFCURVE",
"-64 -271 OFFCURVE",
"-9 -271 CURVE SMOOTH",
"99 -271 OFFCURVE",
"181 -190 OFFCURVE",
"181 -3 CURVE SMOOTH",
"181 510 LINE"
);
},
{
closed = 1;
nodes = (
"125 778 LINE",
"-11 619 LINE",
"21 590 LINE",
"121 683 LINE",
"122 683 LINE",
"225 587 LINE",
"253 615 LINE",
"126 778 LINE"
);
}
);
width = 257;
}
);
leftKerningGroup = j;
rightKerningGroup = i;
unicode = 0135;
},
{
color = 4;
glyphname = k;
lastChange = "2016-08-19 17:37:58 +0000";
layers = (
{
anchors = (
{
name = bottom;
position = "{269, 0}";
}
);
layerId = "C9B29665-C437-4A1D-A258-6E2E4B235112";
name = Light;
paths = (
{
closed = 1;
nodes = (
"151 755 LINE",
"136 741 OFFCURVE",
"114 728 OFFCURVE",
"26 728 CURVE",
"26 686 LINE",
"97 690 LINE",
"94 663 OFFCURVE",
"94 646 OFFCURVE",
"94 625 CURVE SMOOTH",
"94 171 OFFCURVE",
"93 153 OFFCURVE",
"93 152 CURVE SMOOTH",
"93 80 OFFCURVE",
"96 30 OFFCURVE",
"35 30 CURVE",
"35 0 LINE",
"240 0 LINE",
"240 41 LINE",
"176 38 LINE",
"180 61 OFFCURVE",
"180 79 OFFCURVE",
"180 106 CURVE SMOOTH",
"180 243 LINE",
"220 245 LINE",
"246 220 OFFCURVE",
"281 166 OFFCURVE",
"333 94 CURVE SMOOTH",
"370 46 OFFCURVE",
"402 0 OFFCURVE",
"439 0 CURVE SMOOTH",
"530 0 LINE",
"530 30 LINE",
"484 30 OFFCURVE",
"421 122 OFFCURVE",
"409 138 CURVE SMOOTH",
"338 229 LINE SMOOTH",
"319 252 OFFCURVE",
"302 271 OFFCURVE",
"276 283 CURVE",
"354 365 LINE SMOOTH",
"390 402 OFFCURVE",
"446 463 OFFCURVE",
"514 470 CURVE",
"514 500 LINE",
"332 500 LINE",
"332 460 LINE",
"400 463 LINE",
"381 451 OFFCURVE",
"363 433 OFFCURVE",
"341 410 CURVE SMOOTH",
"219 282 LINE",
"180 282 LINE",
"180 755 LINE"
);
}
);
width = 537;
}
);
leftKerningGroup = h;
rightKerningGroup = k;
unicode = 006B;
},
{
color = 4;
glyphname = l;
layers = (
{
anchors = (
{
name = bottom;
position = "{136, 0}";
},
{
name = top;
position = "{136, 702}";
},
{
name = topright;
position = "{262, 500}";
}
);
layerId = "C9B29665-C437-4A1D-A258-6E2E4B235112";
name = Light;
paths = (
{
closed = 1;
nodes = (
"150 755 LINE",
"135 741 OFFCURVE",
"113 728 OFFCURVE",
"25 728 CURVE",
"25 686 LINE",
"96 690 LINE",
"93 663 OFFCURVE",
"93 646 OFFCURVE",
"93 625 CURVE SMOOTH",
"93 152 LINE SMOOTH",
"93 80 OFFCURVE",
"95 30 OFFCURVE",
"34 30 CURVE",
"34 0 LINE",
"238 0 LINE",
"238 41 LINE",
"175 38 LINE",
"179 61 OFFCURVE",
"180 79 OFFCURVE",
"180 106 CURVE SMOOTH",
"179 755 LINE"
);
}
);
width = 272;
}
);
leftKerningGroup = h;
rightKerningGroup = l;
unicode = 006C;
},
{
color = 4;
glyphname = lslash;
layers = (
{
components = (
{
name = l;
transform = "{1, 0, 0, 1, 20, 0}";
}
);
layerId = "C9B29665-C437-4A1D-A258-6E2E4B235112";
name = Light;
paths = (
{
closed = 1;
nodes = (
"26 285 LINE",
"26 226 LINE",
"276 408 LINE",
"276 465 LINE"
);
}
);
width = 293;
}
);
leftKerningGroup = h;
rightKerningGroup = l;
unicode = 0142;
},
{
color = 4;
glyphname = m;
layers = (
{
layerId = "C9B29665-C437-4A1D-A258-6E2E4B235112";
name = Light;
paths = (
{
closed = 1;
nodes = (
"580 516 OFFCURVE",
"516 486 OFFCURVE",
"471 449 CURVE",
"446 490 OFFCURVE",
"401 516 OFFCURVE",
"334 516 CURVE SMOOTH",
"282 516 OFFCURVE",
"227 491 OFFCURVE",
"187 457 CURVE",
"186 480 OFFCURVE",
"185 497 OFFCURVE",
"183 510 CURVE",
"154 510 LINE",
"139 496 OFFCURVE",
"124 483 OFFCURVE",
"36 483 CURVE",
"36 441 LINE",
"107 445 LINE",
"103 422 OFFCURVE",
"103 401 OFFCURVE",
"103 380 CURVE SMOOTH",
"103 152 LINE SMOOTH",
"103 80 OFFCURVE",
"105 30 OFFCURVE",
"44 30 CURVE",
"44 0 LINE",
"248 0 LINE",
"248 41 LINE",
"185 38 LINE",
"189 61 OFFCURVE",
"189 79 OFFCURVE",
"189 106 CURVE SMOOTH",
"189 363 LINE SMOOTH",
"189 383 OFFCURVE",
"188 401 OFFCURVE",
"188 417 CURVE",
"216 445 OFFCURVE",
"258 465 OFFCURVE",
"300 465 CURVE SMOOTH",
"379 466 OFFCURVE",
"411 406 OFFCURVE",
"410 292 CURVE SMOOTH",
"409 152 LINE SMOOTH",
"408 80 OFFCURVE",
"411 30 OFFCURVE",
"350 30 CURVE",
"350 0 LINE",
"554 0 LINE",
"554 41 LINE",
"491 38 LINE",
"495 61 OFFCURVE",
"495 79 OFFCURVE",
"495 106 CURVE SMOOTH",
"497 341 LINE SMOOTH",
"497 367 OFFCURVE",
"494 392 OFFCURVE",
"487 414 CURVE",
"517 442 OFFCURVE",
"561 463 OFFCURVE",
"603 463 CURVE SMOOTH",
"682 464 OFFCURVE",
"717 406 OFFCURVE",
"717 292 CURVE SMOOTH",
"717 152 LINE SMOOTH",
"717 80 OFFCURVE",
"719 30 OFFCURVE",
"658 30 CURVE",
"658 0 LINE",
"862 0 LINE",
"862 41 LINE",
"799 38 LINE",
"803 61 OFFCURVE",
"803 79 OFFCURVE",
"803 106 CURVE SMOOTH",
"804 292 LINE SMOOTH",
"807 450 OFFCURVE",
"753 516 OFFCURVE",
"637 516 CURVE SMOOTH"
);
}
);
width = 894;
}
);
leftKerningGroup = n;
rightKerningGroup = n;
unicode = 006D;
},
{
color = 4;
glyphname = n;
layers = (
{
anchors = (
{
name = bottom;
position = "{304, 0}";
},
{
name = top;
position = "{319, 500}";
}
);
layerId = "C9B29665-C437-4A1D-A258-6E2E4B235112";
name = Light;
paths = (
{
closed = 1;
nodes = (
"293 516 OFFCURVE",
"231 487 OFFCURVE",
"188 449 CURVE",
"187 477 OFFCURVE",
"186 495 OFFCURVE",
"184 510 CURVE",
"155 510 LINE",
"140 496 OFFCURVE",
"125 483 OFFCURVE",
"37 483 CURVE",
"37 441 LINE",
"108 445 LINE",
"104 422 OFFCURVE",
"104 401 OFFCURVE",
"104 380 CURVE SMOOTH",
"103 152 LINE SMOOTH",
"102 80 OFFCURVE",
"105 30 OFFCURVE",
"44 30 CURVE",
"44 0 LINE",
"248 0 LINE",
"248 41 LINE",
"185 38 LINE",
"189 61 OFFCURVE",
"189 79 OFFCURVE",
"189 106 CURVE SMOOTH",
"190 361 LINE SMOOTH",
"190 375 OFFCURVE",
"190 389 OFFCURVE",
"189 400 CURVE",
"219 437 OFFCURVE",
"269 464 OFFCURVE",
"317 465 CURVE SMOOTH",
"396 466 OFFCURVE",
"431 406 OFFCURVE",
"432 292 CURVE SMOOTH",
"432 152 LINE SMOOTH",
"432 80 OFFCURVE",
"434 30 OFFCURVE",
"373 30 CURVE",
"373 0 LINE",
"577 0 LINE",
"577 41 LINE",
"514 38 LINE",
"518 61 OFFCURVE",
"518 79 OFFCURVE",
"518 106 CURVE SMOOTH",
"518 292 LINE SMOOTH",
"518 445 OFFCURVE",
"467 516 OFFCURVE",
"351 516 CURVE SMOOTH"
);
}
);
width = 607;
}
);
leftKerningGroup = n;
rightKerningGroup = n;
unicode = 006E;
},
{
color = 4;
glyphname = o;
lastChange = "2016-08-19 17:38:40 +0000";
layers = (
{
layerId = "C9B29665-C437-4A1D-A258-6E2E4B235112";
name = Light;
paths = (
{
closed = 1;
nodes = (
"150 516 OFFCURVE",
"41 396 OFFCURVE",
"41 238 CURVE SMOOTH",
"41 90 OFFCURVE",
"152 -16 OFFCURVE",
"292 -16 CURVE SMOOTH",
"434 -16 OFFCURVE",
"544 107 OFFCURVE",
"544 262 CURVE SMOOTH",
"544 407 OFFCURVE",
"432 516 OFFCURVE",
"292 516 CURVE SMOOTH"
);
},
{
closed = 1;
nodes = (
"399 477 OFFCURVE",
"441 353 OFFCURVE",
"441 233 CURVE SMOOTH",
"441 127 OFFCURVE",
"405 24 OFFCURVE",
"300 24 CURVE SMOOTH",
"194 24 OFFCURVE",
"144 143 OFFCURVE",
"144 267 CURVE SMOOTH",
"144 376 OFFCURVE",
"187 477 OFFCURVE",
"292 477 CURVE SMOOTH"
);
}
);
width = 585;
}
);
leftKerningGroup = o;
rightKerningGroup = o;
unicode = 006F;
},
{
color = 4;
glyphname = oslash;
layers = (
{
components = (
{
name = o;
transform = "{1, 0, 0, 1, 0, 0}";
}
);
layerId = "C9B29665-C437-4A1D-A258-6E2E4B235112";
name = Light;
paths = (
{
closed = 1;
nodes = (
"80 -48 LINE",
"117 -75 LINE",
"513 534 LINE",
"466 565 LINE"
);
}
);
width = 585;
}
);
leftKerningGroup = o;
rightKerningGroup = o;
unicode = 00F8;
},
{
color = 4;
glyphname = oe;
lastChange = "2016-08-19 17:39:43 +0000";
layers = (
{
layerId = "C9B29665-C437-4A1D-A258-6E2E4B235112";
name = Light;
paths = (
{
closed = 1;
nodes = (
"563 516 OFFCURVE",
"498 470 OFFCURVE",
"460 410 CURVE",
"459 410 LINE",
"417 478 OFFCURVE",
"357 516 OFFCURVE",
"277 516 CURVE SMOOTH",
"135 516 OFFCURVE",
"41 396 OFFCURVE",
"41 238 CURVE SMOOTH",
"41 90 OFFCURVE",
"137 -16 OFFCURVE",
"277 -16 CURVE SMOOTH",
"353 -16 OFFCURVE",
"413 24 OFFCURVE",
"452 86 CURVE",
"453 86 LINE",
"490 19 OFFCURVE",
"560 -16 OFFCURVE",
"638 -16 CURVE SMOOTH",
"706 -16 OFFCURVE",
"789 15 OFFCURVE",
"844 98 CURVE",
"819 118 LINE",
"786 71 OFFCURVE",
"724 35 OFFCURVE",
"662 35 CURVE SMOOTH",
"549 35 OFFCURVE",
"507 135 OFFCURVE",
"507 288 CURVE",
"833 294 LINE",
"833 443 OFFCURVE",
"754 516 OFFCURVE",
"643 516 CURVE SMOOTH"
);
},
{
closed = 1;
nodes = (
"371 481 OFFCURVE",
"409 373 OFFCURVE",
"414 248 CURVE",
"414 143 OFFCURVE",
"394 20 OFFCURVE",
"284 20 CURVE SMOOTH",
"182 20 OFFCURVE",
"145 143 OFFCURVE",
"145 267 CURVE SMOOTH",
"145 376 OFFCURVE",
"178 481 OFFCURVE",
"278 481 CURVE SMOOTH"
);
},
{
closed = 1;
nodes = (
"714 479 OFFCURVE",
"737 403 OFFCURVE",
"739 327 CURVE",
"510 327 LINE",
"524 423 OFFCURVE",
"566 482 OFFCURVE",
"638 480 CURVE SMOOTH"
);
}
);
width = 883;
}
);
leftKerningGroup = o;
leftMetricsKey = o;
rightKerningGroup = e;
rightMetricsKey = e;
unicode = 0153;
},
{
color = 4;
glyphname = p;
lastChange = "2016-08-19 17:40:03 +0000";
layers = (
{
layerId = "C9B29665-C437-4A1D-A258-6E2E4B235112";
name = Light;
paths = (
{
closed = 1;
nodes = (
"279 516 OFFCURVE",
"220 492 OFFCURVE",
"180 456 CURVE",
"179 479 OFFCURVE",
"177 497 OFFCURVE",
"176 510 CURVE",
"146 510 LINE",
"132 496 OFFCURVE",
"117 483 OFFCURVE",
"29 483 CURVE",
"29 441 LINE",
"100 445 LINE",
"96 422 OFFCURVE",
"96 401 OFFCURVE",
"96 380 CURVE SMOOTH",
"94 -103 LINE SMOOTH",
"93 -175 OFFCURVE",
"96 -225 OFFCURVE",
"35 -225 CURVE",
"35 -255 LINE",
"239 -255 LINE",
"239 -214 LINE",
"176 -217 LINE",
"180 -194 OFFCURVE",
"180 -176 OFFCURVE",
"180 -149 CURVE SMOOTH",
"180 17 LINE",
"214 -5 OFFCURVE",
"253 -16 OFFCURVE",
"300 -16 CURVE SMOOTH",
"435 -16 OFFCURVE",
"555 97 OFFCURVE",
"555 268 CURVE SMOOTH",
"555 422 OFFCURVE",
"451 516 OFFCURVE",
"335 516 CURVE SMOOTH"
);
},
{
closed = 1;
nodes = (
"408 467 OFFCURVE",
"452 360 OFFCURVE",
"452 252 CURVE SMOOTH",
"452 120 OFFCURVE",
"393 19 OFFCURVE",
"298 19 CURVE SMOOTH",
"254 19 OFFCURVE",
"214 33 OFFCURVE",
"181 58 CURVE",
"182 375 OFFCURVE",
"182 396 OFFCURVE",
"181 411 CURVE",
"209 441 OFFCURVE",
"253 467 OFFCURVE",
"299 467 CURVE SMOOTH"
);
}
);
width = 597;
}
);
rightKerningGroup = o;
unicode = 0070;
},
{
color = 4;
glyphname = thorn;
lastChange = "2016-08-19 17:40:50 +0000";
layers = (
{
layerId = "C9B29665-C437-4A1D-A258-6E2E4B235112";
name = Light;
paths = (
{
closed = 1;
nodes = (
"133 755 LINE",
"118 741 OFFCURVE",
"97 728 OFFCURVE",
"9 728 CURVE",
"9 686 LINE",
"80 690 LINE",
"76 667 OFFCURVE",
"76 646 OFFCURVE",
"76 625 CURVE SMOOTH",
"74 -103 LINE SMOOTH",
"73 -175 OFFCURVE",
"76 -225 OFFCURVE",
"15 -225 CURVE",
"15 -255 LINE",
"220 -255 LINE",
"220 -214 LINE",
"157 -217 LINE",
"161 -194 OFFCURVE",
"161 -176 OFFCURVE",
"161 -149 CURVE SMOOTH",
"161 15 LINE",
"194 -6 OFFCURVE",
"233 -16 OFFCURVE",
"280 -16 CURVE SMOOTH",
"419 -16 OFFCURVE",
"534 94 OFFCURVE",
"534 264 CURVE SMOOTH",
"534 419 OFFCURVE",
"433 516 OFFCURVE",
"312 516 CURVE SMOOTH",
"256 516 OFFCURVE",
"202 495 OFFCURVE",
"161 462 CURVE",
"162 755 LINE"
);
},
{
closed = 1;
nodes = (
"387 468 OFFCURVE",
"430 357 OFFCURVE",
"430 249 CURVE SMOOTH",
"430 117 OFFCURVE",
"373 19 OFFCURVE",
"278 19 CURVE SMOOTH",
"234 19 OFFCURVE",
"194 32 OFFCURVE",
"161 57 CURVE",
"161 417 LINE",
"190 447 OFFCURVE",
"232 468 OFFCURVE",
"278 468 CURVE SMOOTH"
);
}
);
width = 577;
}
);
leftKerningGroup = b;
rightKerningGroup = o;
unicode = 00FE;
},
{
color = 4;
glyphname = q;
lastChange = "2016-08-19 17:41:10 +0000";
layers = (
{
layerId = "C9B29665-C437-4A1D-A258-6E2E4B235112";
name = Light;
paths = (
{
closed = 1;
nodes = (
"156 516 OFFCURVE",
"42 406 OFFCURVE",
"42 239 CURVE SMOOTH",
"42 84 OFFCURVE",
"141 -16 OFFCURVE",
"266 -16 CURVE SMOOTH",
"329 -16 OFFCURVE",
"380 7 OFFCURVE",
"415 47 CURVE",
"415 -103 LINE SMOOTH",
"415 -175 OFFCURVE",
"417 -225 OFFCURVE",
"356 -225 CURVE",
"356 -255 LINE",
"561 -255 LINE",
"561 -214 LINE",
"498 -217 LINE",
"502 -194 OFFCURVE",
"502 -176 OFFCURVE",
"502 -149 CURVE SMOOTH",
"501 510 LINE",
"473 510 LINE",
"437 470 OFFCURVE",
"379 516 OFFCURVE",
"298 516 CURVE SMOOTH"
);
},
{
closed = 1;
nodes = (
"386 479 OFFCURVE",
"415 439 OFFCURVE",
"415 359 CURVE SMOOTH",
"415 97 LINE",
"388 59 OFFCURVE",
"345 33 OFFCURVE",
"301 33 CURVE SMOOTH",
"202 33 OFFCURVE",
"146 135 OFFCURVE",
"146 263 CURVE SMOOTH",
"146 392 OFFCURVE",
"203 479 OFFCURVE",
"300 479 CURVE SMOOTH"
);
}
);
width = 576;
}
);
leftKerningGroup = d;
unicode = 0071;
},
{
color = 4;
glyphname = r;
layers = (
{
anchors = (
{
name = bottom;
position = "{217, 0}";
},
{
name = top;
position = "{255, 500}";
}
);
layerId = "C9B29665-C437-4A1D-A258-6E2E4B235112";
name = Light;
paths = (
{
closed = 1;
nodes = (
"284 516 OFFCURVE",
"218 460 OFFCURVE",
"188 411 CURVE",
"187 459 OFFCURVE",
"185 489 OFFCURVE",
"183 510 CURVE",
"154 510 LINE",
"139 496 OFFCURVE",
"124 483 OFFCURVE",
"67 483 CURVE SMOOTH",
"36 483 LINE",
"36 442 LINE",
"107 445 LINE",
"103 422 OFFCURVE",
"103 401 OFFCURVE",
"103 380 CURVE SMOOTH",
"103 152 LINE SMOOTH",
"103 80 OFFCURVE",
"105 30 OFFCURVE",
"44 30 CURVE",
"44 0 LINE",
"249 0 LINE",
"249 41 LINE",
"186 38 LINE",
"190 61 OFFCURVE",
"190 79 OFFCURVE",
"190 106 CURVE SMOOTH",
"189 352 LINE",
"224 417 OFFCURVE",
"280 463 OFFCURVE",
"331 461 CURVE",
"327 432 OFFCURVE",
"347 406 OFFCURVE",
"376 405 CURVE SMOOTH",
"412 404 OFFCURVE",
"426 436 OFFCURVE",
"426 453 CURVE SMOOTH",
"426 497 OFFCURVE",
"393 516 OFFCURVE",
"356 516 CURVE SMOOTH"
);
}
);
width = 433;
}
);
leftKerningGroup = n;
rightKerningGroup = r;
unicode = 0072;
},
{
color = 4;
glyphname = s;
layers = (
{
anchors = (
{
name = bottom;
position = "{278, 0}";
},
{
name = top;
position = "{229, 500}";
}
);
layerId = "C9B29665-C437-4A1D-A258-6E2E4B235112";
name = Light;
paths = (
{
closed = 1;
nodes = (
"88 516 OFFCURVE",
"52 427 OFFCURVE",
"52 371 CURVE SMOOTH",
"52 191 OFFCURVE",
"341 230 OFFCURVE",
"341 102 CURVE SMOOTH",
"341 48 OFFCURVE",
"282 23 OFFCURVE",
"231 23 CURVE SMOOTH",
"154 23 OFFCURVE",
"87 82 OFFCURVE",
"83 165 CURVE",
"52 165 LINE",
"58 -7 LINE",
"100 -7 LINE",
"96 28 LINE",
"129 5 OFFCURVE",
"182 -16 OFFCURVE",
"249 -16 CURVE SMOOTH",
"334 -16 OFFCURVE",
"422 30 OFFCURVE",
"422 131 CURVE SMOOTH",
"422 302 OFFCURVE",
"130 273 OFFCURVE",
"130 403 CURVE SMOOTH",
"130 443 OFFCURVE",
"166 479 OFFCURVE",
"228 479 CURVE SMOOTH",
"313 479 OFFCURVE",
"351 405 OFFCURVE",
"355 336 CURVE",
"387 336 LINE",
"387 511 LINE",
"345 511 LINE",
"347 473 LINE",
"306 506 OFFCURVE",
"259 516 OFFCURVE",
"223 516 CURVE SMOOTH"
);
}
);
width = 463;
}
);
leftKerningGroup = s;
rightKerningGroup = s;
unicode = 0073;
},
{
color = 4;
glyphname = germandbls;
layers = (
{
layerId = "C9B29665-C437-4A1D-A258-6E2E4B235112";
name = Light;
paths = (
{
closed = 1;
nodes = (
"188 760 OFFCURVE",
"107 649 OFFCURVE",
"107 501 CURVE SMOOTH",
"107 500 LINE",
"25 500 LINE",
"25 455 LINE",
"107 457 LINE",
"108 152 LINE SMOOTH",
"108 80 OFFCURVE",
"110 30 OFFCURVE",
"49 30 CURVE",
"49 0 LINE",
"253 0 LINE",
"253 41 LINE",
"190 38 LINE",
"194 61 OFFCURVE",
"194 79 OFFCURVE",
"194 106 CURVE SMOOTH",
"193 458 LINE SMOOTH",
"193 534 OFFCURVE",
"198 594 OFFCURVE",
"220 639 CURVE SMOOTH",
"244 687 OFFCURVE",
"284 716 OFFCURVE",
"344 717 CURVE SMOOTH",
"396 718 OFFCURVE",
"496 709 OFFCURVE",
"493 516 CURVE",
"375 519 OFFCURVE",
"311 461 OFFCURVE",
"311 371 CURVE SMOOTH",
"311 207 OFFCURVE",
"569 222 OFFCURVE",
"569 104 CURVE SMOOTH",
"569 51 OFFCURVE",
"526 23 OFFCURVE",
"481 23 CURVE SMOOTH",
"404 23 OFFCURVE",
"359 81 OFFCURVE",
"354 164 CURVE",
"323 164 LINE",
"329 -8 LINE",
"371 -8 LINE",
"368 16 LINE",
"403 -5 OFFCURVE",
"454 -16 OFFCURVE",
"483 -16 CURVE SMOOTH",
"584 -16 OFFCURVE",
"653 31 OFFCURVE",
"653 132 CURVE SMOOTH",
"653 285 OFFCURVE",
"390 283 OFFCURVE",
"390 403 CURVE SMOOTH",
"390 493 OFFCURVE",
"516 482 OFFCURVE",
"576 478 CURVE",
"578 490 OFFCURVE",
"579 500 OFFCURVE",
"579 507 CURVE SMOOTH",
"588 726 OFFCURVE",
"423 760 OFFCURVE",
"348 760 CURVE SMOOTH"
);
}
);
width = 681;
}
);
leftKerningGroup = f;
unicode = 00DF;
},
{
color = 4;
glyphname = t;
lastChange = "2016-08-19 17:23:55 +0000";
layers = (
{
anchors = (
{
name = bottom;
position = "{253, 0}";
},
{
name = center;
position = "{194, 250}";
}
);
layerId = "C9B29665-C437-4A1D-A258-6E2E4B235112";
name = Light;
paths = (
{
closed = 1;
nodes = (
"150 640 LINE",
"133 583 OFFCURVE",
"92 501 OFFCURVE",
"21 500 CURVE",
"21 457 LINE",
"98 458 LINE",
"96 168 LINE SMOOTH",
"95 8 OFFCURVE",
"172 -16 OFFCURVE",
"232 -16 CURVE SMOOTH",
"266 -16 OFFCURVE",
"324 -9 OFFCURVE",
"383 79 CURVE",
"356 101 LINE",
"330 63 OFFCURVE",
"294 41 OFFCURVE",
"260 41 CURVE SMOOTH",
"202 41 OFFCURVE",
"182 90 OFFCURVE",
"182 181 CURVE SMOOTH",
"182 182 OFFCURVE",
"183 199 OFFCURVE",
"184 459 CURVE",
"354 461 LINE",
"354 500 LINE",
"184 500 LINE",
"184 541 OFFCURVE",
"184 587 OFFCURVE",
"184 640 CURVE"
);
}
);
width = 387;
}
);
leftKerningGroup = t;
rightKerningGroup = t;
unicode = 0074;
},
{
color = 1;
glyphname = u;
layers = (
{
anchors = (
{
name = ogonek;
position = "{567, 0}";
},
{
name = top;
position = "{286, 500}";
}
);
background = {
paths = (
{
closed = 1;
nodes = (
"472 510 LINE",
"457 496 OFFCURVE",
"436 483 OFFCURVE",
"379 483 CURVE SMOOTH",
"348 483 LINE",
"348 442 LINE",
"420 445 LINE",
"416 422 OFFCURVE",
"415 401 OFFCURVE",
"415 369 CURVE SMOOTH",
"415 112 LINE",
"387 71 OFFCURVE",
"337 36 OFFCURVE",
"287 35 CURVE SMOOTH",
"208 34 OFFCURVE",
"179 90 OFFCURVE",
"179 205 CURVE SMOOTH",
"179 510 LINE",
"150 510 LINE",
"135 496 OFFCURVE",
"114 483 OFFCURVE",
"57 483 CURVE SMOOTH",
"26 483 LINE",
"26 442 LINE",
"95 445 LINE",
"91 422 OFFCURVE",
"91 401 OFFCURVE",
"91 380 CURVE SMOOTH",
"91 202 LINE SMOOTH",
"91 37 OFFCURVE",
"146 -16 OFFCURVE",
"255 -16 CURVE SMOOTH",
"313 -16 OFFCURVE",
"377 19 OFFCURVE",
"418 60 CURVE",
"419 42 OFFCURVE",
"421 23 OFFCURVE",
"425 0 CURVE",
"568 0 LINE",
"568 42 LINE",
"496 38 LINE",
"499 65 OFFCURVE",
"500 111 OFFCURVE",
"500 132 CURVE SMOOTH",
"501 510 LINE"
);
}
);
};
layerId = "C9B29665-C437-4A1D-A258-6E2E4B235112";
name = Light;
paths = (
{
closed = 1;
nodes = (
"473 510 LINE",
"458 496 OFFCURVE",
"436 483 OFFCURVE",
"379 483 CURVE SMOOTH",
"348 483 LINE",
"348 442 LINE",
"420 445 LINE",
"416 422 OFFCURVE",
"415 401 OFFCURVE",
"415 369 CURVE SMOOTH",
"415 112 LINE",
"387 71 OFFCURVE",
"337 36 OFFCURVE",
"287 35 CURVE SMOOTH",
"208 34 OFFCURVE",
"177 90 OFFCURVE",
"177 205 CURVE SMOOTH",
"177 510 LINE",
"148 510 LINE",
"133 496 OFFCURVE",
"114 483 OFFCURVE",
"57 483 CURVE SMOOTH",
"26 483 LINE",
"26 442 LINE",
"95 445 LINE",
"91 422 OFFCURVE",
"91 401 OFFCURVE",
"91 380 CURVE SMOOTH",
"91 202 LINE SMOOTH",
"91 37 OFFCURVE",
"146 -16 OFFCURVE",
"255 -16 CURVE SMOOTH",
"313 -16 OFFCURVE",
"377 19 OFFCURVE",
"418 60 CURVE",
"419 42 OFFCURVE",
"421 23 OFFCURVE",
"425 0 CURVE",
"568 0 LINE",
"568 42 LINE",
"497 38 LINE",
"500 65 OFFCURVE",
"501 111 OFFCURVE",
"501 132 CURVE SMOOTH",
"502 510 LINE"
);
}
);
width = 597;
}
);
leftKerningGroup = u;
rightKerningGroup = u;
unicode = 0075;
},
{
color = 4;
glyphname = v;
layers = (
{
layerId = "C9B29665-C437-4A1D-A258-6E2E4B235112";
name = Light;
paths = (
{
closed = 1;
nodes = (
"344 500 LINE",
"344 459 LINE",
"408 462 LINE",
"402 450 OFFCURVE",
"389 425 OFFCURVE",
"378 393 CURVE SMOOTH",
"298 174 LINE SMOOTH",
"291 152 OFFCURVE",
"282 129 OFFCURVE",
"275 109 CURVE",
"274 109 LINE",
"264 135 OFFCURVE",
"254 160 OFFCURVE",
"244 183 CURVE SMOOTH",
"167 359 LINE SMOOTH",
"142 417 OFFCURVE",
"129 470 OFFCURVE",
"190 470 CURVE",
"190 500 LINE",
"6 500 LINE",
"6 459 LINE",
"49 462 LINE",
"50 439 OFFCURVE",
"58 399 OFFCURVE",
"91 323 CURVE SMOOTH",
"234 -3 LINE",
"274 -3 LINE",
"405 335 LINE SMOOTH",
"440 425 OFFCURVE",
"458 470 OFFCURVE",
"502 470 CURVE",
"502 500 LINE"
);
}
);
width = 505;
}
);
unicode = 0076;
},
{
color = 4;
glyphname = w;
layers = (
{
anchors = (
{
name = top;
position = "{400, 500}";
}
);
layerId = "C9B29665-C437-4A1D-A258-6E2E4B235112";
name = Light;
paths = (
{
closed = 1;
nodes = (
"626 500 LINE",
"626 459 LINE",
"684 462 LINE",
"672 447 OFFCURVE",
"663 422 OFFCURVE",
"654 395 CURVE SMOOTH",
"558 118 LINE",
"425 500 LINE",
"384 500 LINE",
"356 413 OFFCURVE",
"303 258 OFFCURVE",
"258 125 CURVE",
"180 362 LINE SMOOTH",
"158 426 OFFCURVE",
"158 468 OFFCURVE",
"218 470 CURVE",
"218 500 LINE",
"6 500 LINE",
"6 459 LINE",
"59 462 LINE",
"63 446 OFFCURVE",
"70 423 OFFCURVE",
"85 381 CURVE SMOOTH",
"216 -3 LINE",
"254 -3 LINE",
"384 375 LINE",
"515 -3 LINE",
"555 -3 LINE",
"699 391 LINE SMOOTH",
"716 438 OFFCURVE",
"731 466 OFFCURVE",
"800 470 CURVE",
"800 500 LINE"
);
}
);
width = 801;
}
);
unicode = 0077;
},
{
color = 4;
glyphname = x;
layers = (
{
layerId = "C9B29665-C437-4A1D-A258-6E2E4B235112";
name = Light;
paths = (
{
closed = 1;
nodes = (
"334 500 LINE",
"334 459 LINE",
"403 463 LINE",
"389 449 OFFCURVE",
"378 434 OFFCURVE",
"358 410 CURVE SMOOTH",
"267 300 LINE",
"209 379 LINE SMOOTH",
"159 447 OFFCURVE",
"168 468 OFFCURVE",
"228 470 CURVE",
"228 500 LINE",
"22 500 LINE",
"22 459 LINE",
"69 461 LINE",
"76 443 OFFCURVE",
"88 416 OFFCURVE",
"120 374 CURVE SMOOTH",
"139 349 OFFCURVE",
"190 279 OFFCURVE",
"219 241 CURVE",
"119 111 LINE SMOOTH",
"82 63 OFFCURVE",
"65 40 OFFCURVE",
"24 30 CURVE",
"24 0 LINE",
"192 0 LINE",
"192 41 LINE",
"115 38 LINE",
"135 59 OFFCURVE",
"141 67 OFFCURVE",
"161 94 CURVE SMOOTH",
"245 209 LINE",
"350 79 LINE SMOOTH",
"378 44 OFFCURVE",
"358 30 OFFCURVE",
"326 30 CURVE",
"326 0 LINE",
"519 0 LINE",
"519 41 LINE",
"474 38 LINE",
"459 63 OFFCURVE",
"445 80 OFFCURVE",
"430 100 CURVE SMOOTH",
"292 271 LINE",
"369 363 LINE SMOOTH",
"423 428 OFFCURVE",
"443 454 OFFCURVE",
"498 470 CURVE",
"498 500 LINE"
);
}
);
width = 530;
}
);
unicode = 0078;
},
{
color = 4;
glyphname = y;
layers = (
{
anchors = (
{
name = top;
position = "{287, 500}";
}
);
layerId = "C9B29665-C437-4A1D-A258-6E2E4B235112";
name = Light;
paths = (
{
closed = 1;
nodes = (
"367 500 LINE",
"367 459 LINE",
"436 463 LINE",
"422 452 OFFCURVE",
"402 396 OFFCURVE",
"387 352 CURVE SMOOTH",
"359 269 OFFCURVE",
"331 186 OFFCURVE",
"301 101 CURVE",
"184 352 LINE SMOOTH",
"148 429 OFFCURVE",
"151 466 OFFCURVE",
"207 470 CURVE SMOOTH",
"211 470 LINE",
"211 500 LINE",
"4 500 LINE",
"4 459 LINE",
"52 461 LINE",
"57 439 OFFCURVE",
"70 398 OFFCURVE",
"105 323 CURVE SMOOTH",
"261 -11 LINE",
"232 -92 OFFCURVE",
"208 -153 OFFCURVE",
"191 -182 CURVE SMOOTH",
"172 -214 OFFCURVE",
"146 -227 OFFCURVE",
"129 -219 CURVE",
"130 -214 OFFCURVE",
"130 -209 OFFCURVE",
"130 -205 CURVE SMOOTH",
"130 -189 OFFCURVE",
"121 -161 OFFCURVE",
"89 -162 CURVE SMOOTH",
"63 -162 OFFCURVE",
"46 -186 OFFCURVE",
"46 -210 CURVE SMOOTH",
"46 -251 OFFCURVE",
"80 -271 OFFCURVE",
"121 -271 CURVE SMOOTH",
"210 -271 OFFCURVE",
"246 -177 OFFCURVE",
"306 -9 CURVE SMOOTH",
"431 340 LINE SMOOTH",
"456 408 OFFCURVE",
"474 451 OFFCURVE",
"524 470 CURVE",
"524 500 LINE"
);
}
);
width = 528;
}
);
leftKerningGroup = y;
rightKerningGroup = y;
unicode = 0079;
},
{
color = 4;
glyphname = z;
layers = (
{
anchors = (
{
name = top;
position = "{266, 500}";
}
);
layerId = "C9B29665-C437-4A1D-A258-6E2E4B235112";
name = Light;
paths = (
{
closed = 1;
nodes = (
"67 500 LINE",
"55 321 LINE",
"86 321 LINE",
"97 398 OFFCURVE",
"113 461 OFFCURVE",
"188 462 CURVE SMOOTH",
"376 465 LINE",
"363 457 OFFCURVE",
"340 427 OFFCURVE",
"319 400 CURVE SMOOTH",
"40 41 LINE",
"40 0 LINE",
"455 0 LINE",
"467 182 LINE",
"438 182 LINE",
"426 102 OFFCURVE",
"401 37 OFFCURVE",
"318 38 CURVE SMOOTH",
"125 41 LINE",
"150 62 OFFCURVE",
"160 75 OFFCURVE",
"177 97 CURVE SMOOTH",
"459 468 LINE",
"459 500 LINE"
);
}
);
width = 511;
}
);
leftKerningGroup = z;
rightKerningGroup = z;
unicode = 007A;
},
{
color = 4;
glyphname = fi;
lastChange = "2016-08-19 17:41:51 +0000";
layers = (
{
layerId = "C9B29665-C437-4A1D-A258-6E2E4B235112";
name = Light;
paths = (
{
closed = 1;
nodes = (
"179 760 OFFCURVE",
"107 657 OFFCURVE",
"107 502 CURVE SMOOTH",
"107 500 LINE",
"71 500 OFFCURVE",
"42 500 OFFCURVE",
"25 500 CURVE",
"25 455 LINE",
"107 457 LINE",
"109 152 LINE SMOOTH",
"109 80 OFFCURVE",
"111 30 OFFCURVE",
"50 30 CURVE",
"50 0 LINE",
"254 0 LINE",
"254 41 LINE",
"191 38 LINE",
"195 61 OFFCURVE",
"195 78 OFFCURVE",
"195 105 CURVE SMOOTH",
"194 459 LINE",
"447 465 LINE",
"444 438 OFFCURVE",
"443 421 OFFCURVE",
"443 400 CURVE SMOOTH",
"443 152 LINE SMOOTH",
"443 80 OFFCURVE",
"445 30 OFFCURVE",
"384 30 CURVE",
"384 0 LINE",
"588 0 LINE",
"588 41 LINE",
"525 38 LINE",
"529 61 OFFCURVE",
"529 79 OFFCURVE",
"529 106 CURVE SMOOTH",
"529 510 LINE",
"500 510 LINE",
"495 506 OFFCURVE",
"467 500 OFFCURVE",
"422 500 CURVE SMOOTH",
"194 500 LINE",
"194 537 LINE SMOOTH",
"194 662 OFFCURVE",
"257 722 OFFCURVE",
"348 722 CURVE SMOOTH",
"390 722 OFFCURVE",
"423 711 OFFCURVE",
"446 694 CURVE",
"442 686 OFFCURVE",
"441 676 OFFCURVE",
"441 667 CURVE SMOOTH",
"441 651 OFFCURVE",
"453 624 OFFCURVE",
"486 625 CURVE SMOOTH",
"514 625 OFFCURVE",
"529 646 OFFCURVE",
"529 672 CURVE SMOOTH",
"529 724 OFFCURVE",
"458 760 OFFCURVE",
"368 760 CURVE SMOOTH"
);
}
);
width = 623;
}
);
leftKerningGroup = f;
rightKerningGroup = i;
unicode = FB01;
},
{
color = 4;
glyphname = fl;
lastChange = "2016-08-19 17:42:04 +0000";
layers = (
{
layerId = "C9B29665-C437-4A1D-A258-6E2E4B235112";
name = Light;
paths = (
{
closed = 1;
nodes = (
"182 760 OFFCURVE",
"107 681 OFFCURVE",
"107 531 CURVE SMOOTH",
"107 500 LINE",
"25 500 LINE",
"25 455 LINE",
"107 457 LINE",
"108 152 LINE SMOOTH",
"108 80 OFFCURVE",
"110 30 OFFCURVE",
"49 30 CURVE",
"49 0 LINE",
"254 0 LINE",
"254 41 LINE",
"191 38 LINE",
"195 61 OFFCURVE",
"195 79 OFFCURVE",
"195 106 CURVE SMOOTH",
"194 458 LINE",
"329 461 LINE",
"329 500 LINE",
"194 500 LINE",
"194 576 LINE SMOOTH",
"194 666 OFFCURVE",
"221 718 OFFCURVE",
"312 718 CURVE SMOOTH",
"349 718 OFFCURVE",
"414 708 OFFCURVE",
"457 682 CURVE",
"457 152 LINE SMOOTH",
"457 80 OFFCURVE",
"459 30 OFFCURVE",
"398 30 CURVE",
"398 0 LINE",
"603 0 LINE",
"603 41 LINE",
"540 38 LINE",
"544 61 OFFCURVE",
"543 79 OFFCURVE",
"543 106 CURVE SMOOTH",
"543 755 LINE",
"514 755 LINE",
"445 717 OFFCURVE",
"403 760 OFFCURVE",
"292 760 CURVE SMOOTH"
);
}
);
width = 637;
}
);
leftKerningGroup = f;
rightKerningGroup = l;
unicode = FB02;
},
{
color = 4;
glyphname = ordfeminine;
layers = (
{
layerId = "C9B29665-C437-4A1D-A258-6E2E4B235112";
name = Light;
paths = (
{
closed = 1;
nodes = (
"125 716 OFFCURVE",
"70 670 OFFCURVE",
"70 624 CURVE SMOOTH",
"70 605 OFFCURVE",
"82 589 OFFCURVE",
"102 589 CURVE SMOOTH",
"126 588 OFFCURVE",
"135 608 OFFCURVE",
"135 620 CURVE SMOOTH",
"135 630 OFFCURVE",
"132 638 OFFCURVE",
"126 645 CURVE",
"135 668 OFFCURVE",
"164 684 OFFCURVE",
"190 683 CURVE SMOOTH",
"246 681 OFFCURVE",
"250 644 OFFCURVE",
"250 604 CURVE SMOOTH",
"250 569 LINE",
"163 570 OFFCURVE",
"54 535 OFFCURVE",
"54 455 CURVE SMOOTH",
"54 412 OFFCURVE",
"87 380 OFFCURVE",
"152 380 CURVE SMOOTH",
"194 380 OFFCURVE",
"226 398 OFFCURVE",
"250 425 CURVE",
"255 404 OFFCURVE",
"269 382 OFFCURVE",
"304 382 CURVE SMOOTH",
"328 382 OFFCURVE",
"357 399 OFFCURVE",
"368 415 CURVE",
"357 434 LINE",
"350 428 OFFCURVE",
"344 425 OFFCURVE",
"339 425 CURVE SMOOTH",
"321 425 OFFCURVE",
"311 441 OFFCURVE",
"311 485 CURVE SMOOTH",
"312 597 LINE SMOOTH",
"313 680 OFFCURVE",
"272 716 OFFCURVE",
"200 716 CURVE SMOOTH"
);
},
{
closed = 1;
nodes = (
"249 506 OFFCURVE",
"248 475 OFFCURVE",
"248 459 CURVE",
"222 434 OFFCURVE",
"191 419 OFFCURVE",
"160 423 CURVE SMOOTH",
"149 425 OFFCURVE",
"127 435 OFFCURVE",
"125 461 CURVE SMOOTH",
"121 514 OFFCURVE",
"188 538 OFFCURVE",
"250 538 CURVE"
);
}
);
width = 409;
}
);
unicode = 00AA;
},
{
color = 4;
glyphname = ordmasculine;
layers = (
{
layerId = "C9B29665-C437-4A1D-A258-6E2E4B235112";
name = Light;
paths = (
{
closed = 1;
nodes = (
"118 716 OFFCURVE",
"48 640 OFFCURVE",
"48 541 CURVE SMOOTH",
"48 447 OFFCURVE",
"118 380 OFFCURVE",
"209 380 CURVE SMOOTH",
"304 380 OFFCURVE",
"373 452 OFFCURVE",
"372 553 CURVE SMOOTH",
"371 649 OFFCURVE",
"304 716 OFFCURVE",
"212 716 CURVE SMOOTH"
);
},
{
closed = 1;
nodes = (
"275 685 OFFCURVE",
"302 612 OFFCURVE",
"302 538 CURVE SMOOTH",
"302 471 OFFCURVE",
"272 417 OFFCURVE",
"217 416 CURVE SMOOTH",
"151 414 OFFCURVE",
"121 481 OFFCURVE",
"121 559 CURVE SMOOTH",
"121 627 OFFCURVE",
"152 680 OFFCURVE",
"208 683 CURVE SMOOTH"
);
}
);
width = 419;
}
);
unicode = 00BA;
},
{
color = 1;
glyphname = "Be-cy";
lastChange = "2016-08-19 17:42:16 +0000";
layers = (
{
layerId = "C9B29665-C437-4A1D-A258-6E2E4B235112";
name = Light;
paths = (
{
closed = 1;
nodes = (
"55 700 LINE",
"55 656 LINE",
"127 660 LINE",
"125 640 OFFCURVE",
"124 615 OFFCURVE",
"124 588 CURVE SMOOTH",
"124 161 LINE SMOOTH",
"124 86 OFFCURVE",
"130 35 OFFCURVE",
"55 33 CURVE",
"55 0 LINE",
"347 0 LINE SMOOTH",
"482 0 OFFCURVE",
"583 75 OFFCURVE",
"583 203 CURVE SMOOTH",
"583 324 OFFCURVE",
"512 406 OFFCURVE",
"292 399 CURVE SMOOTH",
"211 397 LINE",
"211 540 LINE SMOOTH",
"211 609 OFFCURVE",
"206 661 OFFCURVE",
"280 663 CURVE SMOOTH",
"353 665 LINE SMOOTH",
"428 667 OFFCURVE",
"487 643 OFFCURVE",
"487 525 CURVE",
"524 525 LINE",
"519 700 LINE"
);
},
{
closed = 1;
nodes = (
"405 362 OFFCURVE",
"484 328 OFFCURVE",
"484 197 CURVE SMOOTH",
"484 91 OFFCURVE",
"417 38 OFFCURVE",
"314 38 CURVE SMOOTH",
"301 38 OFFCURVE",
"239 37 OFFCURVE",
"208 40 CURVE",
"210 57 OFFCURVE",
"211 82 OFFCURVE",
"211 118 CURVE SMOOTH",
"211 359 LINE",
"243 361 OFFCURVE",
"274 362 OFFCURVE",
"314 362 CURVE SMOOTH"
);
}
);
width = 622;
}
);
unicode = 0411;
userData = {
public.markColor = "0.67,0.95,0.38,1";
};
},
{
color = 1;
glyphname = "Ge-cy";
layers = (
{
anchors = (
{
name = top;
position = "{274, 700}";
}
);
background = {
paths = (
{
closed = 1;
nodes = (
"55 700 LINE",
"55 656 LINE",
"127 660 LINE",
"125 640 OFFCURVE",
"124 615 OFFCURVE",
"124 588 CURVE SMOOTH",
"124 156 LINE SMOOTH",
"124 85 OFFCURVE",
"130 36 OFFCURVE",
"55 33 CURVE",
"55 0 LINE",
"310 0 LINE",
"310 44 LINE",
"208 40 LINE",
"210 57 OFFCURVE",
"211 83 OFFCURVE",
"211 119 CURVE SMOOTH",
"211 540 LINE SMOOTH",
"211 609 OFFCURVE",
"206 661 OFFCURVE",
"280 663 CURVE SMOOTH",
"353 665 LINE SMOOTH",
"428 667 OFFCURVE",
"491 643 OFFCURVE",
"491 525 CURVE",
"524 525 LINE",
"519 700 LINE"
);
}
);
};
layerId = "C9B29665-C437-4A1D-A258-6E2E4B235112";
name = Light;
paths = (
{
closed = 1;
nodes = (
"55 700 LINE",
"55 656 LINE",
"127 660 LINE",
"125 640 OFFCURVE",
"124 615 OFFCURVE",
"124 588 CURVE SMOOTH",
"124 156 LINE SMOOTH",
"124 85 OFFCURVE",
"130 36 OFFCURVE",
"55 33 CURVE",
"55 0 LINE",
"310 0 LINE",
"310 44 LINE",
"208 40 LINE",
"210 57 OFFCURVE",
"211 83 OFFCURVE",
"211 119 CURVE SMOOTH",
"211 540 LINE SMOOTH",
"211 609 OFFCURVE",
"206 661 OFFCURVE",
"280 663 CURVE SMOOTH",
"353 665 LINE SMOOTH",
"428 667 OFFCURVE",
"487 643 OFFCURVE",
"487 525 CURVE",
"524 525 LINE",
"519 700 LINE"
);
}
);
width = 548;
}
);
unicode = 0413;
userData = {
public.markColor = "0.67,0.95,0.38,1";
};
},
{
color = 4;
glyphname = "Gheupturn-cy";
layers = (
{
layerId = "C9B29665-C437-4A1D-A258-6E2E4B235112";
name = Light;
paths = (
{
closed = 1;
nodes = (
"519 664 LINE",
"524 839 LINE",
"491 839 LINE",
"491 721 OFFCURVE",
"428 700 OFFCURVE",
"353 700 CURVE SMOOTH",
"325 700 LINE",
"325 664 LINE"
);
},
{
closed = 1;
nodes = (
"325 700 LINE",
"55 700 LINE",
"55 656 LINE",
"127 660 LINE",
"125 640 OFFCURVE",
"124 615 OFFCURVE",
"124 588 CURVE SMOOTH",
"124 156 LINE SMOOTH",
"124 85 OFFCURVE",
"130 36 OFFCURVE",
"55 33 CURVE",
"55 0 LINE",
"310 0 LINE",
"310 44 LINE",
"208 40 LINE",
"210 57 OFFCURVE",
"211 83 OFFCURVE",
"211 119 CURVE SMOOTH",
"211 540 LINE SMOOTH",
"211 609 OFFCURVE",
"206 661 OFFCURVE",
"280 663 CURVE SMOOTH",
"325 664 LINE"
);
}
);
width = 548;
}
);
unicode = 0490;
},
{
color = 4;
glyphname = "De-cy";
layers = (
{
layerId = "C9B29665-C437-4A1D-A258-6E2E4B235112";
name = Light;
paths = (
{
closed = 1;
nodes = (
"134 700 LINE",
"134 656 LINE",
"207 660 LINE",
"489 661 LINE",
"489 156 LINE SMOOTH",
"489 85 OFFCURVE",
"495 40 OFFCURVE",
"420 40 CURVE",
"420 0 LINE",
"645 0 LINE",
"645 40 LINE",
"573 40 LINE",
"575 57 OFFCURVE",
"576 83 OFFCURVE",
"576 119 CURVE SMOOTH",
"576 544 LINE SMOOTH",
"576 615 OFFCURVE",
"570 664 OFFCURVE",
"645 667 CURVE",
"645 700 LINE"
);
},
{
closed = 1;
nodes = (
"27 40 LINE",
"27 -178 LINE",
"68 -178 LINE",
"68 -63 OFFCURVE",
"85 0 OFFCURVE",
"151 0 CURVE SMOOTH",
"535 0 LINE SMOOTH",
"601 0 OFFCURVE",
"618 -63 OFFCURVE",
"618 -178 CURVE",
"660 -178 LINE",
"660 40 LINE"
);
},
{
closed = 1;
nodes = (
"232 700 LINE",
"226 442 OFFCURVE",
"222 212 OFFCURVE",
"149 98 CURVE SMOOTH",
"126 61 OFFCURVE",
"98 40 OFFCURVE",
"65 40 CURVE",
"88 0 LINE",
"124 0 OFFCURVE",
"155 25 OFFCURVE",
"182 67 CURVE SMOOTH",
"259 193 OFFCURVE",
"271 436 OFFCURVE",
"282 700 CURVE"
);
},
{
closed = 1;
nodes = (
"248 661 LINE",
"241 630 LINE",
"278 608 LINE",
"279 640 OFFCURVE",
"298 661 OFFCURVE",
"345 661 CURVE"
);
}
);
width = 691;
}
);
unicode = 0414;
userData = {
public.markColor = "0.67,0.95,0.38,1";
};
},
{
color = 4;
glyphname = "Zhe-cy";
layers = (
{
anchors = (
{
name = bottomright;
position = "{0, 0}";
},
{
name = top;
position = "{480, 700}";
}
);
layerId = "C9B29665-C437-4A1D-A258-6E2E4B235112";
leftMetricsKey = "=|Ka-cy";
name = Light;
paths = (
{
closed = 1;
nodes = (
"733 291 LINE SMOOTH",
"708 331 OFFCURVE",
"688 353 OFFCURVE",
"650 376 CURVE",
"741 532 LINE SMOOTH",
"805 644 OFFCURVE",
"856 660 OFFCURVE",
"940 667 CURVE",
"940 700 LINE",
"725 700 LINE",
"725 659 LINE",
"786 661 LINE",
"758 639 OFFCURVE",
"730 604 OFFCURVE",
"715 577 CURVE SMOOTH",
"600 380 LINE",
"525 380 LINE",
"525 544 LINE SMOOTH",
"525 615 OFFCURVE",
"519 664 OFFCURVE",
"594 667 CURVE",
"594 700 LINE",
"369 700 LINE",
"369 656 LINE",
"441 660 LINE",
"438 640 OFFCURVE",
"438 615 OFFCURVE",
"438 588 CURVE SMOOTH",
"438 380 LINE",
"363 380 LINE",
"248 577 LINE SMOOTH",
"232 604 OFFCURVE",
"204 639 OFFCURVE",
"176 661 CURVE",
"237 659 LINE",
"237 700 LINE",
"22 700 LINE",
"22 667 LINE",
"106 660 OFFCURVE",
"157 644 OFFCURVE",
"222 532 CURVE SMOOTH",
"313 376 LINE",
"275 353 OFFCURVE",
"254 331 OFFCURVE",
"229 291 CURVE SMOOTH",
"143 149 LINE SMOOTH",
"83 52 OFFCURVE",
"48 33 OFFCURVE",
"5 33 CURVE",
"5 0 LINE",
"112 0 LINE SMOOTH",
"132 0 OFFCURVE",
"177 34 OFFCURVE",
"215 98 CURVE SMOOTH",
"313 260 LINE SMOOTH",
"332 291 OFFCURVE",
"348 317 OFFCURVE",
"378 341 CURVE",
"438 340 LINE",
"438 156 LINE SMOOTH",
"438 85 OFFCURVE",
"444 36 OFFCURVE",
"369 33 CURVE",
"369 0 LINE",
"594 0 LINE",
"594 44 LINE",
"521 40 LINE",
"524 57 OFFCURVE",
"525 83 OFFCURVE",
"525 119 CURVE SMOOTH",
"525 340 LINE",
"584 341 LINE",
"615 317 OFFCURVE",
"630 291 OFFCURVE",
"649 260 CURVE SMOOTH",
"749 98 LINE SMOOTH",
"789 35 OFFCURVE",
"835 0 OFFCURVE",
"855 0 CURVE SMOOTH",
"958 0 LINE",
"958 33 LINE",
"915 33 OFFCURVE",
"880 52 OFFCURVE",
"820 149 CURVE SMOOTH"
);
}
);
width = 962;
}
);
leftMetricsKey = "=|Ka-cy";
rightMetricsKey = "Ka-cy";
unicode = 0416;
userData = {
public.markColor = "0.67,0.95,0.38,1";
};
},
{
color = 1;
glyphname = "Ze-cy";
lastChange = "2016-08-20 11:49:19 +0000";
layers = (
{
anchors = (
{
name = bottom;
position = "{314, 0}";
},
{
name = top;
position = "{306, 700}";
}
);
background = {
paths = (
{
closed = 1;
nodes = (
"279 343 LINE",
"412 342 OFFCURVE",
"475 301 OFFCURVE",
"475 202 CURVE SMOOTH",
"475 89 OFFCURVE",
"390 36 OFFCURVE",
"291 36 CURVE SMOOTH",
"205 36 OFFCURVE",
"110 76 OFFCURVE",
"56 151 CURVE",
"30 130 LINE",
"101 31 OFFCURVE",
"206 -12 OFFCURVE",
"313 -12 CURVE SMOOTH",
"445 -12 OFFCURVE",
"574 57 OFFCURVE",
"574 201 CURVE SMOOTH",
"574 301 OFFCURVE",
"495 375 OFFCURVE",
"341 372 CURVE"
);
},
{
closed = 1;
nodes = (
"211 386 LINE",
"211 342 LINE",
"306 343 LINE",
"296 386 LINE"
);
},
{
closed = 1;
nodes = (
"247 716 OFFCURVE",
"196 697 OFFCURVE",
"138 655 CURVE",
"143 709 LINE",
"89 709 LINE",
"89 477 LINE",
"125 477 LINE",
"155 603 OFFCURVE",
"210 675 OFFCURVE",
"321 675 CURVE SMOOTH",
"390 675 OFFCURVE",
"445 637 OFFCURVE",
"445 539 CURVE SMOOTH",
"445 459 OFFCURVE",
"406 383 OFFCURVE",
"283 386 CURVE",
"316 343 LINE",
"372 371 LINE",
"372 373 LINE",
"481 393 OFFCURVE",
"536 466 OFFCURVE",
"537 545 CURVE SMOOTH",
"539 650 OFFCURVE",
"453 716 OFFCURVE",
"324 716 CURVE SMOOTH"
);
}
);
};
layerId = "C9B29665-C437-4A1D-A258-6E2E4B235112";
name = Light;
paths = (
{
closed = 1;
nodes = (
"279 348 LINE",
"412 347 OFFCURVE",
"475 301 OFFCURVE",
"475 202 CURVE SMOOTH",
"475 89 OFFCURVE",
"390 32 OFFCURVE",
"291 32 CURVE SMOOTH",
"205 32 OFFCURVE",
"120 76 OFFCURVE",
"66 151 CURVE",
"40 130 LINE",
"111 31 OFFCURVE",
"206 -16 OFFCURVE",
"313 -16 CURVE SMOOTH",
"445 -16 OFFCURVE",
"574 57 OFFCURVE",
"574 201 CURVE SMOOTH",
"574 301 OFFCURVE",
"495 378 OFFCURVE",
"341 375 CURVE"
);
},
{
closed = 1;
nodes = (
"211 389 LINE",
"211 347 LINE",
"306 348 LINE",
"296 389 LINE"
);
},
{
closed = 1;
nodes = (
"247 716 OFFCURVE",
"196 697 OFFCURVE",
"138 655 CURVE",
"143 709 LINE",
"89 709 LINE",
"89 487 LINE",
"125 487 LINE",
"155 613 OFFCURVE",
"210 675 OFFCURVE",
"321 675 CURVE SMOOTH",
"390 675 OFFCURVE",
"445 637 OFFCURVE",
"445 539 CURVE SMOOTH",
"445 459 OFFCURVE",
"406 386 OFFCURVE",
"283 389 CURVE",
"316 348 LINE",
"372 374 LINE",
"372 376 LINE",
"481 396 OFFCURVE",
"536 466 OFFCURVE",
"537 545 CURVE SMOOTH",
"539 650 OFFCURVE",
"453 716 OFFCURVE",
"324 716 CURVE SMOOTH"
);
}
);
width = 613;
}
);
rightMetricsKey = B;
unicode = 0417;
userData = {
public.markColor = "0.67,0.95,0.38,1";
};
},
{
color = 4;
glyphname = "Ii-cy";
layers = (
{
anchors = (
{
name = top;
position = "{397, 700}";
}
);
layerId = "C9B29665-C437-4A1D-A258-6E2E4B235112";
name = Light;
paths = (
{
closed = 1;
nodes = (
"143 81 LINE",
"174 52 LINE",
"632 624 LINE",
"604 651 LINE"
);
},
{
closed = 1;
nodes = (
"55 700 LINE",
"55 656 LINE",
"127 660 LINE",
"125 640 OFFCURVE",
"124 615 OFFCURVE",
"124 588 CURVE SMOOTH",
"124 156 LINE SMOOTH",
"124 85 OFFCURVE",
"130 36 OFFCURVE",
"55 33 CURVE",
"55 0 LINE",
"280 0 LINE",
"280 44 LINE",
"208 40 LINE",
"210 57 OFFCURVE",
"211 83 OFFCURVE",
"211 119 CURVE SMOOTH",
"211 544 LINE SMOOTH",
"211 615 OFFCURVE",
"205 664 OFFCURVE",
"280 667 CURVE",
"280 700 LINE"
);
},
{
closed = 1;
nodes = (
"510 700 LINE",
"510 656 LINE",
"582 660 LINE",
"580 640 OFFCURVE",
"579 615 OFFCURVE",
"579 588 CURVE SMOOTH",
"579 156 LINE SMOOTH",
"579 85 OFFCURVE",
"585 36 OFFCURVE",
"510 33 CURVE",
"510 0 LINE",
"735 0 LINE",
"735 44 LINE",
"663 40 LINE",
"665 57 OFFCURVE",
"666 83 OFFCURVE",
"666 119 CURVE SMOOTH",
"666 544 LINE SMOOTH",
"666 615 OFFCURVE",
"660 664 OFFCURVE",
"735 667 CURVE",
"735 700 LINE"
);
}
);
width = 790;
}
);
unicode = 0418;
userData = {
public.markColor = "0.67,0.95,0.38,1";
};
},
{
color = 1;
glyphname = "Iishorttail-cy";
lastChange = "2016-08-18 13:31:04 +0000";
layers = (
{
anchors = (
{
name = top;
position = "{397, 700}";
}
);
components = (
{
name = "brevecomb-cy.case";
transform = "{1, 0, 0, 1, 193, 0}";
}
);
layerId = "C9B29665-C437-4A1D-A258-6E2E4B235112";
rightMetricsKey = "Shcha-cy";
name = Light;
paths = (
{
closed = 1;
nodes = (
"663 40 LINE",
"634 0 LINE",
"700 0 OFFCURVE",
"714 -78 OFFCURVE",
"714 -178 CURVE",
"755 -178 LINE",
"755 45 LINE"
);
},
{
closed = 1;
nodes = (
"143 81 LINE",
"174 52 LINE",
"632 624 LINE",
"604 651 LINE"
);
},
{
closed = 1;
nodes = (
"55 700 LINE",
"55 656 LINE",
"127 660 LINE",
"125 640 OFFCURVE",
"124 615 OFFCURVE",
"124 588 CURVE SMOOTH",
"124 156 LINE SMOOTH",
"124 85 OFFCURVE",
"130 36 OFFCURVE",
"55 33 CURVE",
"55 0 LINE",
"280 0 LINE",
"280 44 LINE",
"208 40 LINE",
"210 57 OFFCURVE",
"211 83 OFFCURVE",
"211 119 CURVE SMOOTH",
"211 544 LINE SMOOTH",
"211 615 OFFCURVE",
"205 664 OFFCURVE",
"280 667 CURVE",
"280 700 LINE"
);
},
{
closed = 1;
nodes = (
"510 700 LINE",
"510 656 LINE",
"582 660 LINE",
"580 640 OFFCURVE",
"579 615 OFFCURVE",
"579 588 CURVE SMOOTH",
"579 156 LINE SMOOTH",
"579 85 OFFCURVE",
"585 36 OFFCURVE",
"510 33 CURVE",
"510 0 LINE",
"735 0 LINE",
"735 34 LINE",
"663 40 LINE",
"665 57 OFFCURVE",
"666 83 OFFCURVE",
"666 119 CURVE SMOOTH",
"666 544 LINE SMOOTH",
"666 615 OFFCURVE",
"660 664 OFFCURVE",
"735 667 CURVE",
"735 700 LINE"
);
}
);
width = 789;
}
);
rightMetricsKey = "Shcha-cy";
unicode = 048A;
},
{
color = 4;
glyphname = "El-cy";
layers = (
{
layerId = "C9B29665-C437-4A1D-A258-6E2E4B235112";
name = Light;
paths = (
{
closed = 1;
nodes = (
"150 700 LINE",
"150 656 LINE",
"223 660 LINE",
"489 661 LINE",
"489 156 LINE SMOOTH",
"489 85 OFFCURVE",
"495 36 OFFCURVE",
"419 33 CURVE",
"419 0 LINE",
"645 0 LINE",
"645 44 LINE",
"573 40 LINE",
"575 57 OFFCURVE",
"576 83 OFFCURVE",
"576 119 CURVE SMOOTH",
"576 544 LINE SMOOTH",
"576 615 OFFCURVE",
"570 664 OFFCURVE",
"645 667 CURVE",
"645 700 LINE"
);
},
{
closed = 1;
nodes = (
"244 700 LINE",
"244 511 LINE SMOOTH",
"244 178 OFFCURVE",
"167 25 OFFCURVE",
"112 25 CURVE SMOOTH",
"105 25 OFFCURVE",
"101 27 OFFCURVE",
"95 33 CURVE",
"103 41 OFFCURVE",
"105 47 OFFCURVE",
"105 60 CURVE SMOOTH",
"105 80 OFFCURVE",
"89 106 OFFCURVE",
"56 104 CURVE SMOOTH",
"27 103 OFFCURVE",
"7 81 OFFCURVE",
"7 52 CURVE SMOOTH",
"7 10 OFFCURVE",
"51 -16 OFFCURVE",
"99 -16 CURVE SMOOTH",
"239 -16 OFFCURVE",
"292 290 OFFCURVE",
"292 582 CURVE SMOOTH",
"292 700 LINE"
);
},
{
closed = 1;
nodes = (
"262 660 LINE",
"255 629 LINE",
"292 604 LINE",
"294 637 OFFCURVE",
"313 661 OFFCURVE",
"359 661 CURVE"
);
}
);
width = 699;
}
);
rightMetricsKey = "En-cy";
unicode = 041B;
userData = {
public.markColor = "0.67,0.95,0.38,1";
};
},
{
color = 4;
glyphname = "Pe-cy";
layers = (
{
anchors = (
{
name = top;
position = "{400, 700}";
}
);
layerId = "C9B29665-C437-4A1D-A258-6E2E4B235112";
name = Light;
paths = (
{
closed = 1;
nodes = (
"55 700 LINE",
"55 656 LINE",
"127 660 LINE",
"125 640 OFFCURVE",
"124 615 OFFCURVE",
"124 588 CURVE SMOOTH",
"124 156 LINE SMOOTH",
"124 85 OFFCURVE",
"130 36 OFFCURVE",
"55 33 CURVE",
"55 0 LINE",
"280 0 LINE",
"280 44 LINE",
"208 40 LINE",
"210 57 OFFCURVE",
"211 83 OFFCURVE",
"211 119 CURVE SMOOTH",
"211 656 LINE",
"550 661 LINE",
"550 156 LINE SMOOTH",
"550 85 OFFCURVE",
"556 36 OFFCURVE",
"480 33 CURVE",
"480 0 LINE",
"706 0 LINE",
"706 44 LINE",
"634 40 LINE",
"636 57 OFFCURVE",
"637 83 OFFCURVE",
"637 119 CURVE SMOOTH",
"637 544 LINE SMOOTH",
"637 615 OFFCURVE",
"631 664 OFFCURVE",
"706 667 CURVE",
"706 700 LINE"
);
},
{
closed = 1;
nodes = (
"172 690 LINE",
"172 565 LINE",
"211 534 LINE",
"211 605 OFFCURVE",
"205 654 OFFCURVE",
"280 657 CURVE",
"280 690 LINE"
);
}
);
width = 760;
}
);
rightMetricsKey = "En-cy";
unicode = 041F;
userData = {
public.markColor = "0.67,0.95,0.38,1";
};
},
{
color = 4;
glyphname = "U-cy";
layers = (
{
anchors = (
{
name = top;
position = "{307, 700}";
}
);
layerId = "C9B29665-C437-4A1D-A258-6E2E4B235112";
name = Light;
paths = (
{
closed = 1;
nodes = (
"418 700 LINE",
"418 656 LINE",
"497 659 LINE",
"483 642 OFFCURVE",
"465 592 OFFCURVE",
"452 552 CURVE SMOOTH",
"418 454 OFFCURVE",
"284 118 OFFCURVE",
"258 73 CURVE SMOOTH",
"234 31 OFFCURVE",
"219 22 OFFCURVE",
"194 32 CURVE",
"200 39 OFFCURVE",
"203 45 OFFCURVE",
"203 57 CURVE SMOOTH",
"203 78 OFFCURVE",
"188 101 OFFCURVE",
"157 100 CURVE SMOOTH",
"126 99 OFFCURVE",
"106 76 OFFCURVE",
"106 44 CURVE SMOOTH",
"106 -2 OFFCURVE",
"146 -17 OFFCURVE",
"188 -17 CURVE SMOOTH",
"258 -17 OFFCURVE",
"292 39 OFFCURVE",
"338 149 CURVE SMOOTH",
"500 540 LINE SMOOTH",
"533 622 OFFCURVE",
"548 663 OFFCURVE",
"623 667 CURVE",
"623 700 LINE"
);
},
{
closed = 1;
nodes = (
"-5 700 LINE",
"-5 656 LINE",
"57 658 LINE",
"62 633 OFFCURVE",
"71 599 OFFCURVE",
"98 546 CURVE SMOOTH",
"299 147 LINE",
"342 241 LINE",
"184 558 LINE SMOOTH",
"151 622 OFFCURVE",
"152 667 OFFCURVE",
"236 667 CURVE",
"236 700 LINE"
);
}
);
width = 610;
}
);
unicode = 0423;
userData = {
public.markColor = "0.67,0.95,0.38,1";
};
},
{
color = 4;
glyphname = "Ushort-cy";
layers = (
{
components = (
{
name = "U-cy";
transform = "{1, 0, 0, 1, 0, 0}";
}
);
layerId = "C9B29665-C437-4A1D-A258-6E2E4B235112";
name = Light;
paths = (
{
closed = 1;
nodes = (
"406 898 OFFCURVE",
"396 868 OFFCURVE",
"396 853 CURVE SMOOTH",
"396 840 OFFCURVE",
"399 824 OFFCURVE",
"407 812 CURVE",
"388 793 OFFCURVE",
"366 787 OFFCURVE",
"332 787 CURVE SMOOTH",
"297 787 OFFCURVE",
"275 793 OFFCURVE",
"256 812 CURVE",
"264 824 OFFCURVE",
"267 840 OFFCURVE",
"267 853 CURVE SMOOTH",
"267 868 OFFCURVE",
"257 898 OFFCURVE",
"221 897 CURVE SMOOTH",
"193 896 OFFCURVE",
"177 872 OFFCURVE",
"177 846 CURVE SMOOTH",
"177 787 OFFCURVE",
"247 750 OFFCURVE",
"332 750 CURVE SMOOTH",
"416 750 OFFCURVE",
"486 787 OFFCURVE",
"486 846 CURVE SMOOTH",
"486 872 OFFCURVE",
"470 896 OFFCURVE",
"442 897 CURVE SMOOTH"
);
}
);
width = 610;
}
);
unicode = 040E;
},
{
color = 4;
glyphname = "Ef-cy";
lastChange = "2016-08-19 17:45:12 +0000";
layers = (
{
layerId = "C9B29665-C437-4A1D-A258-6E2E4B235112";
leftMetricsKey = O;
rightMetricsKey = O;
name = Light;
paths = (
{
closed = 1;
nodes = (
"406 607 LINE",
"582 607 OFFCURVE",
"677 520 OFFCURVE",
"677 332 CURVE SMOOTH",
"677 183 OFFCURVE",
"585 112 OFFCURVE",
"416 112 CURVE",
"416 72 LINE",
"664 72 OFFCURVE",
"775 183 OFFCURVE",
"775 350 CURVE SMOOTH",
"775 534 OFFCURVE",
"644 648 OFFCURVE",
"406 648 CURVE"
);
},
{
closed = 1;
nodes = (
"158 648 OFFCURVE",
"46 520 OFFCURVE",
"46 335 CURVE SMOOTH",
"46 168 OFFCURVE",
"177 72 OFFCURVE",
"416 72 CURVE",
"416 113 LINE",
"239 113 OFFCURVE",
"144 183 OFFCURVE",
"144 354 CURVE SMOOTH",
"144 520 OFFCURVE",
"236 608 OFFCURVE",
"405 608 CURVE",
"405 648 LINE"
);
},
{
closed = 1;
nodes = (
"294 759 LINE",
"294 715 LINE",
"367 719 LINE",
"364 699 OFFCURVE",
"363 674 OFFCURVE",
"363 647 CURVE SMOOTH",
"363 122 LINE SMOOTH",
"363 51 OFFCURVE",
"370 -13 OFFCURVE",
"294 -16 CURVE",
"294 -49 LINE",
"519 -49 LINE",
"519 -5 LINE",
"446 -9 LINE",
"449 8 OFFCURVE",
"450 49 OFFCURVE",
"450 85 CURVE SMOOTH",
"450 603 LINE SMOOTH",
"450 674 OFFCURVE",
"443 723 OFFCURVE",
"519 726 CURVE",
"519 759 LINE"
);
}
);
width = 819;
}
);
leftMetricsKey = O;
rightMetricsKey = O;
unicode = 0424;
userData = {
public.markColor = "0.67,0.95,0.38,1";
};
},
{
color = 4;
glyphname = "Che-cy";
layers = (
{
anchors = (
{
name = bottomright;
position = "{682, 0}";
},
{
name = center;
position = "{314, 301}";
},
{
name = top;
position = "{353, 700}";
}
);
layerId = "C9B29665-C437-4A1D-A258-6E2E4B235112";
name = Light;
paths = (
{
closed = 1;
nodes = (
"422 700 LINE",
"422 656 LINE",
"494 660 LINE",
"492 640 OFFCURVE",
"491 615 OFFCURVE",
"491 588 CURVE SMOOTH",
"491 156 LINE SMOOTH",
"491 85 OFFCURVE",
"497 36 OFFCURVE",
"422 33 CURVE",
"422 0 LINE",
"647 0 LINE",
"647 44 LINE",
"575 40 LINE",
"577 57 OFFCURVE",
"578 83 OFFCURVE",
"578 119 CURVE SMOOTH",
"578 544 LINE SMOOTH",
"578 615 OFFCURVE",
"572 664 OFFCURVE",
"647 667 CURVE",
"647 700 LINE"
);
},
{
closed = 1;
nodes = (
"101 345 OFFCURVE",
"163 273 OFFCURVE",
"308 273 CURVE SMOOTH",
"378 273 OFFCURVE",
"445 288 OFFCURVE",
"492 311 CURVE",
"491 360 LINE",
"456 339 OFFCURVE",
"403 325 OFFCURVE",
"344 324 CURVE SMOOTH",
"234 323 OFFCURVE",
"189 383 OFFCURVE",
"188 451 CURVE",
"101 473 LINE"
);
},
{
closed = 1;
nodes = (
"32 700 LINE",
"32 656 LINE",
"104 660 LINE",
"101 638 OFFCURVE",
"101 610 OFFCURVE",
"101 473 CURVE",
"188 451 LINE",
"189 610 OFFCURVE",
"178 664 OFFCURVE",
"257 667 CURVE",
"257 700 LINE"
);
}
);
width = 702;
}
);
unicode = 0427;
userData = {
public.markColor = "0.67,0.95,0.38,1";
};
},
{
color = 1;
glyphname = "Tse-cy";
lastChange = "2016-08-18 13:36:00 +0000";
layers = (
{
layerId = "C9B29665-C437-4A1D-A258-6E2E4B235112";
rightMetricsKey = "Shcha-cy";
name = Light;
paths = (
{
closed = 1;
nodes = (
"696 700 LINE",
"471 700 LINE",
"471 656 LINE",
"543 660 LINE",
"541 643 OFFCURVE",
"540 617 OFFCURVE",
"540 581 CURVE SMOOTH",
"540 123 LINE SMOOTH",
"539 76 OFFCURVE",
"530 45 OFFCURVE",
"475 43 CURVE SMOOTH",
"211 40 LINE",
"211 544 LINE SMOOTH",
"211 615 OFFCURVE",
"205 664 OFFCURVE",
"280 667 CURVE",
"280 700 LINE",
"55 700 LINE",
"55 656 LINE",
"127 660 LINE",
"125 643 OFFCURVE",
"124 617 OFFCURVE",
"124 581 CURVE SMOOTH",
"124 156 LINE SMOOTH",
"124 85 OFFCURVE",
"130 36 OFFCURVE",
"55 33 CURVE",
"55 0 LINE",
"696 0 LINE",
"696 44 LINE",
"624 40 LINE",
"626 60 OFFCURVE",
"627 85 OFFCURVE",
"627 112 CURVE SMOOTH",
"627 544 LINE SMOOTH",
"627 615 OFFCURVE",
"621 664 OFFCURVE",
"696 667 CURVE"
);
},
{
closed = 1;
nodes = (
"624 40 LINE",
"595 0 LINE",
"661 0 OFFCURVE",
"675 -78 OFFCURVE",
"675 -178 CURVE",
"716 -178 LINE",
"716 45 LINE"
);
}
);
width = 750;
}
);
rightMetricsKey = "Shcha-cy";
unicode = 0426;
userData = {
public.markColor = "0.67,0.95,0.38,1";
};
},
{
color = 4;
glyphname = "Sha-cy";
layers = (
{
layerId = "C9B29665-C437-4A1D-A258-6E2E4B235112";
name = Light;
paths = (
{
closed = 1;
nodes = (
"734 700 LINE",
"734 656 LINE",
"797 660 LINE",
"794 643 OFFCURVE",
"793 617 OFFCURVE",
"793 581 CURVE SMOOTH",
"793 44 LINE",
"211 40 LINE",
"211 544 LINE SMOOTH",
"211 615 OFFCURVE",
"205 664 OFFCURVE",
"280 667 CURVE",
"280 700 LINE",
"55 700 LINE",
"55 656 LINE",
"127 660 LINE",
"125 643 OFFCURVE",
"124 617 OFFCURVE",
"124 581 CURVE SMOOTH",
"124 156 LINE SMOOTH",
"124 85 OFFCURVE",
"130 36 OFFCURVE",
"55 33 CURVE",
"55 0 LINE",
"950 0 LINE",
"950 44 LINE",
"877 40 LINE",
"880 60 OFFCURVE",
"881 85 OFFCURVE",
"881 112 CURVE SMOOTH",
"881 544 LINE SMOOTH",
"881 615 OFFCURVE",
"875 664 OFFCURVE",
"950 667 CURVE",
"950 700 LINE"
);
},
{
closed = 1;
nodes = (
"399 700 LINE",
"399 656 LINE",
"462 660 LINE",
"459 643 OFFCURVE",
"458 617 OFFCURVE",
"458 581 CURVE SMOOTH",
"458 41 LINE",
"542 37 LINE",
"545 62 OFFCURVE",
"546 85 OFFCURVE",
"546 112 CURVE SMOOTH",
"546 544 LINE SMOOTH",
"546 615 OFFCURVE",
"540 664 OFFCURVE",
"615 667 CURVE",
"615 700 LINE"
);
}
);
width = 1005;
}
);
unicode = 0428;
userData = {
public.markColor = "0.67,0.95,0.38,1";
};
},
{
color = 1;
glyphname = "Shcha-cy";
lastChange = "2016-08-18 12:58:32 +0000";
layers = (
{
background = {
paths = (
{
closed = 1;
nodes = (
"955 44 LINE",
"848 0 LINE",
"914 0 OFFCURVE",
"928 -78 OFFCURVE",
"928 -178 CURVE",
"969 -178 LINE",
"969 45 LINE"
);
},
{
closed = 1;
nodes = (
"734 700 LINE",
"734 656 LINE",
"797 660 LINE",
"794 643 OFFCURVE",
"793 617 OFFCURVE",
"793 581 CURVE SMOOTH",
"793 44 LINE",
"211 40 LINE",
"211 544 LINE SMOOTH",
"211 615 OFFCURVE",
"205 664 OFFCURVE",
"280 667 CURVE",
"280 700 LINE",
"55 700 LINE",
"55 656 LINE",
"127 660 LINE",
"125 643 OFFCURVE",
"124 617 OFFCURVE",
"124 581 CURVE SMOOTH",
"124 156 LINE SMOOTH",
"124 85 OFFCURVE",
"130 36 OFFCURVE",
"55 33 CURVE",
"55 0 LINE",
"950 0 LINE",
"950 44 LINE",
"877 40 LINE",
"880 60 OFFCURVE",
"881 85 OFFCURVE",
"881 112 CURVE SMOOTH",
"881 544 LINE SMOOTH",
"881 615 OFFCURVE",
"875 664 OFFCURVE",
"950 667 CURVE",
"950 700 LINE"
);
}
);
};
layerId = "C9B29665-C437-4A1D-A258-6E2E4B235112";
name = Light;
paths = (
{
closed = 1;
nodes = (
"875 40 LINE",
"846 0 LINE",
"912 0 OFFCURVE",
"926 -78 OFFCURVE",
"926 -178 CURVE",
"967 -178 LINE",
"967 45 LINE"
);
},
{
closed = 1;
nodes = (
"733 700 LINE",
"733 656 LINE",
"796 660 LINE",
"793 643 OFFCURVE",
"792 617 OFFCURVE",
"792 581 CURVE SMOOTH",
"792 44 LINE",
"211 40 LINE",
"211 544 LINE SMOOTH",
"211 615 OFFCURVE",
"205 664 OFFCURVE",
"280 667 CURVE",
"280 700 LINE",
"55 700 LINE",
"55 656 LINE",
"127 660 LINE",
"125 643 OFFCURVE",
"124 617 OFFCURVE",
"124 581 CURVE SMOOTH",
"124 156 LINE SMOOTH",
"124 85 OFFCURVE",
"130 36 OFFCURVE",
"55 33 CURVE",
"55 0 LINE",
"948 0 LINE",
"875 40 LINE",
"878 60 OFFCURVE",
"879 85 OFFCURVE",
"879 112 CURVE SMOOTH",
"879 544 LINE SMOOTH",
"879 615 OFFCURVE",
"873 664 OFFCURVE",
"948 667 CURVE",
"948 700 LINE"
);
},
{
closed = 1;
nodes = (
"399 700 LINE",
"399 656 LINE",
"462 660 LINE",
"459 643 OFFCURVE",
"458 617 OFFCURVE",
"458 581 CURVE SMOOTH",
"458 41 LINE",
"541 37 LINE",
"544 62 OFFCURVE",
"545 85 OFFCURVE",
"545 112 CURVE SMOOTH",
"545 544 LINE SMOOTH",
"545 615 OFFCURVE",
"539 664 OFFCURVE",
"614 667 CURVE",
"614 700 LINE"
);
}
);
width = 1001;
}
);
leftMetricsKey = "En-cy";
unicode = 0429;
userData = {
public.markColor = "0.67,0.95,0.38,1";
};
},
{
color = 4;
glyphname = "Dzhe-cy";
layers = (
{
components = (
{
name = "Pe-cy";
transform = "{-1, 0, 0, -1, 771, 700}";
}
);
layerId = "C9B29665-C437-4A1D-A258-6E2E4B235112";
name = Light;
paths = (
{
closed = 1;
nodes = (
"414 41 LINE",
"308 0 LINE",
"374 0 OFFCURVE",
"387 -78 OFFCURVE",
"387 -178 CURVE",
"429 -178 LINE",
"429 41 LINE"
);
}
);
width = 771;
}
);
unicode = 040F;
},
{
color = 4;
glyphname = "Ia-cy";
layers = (
{
layerId = "C9B29665-C437-4A1D-A258-6E2E4B235112";
name = Light;
paths = (
{
closed = 1;
nodes = (
"351 700 LINE SMOOTH",
"201 700 OFFCURVE",
"127 629 OFFCURVE",
"127 489 CURVE SMOOTH",
"127 376 OFFCURVE",
"237 300 OFFCURVE",
"367 300 CURVE",
"367 292 LINE",
"462 293 LINE",
"462 156 LINE SMOOTH",
"462 85 OFFCURVE",
"468 36 OFFCURVE",
"393 33 CURVE",
"393 0 LINE",
"618 0 LINE",
"618 44 LINE",
"546 40 LINE",
"548 60 OFFCURVE",
"549 85 OFFCURVE",
"549 112 CURVE SMOOTH",
"549 544 LINE SMOOTH",
"549 617 OFFCURVE",
"545 665 OFFCURVE",
"618 667 CURVE",
"618 700 LINE"
);
},
{
closed = 1;
nodes = (
"271 306 OFFCURVE",
"248 288 OFFCURVE",
"218 244 CURVE SMOOTH",
"141 128 LINE SMOOTH",
"99 65 OFFCURVE",
"78 33 OFFCURVE",
"22 33 CURVE",
"22 0 LINE",
"140 0 LINE",
"169 15 OFFCURVE",
"204 67 OFFCURVE",
"232 111 CURVE SMOOTH",
"307 226 LINE SMOOTH",
"321 249 OFFCURVE",
"343 275 OFFCURVE",
"373 292 CURVE",
"373 307 LINE",
"318 313 LINE"
);
},
{
closed = 1;
nodes = (
"396 662 OFFCURVE",
"458 663 OFFCURVE",
"465 660 CURVE",
"463 643 OFFCURVE",
"462 618 OFFCURVE",
"462 582 CURVE SMOOTH",
"462 332 LINE",
"455 330 OFFCURVE",
"423 329 OFFCURVE",
"384 329 CURVE SMOOTH",
"294 329 OFFCURVE",
"221 400 OFFCURVE",
"221 491 CURVE SMOOTH",
"221 610 OFFCURVE",
"291 662 OFFCURVE",
"384 662 CURVE SMOOTH"
);
}
);
width = 673;
}
);
rightMetricsKey = "En-cy";
unicode = 042F;
userData = {
public.markColor = "0.67,0.95,0.38,1";
};
},
{
color = 4;
glyphname = "Softsign-cy";
layers = (
{
layerId = "C9B29665-C437-4A1D-A258-6E2E4B235112";
name = Light;
paths = (
{
closed = 1;
nodes = (
"55 700 LINE",
"55 656 LINE",
"127 660 LINE",
"125 640 OFFCURVE",
"124 615 OFFCURVE",
"124 588 CURVE SMOOTH",
"124 156 LINE SMOOTH",
"124 84 OFFCURVE",
"129 35 OFFCURVE",
"55 33 CURVE",
"55 0 LINE",
"347 0 LINE SMOOTH",
"482 0 OFFCURVE",
"583 73 OFFCURVE",
"583 213 CURVE SMOOTH",
"583 331 OFFCURVE",
"512 416 OFFCURVE",
"292 410 CURVE SMOOTH",
"211 407 LINE",
"211 544 LINE SMOOTH",
"211 615 OFFCURVE",
"205 664 OFFCURVE",
"280 667 CURVE",
"280 700 LINE"
);
},
{
closed = 1;
nodes = (
"405 372 OFFCURVE",
"486 336 OFFCURVE",
"486 209 CURVE SMOOTH",
"486 90 OFFCURVE",
"417 38 OFFCURVE",
"314 38 CURVE SMOOTH",
"301 38 OFFCURVE",
"239 37 OFFCURVE",
"208 40 CURVE",
"210 57 OFFCURVE",
"211 82 OFFCURVE",
"211 118 CURVE SMOOTH",
"211 369 LINE",
"243 371 OFFCURVE",
"274 372 OFFCURVE",
"314 372 CURVE SMOOTH"
);
}
);
width = 615;
}
);
leftMetricsKey = "En-cy";
unicode = 042C;
userData = {
public.markColor = "0.67,0.95,0.38,1";
};
},
{
color = 4;
glyphname = "Hardsign-cy";
layers = (
{
layerId = "C9B29665-C437-4A1D-A258-6E2E4B235112";
name = Light;
paths = (
{
closed = 1;
nodes = (
"243 700 LINE",
"245 660 LINE",
"242 640 OFFCURVE",
"241 615 OFFCURVE",
"241 588 CURVE SMOOTH",
"241 156 LINE SMOOTH",
"242 83 OFFCURVE",
"246 35 OFFCURVE",
"172 33 CURVE",
"172 0 LINE",
"459 0 LINE SMOOTH",
"590 0 OFFCURVE",
"686 73 OFFCURVE",
"686 213 CURVE SMOOTH",
"686 331 OFFCURVE",
"614 416 OFFCURVE",
"404 410 CURVE SMOOTH",
"329 407 LINE",
"329 544 LINE SMOOTH",
"329 615 OFFCURVE",
"322 664 OFFCURVE",
"397 667 CURVE",
"397 700 LINE"
);
},
{
closed = 1;
nodes = (
"508 372 OFFCURVE",
"589 336 OFFCURVE",
"589 209 CURVE SMOOTH",
"589 90 OFFCURVE",
"520 38 OFFCURVE",
"426 38 CURVE SMOOTH",
"414 38 OFFCURVE",
"356 37 OFFCURVE",
"325 40 CURVE",
"328 57 OFFCURVE",
"329 82 OFFCURVE",
"329 118 CURVE SMOOTH",
"329 369 LINE",
"360 371 OFFCURVE",
"387 372 OFFCURVE",
"426 372 CURVE SMOOTH"
);
},
{
closed = 1;
nodes = (
"28 700 LINE",
"22 489 LINE",
"59 489 LINE",
"59 607 OFFCURVE",
"90 659 OFFCURVE",
"174 659 CURVE SMOOTH",
"280 660 LINE",
"280 700 LINE"
);
}
);
width = 717;
}
);
leftMetricsKey = "Te-cy";
rightMetricsKey = "Softsign-cy";
unicode = 042A;
userData = {
public.markColor = "0.67,0.95,0.38,1";
};
},
{
color = 4;
glyphname = "Yeru-cy";
layers = (
{
anchors = (
{
name = top;
position = "{449, 700}";
}
);
layerId = "C9B29665-C437-4A1D-A258-6E2E4B235112";
name = Light;
paths = (
{
closed = 1;
nodes = (
"55 700 LINE",
"55 656 LINE",
"127 660 LINE",
"125 640 OFFCURVE",
"124 615 OFFCURVE",
"124 588 CURVE SMOOTH",
"124 156 LINE SMOOTH",
"124 84 OFFCURVE",
"129 35 OFFCURVE",
"55 33 CURVE",
"55 0 LINE",
"347 0 LINE SMOOTH",
"468 0 OFFCURVE",
"568 73 OFFCURVE",
"568 213 CURVE SMOOTH",
"568 331 OFFCURVE",
"497 416 OFFCURVE",
"292 410 CURVE SMOOTH",
"211 407 LINE",
"211 544 LINE SMOOTH",
"211 615 OFFCURVE",
"205 664 OFFCURVE",
"280 667 CURVE",
"280 700 LINE"
);
},
{
closed = 1;
nodes = (
"391 372 OFFCURVE",
"472 336 OFFCURVE",
"472 209 CURVE SMOOTH",
"472 90 OFFCURVE",
"402 38 OFFCURVE",
"314 38 CURVE SMOOTH",
"301 38 OFFCURVE",
"239 37 OFFCURVE",
"208 40 CURVE",
"210 57 OFFCURVE",
"211 82 OFFCURVE",
"211 118 CURVE SMOOTH",
"211 369 LINE",
"243 371 OFFCURVE",
"274 372 OFFCURVE",
"314 372 CURVE SMOOTH"
);
},
{
closed = 1;
nodes = (
"619 700 LINE",
"619 656 LINE",
"691 660 LINE",
"688 640 OFFCURVE",
"688 615 OFFCURVE",
"688 588 CURVE SMOOTH",
"688 156 LINE SMOOTH",
"688 85 OFFCURVE",
"694 36 OFFCURVE",
"619 33 CURVE",
"619 0 LINE",
"844 0 LINE",
"844 44 LINE",
"771 40 LINE",
"774 57 OFFCURVE",
"775 83 OFFCURVE",
"775 119 CURVE SMOOTH",
"775 544 LINE SMOOTH",
"775 615 OFFCURVE",
"769 664 OFFCURVE",
"844 667 CURVE",
"844 700 LINE"
);
}
);
width = 899;
}
);
leftMetricsKey = "En-cy";
rightMetricsKey = "En-cy";
unicode = 042B;
userData = {
public.markColor = "0.67,0.95,0.38,1";
};
},
{
color = 4;
glyphname = "Lje-cy";
layers = (
{
layerId = "C9B29665-C437-4A1D-A258-6E2E4B235112";
name = Light;
paths = (
{
closed = 1;
nodes = (
"746 372 OFFCURVE",
"827 336 OFFCURVE",
"827 209 CURVE SMOOTH",
"827 90 OFFCURVE",
"757 38 OFFCURVE",
"654 38 CURVE SMOOTH",
"642 38 OFFCURVE",
"604 37 OFFCURVE",
"573 40 CURVE",
"575 57 OFFCURVE",
"576 82 OFFCURVE",
"576 118 CURVE SMOOTH",
"576 369 LINE",
"608 371 OFFCURVE",
"615 372 OFFCURVE",
"654 372 CURVE SMOOTH"
);
},
{
closed = 1;
nodes = (
"244 700 LINE",
"244 531 LINE SMOOTH",
"244 217 OFFCURVE",
"167 25 OFFCURVE",
"112 25 CURVE SMOOTH",
"105 25 OFFCURVE",
"101 27 OFFCURVE",
"95 33 CURVE",
"103 41 OFFCURVE",
"104 47 OFFCURVE",
"104 60 CURVE SMOOTH",
"104 80 OFFCURVE",
"89 106 OFFCURVE",
"56 104 CURVE SMOOTH",
"27 103 OFFCURVE",
"12 79 OFFCURVE",
"12 52 CURVE SMOOTH",
"12 8 OFFCURVE",
"51 -16 OFFCURVE",
"99 -16 CURVE SMOOTH",
"254 -16 OFFCURVE",
"292 290 OFFCURVE",
"292 582 CURVE SMOOTH",
"292 700 LINE"
);
},
{
closed = 1;
nodes = (
"262 660 LINE",
"255 629 LINE",
"292 604 LINE",
"294 637 OFFCURVE",
"313 661 OFFCURVE",
"359 661 CURVE"
);
},
{
closed = 1;
nodes = (
"576 407 LINE",
"576 544 LINE SMOOTH",
"576 615 OFFCURVE",
"571 664 OFFCURVE",
"645 667 CURVE",
"645 700 LINE",
"150 700 LINE",
"150 656 LINE",
"223 660 LINE",
"489 660 LINE",
"489 156 LINE SMOOTH",
"489 83 OFFCURVE",
"493 35 OFFCURVE",
"420 33 CURVE",
"420 0 LINE",
"688 0 LINE SMOOTH",
"823 0 OFFCURVE",
"923 73 OFFCURVE",
"923 213 CURVE SMOOTH",
"923 331 OFFCURVE",
"852 419 OFFCURVE",
"632 410 CURVE SMOOTH"
);
}
);
width = 955;
}
);
rightMetricsKey = "Softsign-cy";
unicode = 0409;
},
{
color = 4;
glyphname = "Nje-cy";
layers = (
{
layerId = "C9B29665-C437-4A1D-A258-6E2E4B235112";
name = Light;
paths = (
{
closed = 1;
nodes = (
"480 700 LINE",
"480 656 LINE",
"553 660 LINE",
"551 640 OFFCURVE",
"550 615 OFFCURVE",
"550 588 CURVE SMOOTH",
"550 156 LINE SMOOTH",
"550 83 OFFCURVE",
"554 35 OFFCURVE",
"481 33 CURVE",
"481 0 LINE",
"749 0 LINE SMOOTH",
"884 0 OFFCURVE",
"984 73 OFFCURVE",
"984 213 CURVE SMOOTH",
"984 331 OFFCURVE",
"913 419 OFFCURVE",
"693 410 CURVE SMOOTH",
"637 407 LINE",
"637 544 LINE SMOOTH",
"637 615 OFFCURVE",
"631 664 OFFCURVE",
"706 667 CURVE",
"706 700 LINE"
);
},
{
closed = 1;
nodes = (
"55 700 LINE",
"55 656 LINE",
"127 660 LINE",
"125 640 OFFCURVE",
"124 615 OFFCURVE",
"124 588 CURVE SMOOTH",
"124 156 LINE SMOOTH",
"124 85 OFFCURVE",
"130 36 OFFCURVE",
"55 33 CURVE",
"55 0 LINE",
"280 0 LINE",
"280 44 LINE",
"208 40 LINE",
"210 57 OFFCURVE",
"211 83 OFFCURVE",
"211 119 CURVE SMOOTH",
"211 364 LINE",
"558 369 LINE",
"558 408 LINE",
"211 408 LINE",
"211 544 LINE SMOOTH",
"211 615 OFFCURVE",
"205 664 OFFCURVE",
"280 667 CURVE",
"280 700 LINE"
);
},
{
closed = 1;
nodes = (
"807 372 OFFCURVE",
"888 336 OFFCURVE",
"888 209 CURVE SMOOTH",
"888 90 OFFCURVE",
"818 38 OFFCURVE",
"715 38 CURVE SMOOTH",
"703 38 OFFCURVE",
"665 37 OFFCURVE",
"634 40 CURVE",
"636 57 OFFCURVE",
"637 82 OFFCURVE",
"637 118 CURVE SMOOTH",
"637 369 LINE",
"669 371 OFFCURVE",
"676 372 OFFCURVE",
"715 372 CURVE SMOOTH"
);
}
);
width = 1016;
}
);
leftMetricsKey = "En-cy";
rightMetricsKey = "Softsign-cy";
unicode = 040A;
},
{
color = 4;
glyphname = "E-cy";
lastChange = "2016-08-20 11:37:28 +0000";
layers = (
{
layerId = "C9B29665-C437-4A1D-A258-6E2E4B235112";
name = Light;
paths = (
{
closed = 1;
nodes = (
"160 716 OFFCURVE",
"46 527 OFFCURVE",
"46 339 CURVE SMOOTH",
"46 140 OFFCURVE",
"185 -16 OFFCURVE",
"386 -16 CURVE SMOOTH",
"468 -16 OFFCURVE",
"583 11 OFFCURVE",
"669 130 CURVE",
"643 151 LINE",
"589 76 OFFCURVE",
"499 36 OFFCURVE",
"412 36 CURVE SMOOTH",
"264 36 OFFCURVE",
"144 165 OFFCURVE",
"144 354 CURVE SMOOTH",
"144 550 OFFCURVE",
"258 676 OFFCURVE",
"400 676 CURVE SMOOTH",
"516 676 OFFCURVE",
"594 602 OFFCURVE",
"608 477 CURVE",
"644 477 LINE",
"644 709 LINE",
"590 709 LINE",
"595 655 LINE",
"533 696 OFFCURVE",
"468 716 OFFCURVE",
"393 716 CURVE SMOOTH"
);
},
{
closed = 1;
nodes = (
"474 469 LINE",
"481 383 LINE",
"116 384 LINE",
"116 344 LINE",
"366 347 LINE SMOOTH",
"451 348 OFFCURVE",
"485 347 OFFCURVE",
"485 259 CURVE",
"518 259 LINE",
"518 469 LINE"
);
}
);
width = 699;
}
);
leftMetricsKey = O;
unicode = 0404;
},
{
color = 1;
glyphname = "Ereversed-cy";
lastChange = "2016-08-19 18:51:04 +0000";
layers = (
{
anchors = (
{
name = top;
position = "{330, 700}";
}
);
background = {
paths = (
{
closed = 1;
nodes = (
"231 716 OFFCURVE",
"166 696 OFFCURVE",
"104 655 CURVE",
"109 709 LINE",
"55 709 LINE",
"55 477 LINE",
"91 477 LINE",
"105 602 OFFCURVE",
"183 675 OFFCURVE",
"299 675 CURVE SMOOTH",
"441 675 OFFCURVE",
"555 550 OFFCURVE",
"555 354 CURVE SMOOTH",
"555 165 OFFCURVE",
"435 36 OFFCURVE",
"287 36 CURVE SMOOTH",
"200 36 OFFCURVE",
"110 76 OFFCURVE",
"56 151 CURVE",
"30 130 LINE",
"116 11 OFFCURVE",
"231 -16 OFFCURVE",
"313 -16 CURVE SMOOTH",
"514 -16 OFFCURVE",
"653 140 OFFCURVE",
"653 339 CURVE SMOOTH",
"653 527 OFFCURVE",
"539 716 OFFCURVE",
"306 716 CURVE SMOOTH"
);
},
{
closed = 1;
nodes = (
"181 469 LINE",
"181 259 LINE",
"214 259 LINE",
"214 347 OFFCURVE",
"248 348 OFFCURVE",
"333 347 CURVE SMOOTH",
"586 344 LINE",
"586 384 LINE",
"218 383 LINE",
"226 469 LINE"
);
}
);
};
layerId = "C9B29665-C437-4A1D-A258-6E2E4B235112";
name = Light;
paths = (
{
closed = 1;
nodes = (
"250 716 OFFCURVE",
"190 702 OFFCURVE",
"123 655 CURVE",
"128 709 LINE",
"74 709 LINE",
"74 487 LINE",
"110 487 LINE",
"124 612 OFFCURVE",
"184 675 OFFCURVE",
"299 675 CURVE SMOOTH",
"452 675 OFFCURVE",
"555 548 OFFCURVE",
"555 354 CURVE SMOOTH",
"555 163 OFFCURVE",
"452 36 OFFCURVE",
"279 36 CURVE SMOOTH",
"192 36 OFFCURVE",
"108 76 OFFCURVE",
"56 151 CURVE",
"30 130 LINE",
"113 11 OFFCURVE",
"223 -16 OFFCURVE",
"305 -16 CURVE SMOOTH",
"512 -16 OFFCURVE",
"653 158 OFFCURVE",
"653 369 CURVE SMOOTH",
"653 541 OFFCURVE",
"546 716 OFFCURVE",
"320 716 CURVE SMOOTH"
);
},
{
closed = 1;
nodes = (
"191 469 LINE",
"191 256 LINE",
"224 256 LINE",
"224 344 OFFCURVE",
"258 340 OFFCURVE",
"343 341 CURVE SMOOTH",
"586 344 LINE",
"586 384 LINE",
"228 383 LINE",
"236 469 LINE"
);
}
);
width = 697;
}
);
rightMetricsKey = O;
unicode = 042D;
userData = {
public.markColor = "0.67,0.95,0.38,1";
};
},
{
color = 4;
glyphname = "Tshe-cy";
layers = (
{
layerId = "C9B29665-C437-4A1D-A258-6E2E4B235112";
name = Light;
paths = (
{
closed = 1;
nodes = (
"28 700 LINE",
"22 489 LINE",
"59 489 LINE",
"59 607 OFFCURVE",
"90 662 OFFCURVE",
"174 662 CURVE SMOOTH",
"277 663 LINE",
"276 156 LINE SMOOTH",
"276 88 OFFCURVE",
"283 36 OFFCURVE",
"208 33 CURVE",
"208 0 LINE",
"443 0 LINE",
"443 44 LINE",
"360 40 LINE",
"362 57 OFFCURVE",
"363 83 OFFCURVE",
"363 119 CURVE SMOOTH",
"364 664 LINE",
"449 664 LINE SMOOTH",
"552 665 OFFCURVE",
"577 607 OFFCURVE",
"579 489 CURVE",
"617 489 LINE",
"611 700 LINE"
);
},
{
closed = 1;
nodes = (
"631 90 OFFCURVE",
"642 36 OFFCURVE",
"563 33 CURVE",
"563 0 LINE",
"788 0 LINE",
"788 44 LINE",
"716 40 LINE",
"719 62 OFFCURVE",
"719 90 OFFCURVE",
"719 227 CURVE",
"632 250 LINE"
);
},
{
closed = 1;
nodes = (
"447 427 OFFCURVE",
"385 412 OFFCURVE",
"343 389 CURVE",
"343 340 LINE",
"376 361 OFFCURVE",
"422 375 OFFCURVE",
"476 376 CURVE SMOOTH",
"586 377 OFFCURVE",
"631 317 OFFCURVE",
"632 250 CURVE",
"719 227 LINE",
"719 355 OFFCURVE",
"657 427 OFFCURVE",
"513 427 CURVE SMOOTH"
);
}
);
width = 820;
}
);
unicode = 040B;
},
{
color = 4;
glyphname = "Iu-cy";
layers = (
{
layerId = "C9B29665-C437-4A1D-A258-6E2E4B235112";
name = Light;
paths = (
{
closed = 1;
nodes = (
"464 716 OFFCURVE",
"356 518 OFFCURVE",
"356 350 CURVE SMOOTH",
"356 176 OFFCURVE",
"454 -16 OFFCURVE",
"683 -16 CURVE SMOOTH",
"919 -16 OFFCURVE",
"1031 184 OFFCURVE",
"1031 350 CURVE SMOOTH",
"1031 517 OFFCURVE",
"919 716 OFFCURVE",
"675 716 CURVE SMOOTH"
);
},
{
closed = 1;
nodes = (
"55 700 LINE",
"55 656 LINE",
"127 660 LINE",
"125 640 OFFCURVE",
"124 615 OFFCURVE",
"124 588 CURVE SMOOTH",
"124 156 LINE SMOOTH",
"124 85 OFFCURVE",
"130 36 OFFCURVE",
"55 33 CURVE",
"55 0 LINE",
"280 0 LINE",
"280 44 LINE",
"208 40 LINE",
"210 57 OFFCURVE",
"211 83 OFFCURVE",
"211 119 CURVE SMOOTH",
"211 334 LINE",
"388 338 LINE",
"388 378 LINE",
"211 378 LINE",
"211 544 LINE SMOOTH",
"211 615 OFFCURVE",
"205 664 OFFCURVE",
"280 667 CURVE",
"280 700 LINE"
);
},
{
closed = 1;
nodes = (
"838 676 OFFCURVE",
"931 495 OFFCURVE",
"931 331 CURVE SMOOTH",
"931 184 OFFCURVE",
"849 25 OFFCURVE",
"685 25 CURVE SMOOTH",
"531 25 OFFCURVE",
"455 220 OFFCURVE",
"455 368 CURVE SMOOTH",
"455 516 OFFCURVE",
"531 676 OFFCURVE",
"672 676 CURVE SMOOTH"
);
}
);
width = 1075;
}
);
leftMetricsKey = H;
rightMetricsKey = O;
unicode = 042E;
userData = {
public.markColor = "0.67,0.95,0.38,1";
};
},
{
color = 4;
glyphname = "Dje-cy";
lastChange = "2016-08-19 12:25:34 +0000";
layers = (
{
layerId = "C9B29665-C437-4A1D-A258-6E2E4B235112";
leftMetricsKey = T;
name = Light;
paths = (
{
closed = 1;
nodes = (
"28 700 LINE",
"22 489 LINE",
"59 489 LINE",
"59 607 OFFCURVE",
"90 662 OFFCURVE",
"174 662 CURVE SMOOTH",
"277 663 LINE",
"276 156 LINE SMOOTH",
"276 88 OFFCURVE",
"283 36 OFFCURVE",
"208 33 CURVE",
"208 0 LINE",
"418 0 LINE",
"418 44 LINE",
"360 40 LINE",
"362 57 OFFCURVE",
"363 83 OFFCURVE",
"363 119 CURVE SMOOTH",
"364 664 LINE",
"449 664 LINE SMOOTH",
"552 665 OFFCURVE",
"577 607 OFFCURVE",
"579 489 CURVE",
"617 489 LINE",
"611 700 LINE"
);
},
{
closed = 1;
nodes = (
"725 353 OFFCURVE",
"660 427 OFFCURVE",
"518 427 CURVE SMOOTH",
"457 427 OFFCURVE",
"385 412 OFFCURVE",
"343 389 CURVE",
"343 343 LINE",
"376 364 OFFCURVE",
"432 379 OFFCURVE",
"484 379 CURVE SMOOTH",
"584 379 OFFCURVE",
"642 332 OFFCURVE",
"642 210 CURVE SMOOTH",
"642 80 OFFCURVE",
"604 25 OFFCURVE",
"583 25 CURVE SMOOTH",
"577 25 OFFCURVE",
"572 27 OFFCURVE",
"569 30 CURVE",
"573 39 OFFCURVE",
"575 45 OFFCURVE",
"575 55 CURVE SMOOTH",
"575 71 OFFCURVE",
"564 98 OFFCURVE",
"526 98 CURVE SMOOTH",
"499 98 OFFCURVE",
"478 78 OFFCURVE",
"478 44 CURVE SMOOTH",
"478 6 OFFCURVE",
"510 -16 OFFCURVE",
"552 -16 CURVE SMOOTH",
"651 -16 OFFCURVE",
"725 94 OFFCURVE",
"725 218 CURVE SMOOTH"
);
}
);
width = 767;
}
);
leftMetricsKey = T;
unicode = 0402;
},
{
color = 1;
glyphname = "Yat-cy";
layers = (
{
anchors = (
{
name = bottom;
position = "{1014, 0}";
},
{
name = center;
position = "{1013, 350}";
},
{
name = top;
position = "{1013, 700}";
}
);
layerId = "C9B29665-C437-4A1D-A258-6E2E4B235112";
rightMetricsKey = "=be";
name = Light;
paths = (
{
closed = 1;
nodes = (
"6 612 LINE",
"0 451 LINE",
"37 451 LINE",
"37 549 OFFCURVE",
"68 574 OFFCURVE",
"152 574 CURVE",
"372 576 LINE",
"475 577 OFFCURVE",
"501 549 OFFCURVE",
"503 451 CURVE",
"540 451 LINE",
"534 612 LINE"
);
},
{
closed = 1;
nodes = (
"133 739 LINE",
"133 695 LINE",
"205 699 LINE",
"203 679 OFFCURVE",
"202 654 OFFCURVE",
"202 627 CURVE SMOOTH",
"202 156 LINE SMOOTH",
"202 84 OFFCURVE",
"207 35 OFFCURVE",
"133 33 CURVE",
"133 0 LINE",
"425 0 LINE SMOOTH",
"560 0 OFFCURVE",
"661 73 OFFCURVE",
"661 213 CURVE SMOOTH",
"661 331 OFFCURVE",
"590 416 OFFCURVE",
"370 410 CURVE SMOOTH",
"289 407 LINE",
"289 583 LINE SMOOTH",
"289 654 OFFCURVE",
"283 703 OFFCURVE",
"358 706 CURVE",
"358 739 LINE"
);
},
{
closed = 1;
nodes = (
"483 372 OFFCURVE",
"564 336 OFFCURVE",
"564 209 CURVE SMOOTH",
"564 90 OFFCURVE",
"495 38 OFFCURVE",
"392 38 CURVE SMOOTH",
"379 38 OFFCURVE",
"317 37 OFFCURVE",
"286 40 CURVE",
"288 57 OFFCURVE",
"289 82 OFFCURVE",
"289 118 CURVE SMOOTH",
"289 369 LINE",
"321 371 OFFCURVE",
"352 372 OFFCURVE",
"392 372 CURVE SMOOTH"
);
}
);
width = 721;
}
);
rightMetricsKey = be;
unicode = 0462;
},
{
color = 1;
glyphname = "Yusbig-cy";
lastChange = "2016-08-19 12:24:57 +0000";
layers = (
{
anchors = (
{
name = top;
position = "{477, 700}";
}
);
background = {
paths = (
{
closed = 1;
nodes = (
"672 364 OFFCURVE",
"635 376 OFFCURVE",
"585 380 CURVE SMOOTH",
"524 380 LINE",
"510 380 LINE",
"487 363 LINE",
"449 380 LINE",
"423 380 LINE",
"348 380 LINE SMOOTH",
"293 380 OFFCURVE",
"261 366 OFFCURVE",
"214 291 CURVE SMOOTH",
"128 149 LINE SMOOTH",
"68 52 OFFCURVE",
"33 33 OFFCURVE",
"-10 33 CURVE",
"-10 0 LINE",
"97 0 LINE SMOOTH",
"117 0 OFFCURVE",
"162 34 OFFCURVE",
"200 98 CURVE SMOOTH",
"298 260 LINE SMOOTH",
"317 291 OFFCURVE",
"333 317 OFFCURVE",
"363 341 CURVE",
"423 340 LINE",
"423 156 LINE SMOOTH",
"423 85 OFFCURVE",
"429 36 OFFCURVE",
"354 33 CURVE",
"354 0 LINE",
"579 0 LINE",
"579 44 LINE",
"506 40 LINE",
"509 57 OFFCURVE",
"510 83 OFFCURVE",
"510 119 CURVE SMOOTH",
"510 340 LINE",
"569 341 LINE",
"600 317 OFFCURVE",
"615 291 OFFCURVE",
"634 260 CURVE SMOOTH",
"734 98 LINE SMOOTH",
"774 35 OFFCURVE",
"820 0 OFFCURVE",
"840 0 CURVE SMOOTH",
"943 0 LINE",
"943 33 LINE",
"900 33 OFFCURVE",
"865 52 OFFCURVE",
"805 149 CURVE SMOOTH",
"718 291 LINE SMOOTH"
);
},
{
closed = 1;
nodes = (
"145 700 LINE",
"145 636 LINE",
"796 647 LINE",
"796 700 LINE"
);
},
{
closed = 1;
nodes = (
"568 416 OFFCURVE",
"598 471 OFFCURVE",
"646 538 CURVE SMOOTH",
"707 624 OFFCURVE",
"730 643 OFFCURVE",
"796 647 CURVE",
"795 700 LINE",
"591 700 LINE",
"591 656 LINE",
"667 645 LINE",
"647 625 OFFCURVE",
"636 606 OFFCURVE",
"621 581 CURVE SMOOTH",
"568 493 OFFCURVE",
"543 451 OFFCURVE",
"494 372 CURVE",
"492 372 LINE",
"435 436 OFFCURVE",
"398 494 OFFCURVE",
"350 558 CURVE SMOOTH",
"302 622 OFFCURVE",
"318 640 OFFCURVE",
"363 640 CURVE",
"403 700 LINE",
"145 700 LINE",
"145 656 LINE",
"211 637 LINE",
"216 612 OFFCURVE",
"234 579 OFFCURVE",
"261 545 CURVE SMOOTH",
"445 310 LINE",
"467 320 OFFCURVE",
"533 353 OFFCURVE",
"529 354 CURVE"
);
}
);
};
layerId = "C9B29665-C437-4A1D-A258-6E2E4B235112";
name = Light;
paths = (
{
closed = 1;
nodes = (
"672 364 OFFCURVE",
"635 376 OFFCURVE",
"585 380 CURVE SMOOTH",
"524 380 LINE",
"510 380 LINE",
"487 363 LINE",
"449 380 LINE",
"423 380 LINE",
"348 380 LINE SMOOTH",
"293 380 OFFCURVE",
"261 366 OFFCURVE",
"214 291 CURVE SMOOTH",
"128 149 LINE SMOOTH",
"68 52 OFFCURVE",
"33 33 OFFCURVE",
"-10 33 CURVE",
"-10 0 LINE",
"97 0 LINE SMOOTH",
"117 0 OFFCURVE",
"162 34 OFFCURVE",
"200 98 CURVE SMOOTH",
"298 260 LINE SMOOTH",
"317 291 OFFCURVE",
"333 317 OFFCURVE",
"363 341 CURVE",
"423 340 LINE",
"423 156 LINE SMOOTH",
"423 85 OFFCURVE",
"429 36 OFFCURVE",
"354 33 CURVE",
"354 0 LINE",
"579 0 LINE",
"579 44 LINE",
"506 40 LINE",
"509 57 OFFCURVE",
"510 83 OFFCURVE",
"510 119 CURVE SMOOTH",
"510 340 LINE",
"569 341 LINE",
"600 317 OFFCURVE",
"615 291 OFFCURVE",
"634 260 CURVE SMOOTH",
"734 98 LINE SMOOTH",
"774 35 OFFCURVE",
"820 0 OFFCURVE",
"840 0 CURVE SMOOTH",
"943 0 LINE",
"943 33 LINE",
"900 33 OFFCURVE",
"865 52 OFFCURVE",
"805 149 CURVE SMOOTH",
"718 291 LINE SMOOTH"
);
},
{
closed = 1;
nodes = (
"142 700 LINE",
"142 636 LINE",
"796 647 LINE",
"796 700 LINE"
);
},
{
closed = 1;
nodes = (
"568 416 OFFCURVE",
"602 471 OFFCURVE",
"646 538 CURVE SMOOTH",
"704 627 OFFCURVE",
"741 645 OFFCURVE",
"782 647 CURVE",
"795 700 LINE",
"591 700 LINE",
"591 656 LINE",
"667 645 LINE",
"647 625 OFFCURVE",
"636 606 OFFCURVE",
"621 581 CURVE SMOOTH",
"568 493 OFFCURVE",
"543 451 OFFCURVE",
"494 372 CURVE",
"492 372 LINE",
"435 436 OFFCURVE",
"398 494 OFFCURVE",
"350 558 CURVE SMOOTH",
"302 622 OFFCURVE",
"318 640 OFFCURVE",
"363 640 CURVE",
"403 700 LINE",
"142 700 LINE",
"142 656 LINE",
"206 637 LINE",
"214 612 OFFCURVE",
"236 579 OFFCURVE",
"262 545 CURVE SMOOTH",
"408 358 LINE",
"491 305 OFFCURVE",
"486 354 OFFCURVE",
"529 354 CURVE"
);
}
);
width = 933;
}
);
unicode = 046A;
},
{
color = 1;
glyphname = "Fita-cy";
layers = (
{
components = (
{
name = O;
transform = "{1, 0, 0, 1, 0, 0}";
}
);
layerId = "C9B29665-C437-4A1D-A258-6E2E4B235112";
name = Light;
paths = (
{
closed = 1;
nodes = (
"659 378 LINE",
"131 378 LINE",
"131 334 LINE",
"659 338 LINE"
);
}
);
width = 794;
}
);
unicode = 0472;
},
{
color = 1;
glyphname = "Izhitsa-cy";
lastChange = "2016-08-19 12:24:18 +0000";
layers = (
{
background = {
paths = (
{
closed = 1;
nodes = (
"555 724 OFFCURVE",
"489 536 OFFCURVE",
"457 451 CURVE SMOOTH",
"418 342 OFFCURVE",
"372 203 OFFCURVE",
"355 132 CURVE",
"353 132 LINE",
"337 177 OFFCURVE",
"304 250 OFFCURVE",
"272 325 CURVE SMOOTH",
"236 410 OFFCURVE",
"209 479 OFFCURVE",
"177 558 CURVE SMOOTH",
"168 580 OFFCURVE",
"163 599 OFFCURVE",
"163 615 CURVE SMOOTH",
"163 646 OFFCURVE",
"182 663 OFFCURVE",
"227 666 CURVE",
"228 667 LINE",
"228 700 LINE",
"-4 700 LINE",
"-4 656 LINE",
"52 658 LINE",
"56 628 OFFCURVE",
"66 590 OFFCURVE",
"95 522 CURVE SMOOTH",
"322 -10 LINE",
"350 -10 LINE",
"521 491 OFFCURVE",
"512 493 OFFCURVE",
"550 566 CURVE SMOOTH",
"590 642 OFFCURVE",
"624 676 OFFCURVE",
"644 676 CURVE",
"651 675 OFFCURVE",
"655 673 OFFCURVE",
"659 666 CURVE",
"650 659 OFFCURVE",
"648 653 OFFCURVE",
"646 640 CURVE SMOOTH",
"643 621 OFFCURVE",
"654 593 OFFCURVE",
"687 590 CURVE",
"720 585 OFFCURVE",
"739 613 OFFCURVE",
"739 645 CURVE SMOOTH",
"739 683 OFFCURVE",
"707 708 OFFCURVE",
"663 715 CURVE SMOOTH"
);
}
);
};
guideLines = (
{
position = "{551, 716}";
}
);
layerId = "C9B29665-C437-4A1D-A258-6E2E4B235112";
name = Light;
paths = (
{
closed = 1;
nodes = (
"570 716 OFFCURVE",
"514 594 OFFCURVE",
"479 499 CURVE SMOOTH",
"430 365 OFFCURVE",
"414 321 OFFCURVE",
"355 132 CURVE",
"353 132 LINE",
"337 177 OFFCURVE",
"304 250 OFFCURVE",
"272 325 CURVE SMOOTH",
"236 410 OFFCURVE",
"209 479 OFFCURVE",
"177 558 CURVE SMOOTH",
"168 580 OFFCURVE",
"163 599 OFFCURVE",
"163 615 CURVE SMOOTH",
"163 646 OFFCURVE",
"182 663 OFFCURVE",
"227 666 CURVE",
"228 667 LINE",
"228 700 LINE",
"-4 700 LINE",
"-4 656 LINE",
"52 658 LINE",
"56 628 OFFCURVE",
"66 590 OFFCURVE",
"95 522 CURVE SMOOTH",
"322 -10 LINE",
"350 -10 LINE",
"442 259 OFFCURVE",
"486 384 OFFCURVE",
"511 454 CURVE SMOOTH",
"539 531 OFFCURVE",
"601 677 OFFCURVE",
"643 677 CURVE SMOOTH",
"650 677 OFFCURVE",
"655 674 OFFCURVE",
"659 667 CURVE",
"650 662 OFFCURVE",
"646 647 OFFCURVE",
"646 636 CURVE SMOOTH",
"646 617 OFFCURVE",
"656 590 OFFCURVE",
"696 590 CURVE SMOOTH",
"723 591 OFFCURVE",
"739 617 OFFCURVE",
"739 646 CURVE SMOOTH",
"739 687 OFFCURVE",
"698 716 OFFCURVE",
"661 716 CURVE SMOOTH"
);
}
);
width = 739;
}
);
unicode = 0474;
},
{
color = 1;
glyphname = "Ghestroke-cy";
lastChange = "2016-08-22 09:02:51 +0000";
layers = (
{
components = (
{
name = "Ge-cy";
transform = "{1, 0, 0, 1, 0, 0}";
}
);
layerId = "C9B29665-C437-4A1D-A258-6E2E4B235112";
name = Light;
paths = (
{
closed = 1;
nodes = (
"26 327 LINE",
"384 331 LINE",
"384 371 LINE",
"26 371 LINE"
);
}
);
width = 548;
}
);
unicode = 0492;
},
{
color = 1;
glyphname = "Ghemiddlehook-cy";
lastChange = "2016-08-19 12:47:47 +0000";
layers = (
{
background = {
paths = (
{
closed = 1;
nodes = (
"294 427 OFFCURVE",
"232 412 OFFCURVE",
"190 389 CURVE",
"190 340 LINE",
"223 361 OFFCURVE",
"269 376 OFFCURVE",
"321 376 CURVE SMOOTH",
"453 376 OFFCURVE",
"479 272 OFFCURVE",
"479 149 CURVE SMOOTH",
"479 -99 OFFCURVE",
"401 -160 OFFCURVE",
"370 -160 CURVE SMOOTH",
"364 -160 OFFCURVE",
"359 -158 OFFCURVE",
"356 -155 CURVE",
"360 -146 OFFCURVE",
"362 -140 OFFCURVE",
"362 -130 CURVE SMOOTH",
"362 -114 OFFCURVE",
"351 -87 OFFCURVE",
"313 -87 CURVE SMOOTH",
"286 -87 OFFCURVE",
"265 -107 OFFCURVE",
"265 -141 CURVE SMOOTH",
"265 -179 OFFCURVE",
"297 -201 OFFCURVE",
"339 -201 CURVE SMOOTH",
"453 -201 OFFCURVE",
"562 -48 OFFCURVE",
"562 157 CURVE SMOOTH",
"562 291 OFFCURVE",
"536 427 OFFCURVE",
"355 427 CURVE SMOOTH"
);
}
);
};
components = (
{
name = "Ge-cy";
transform = "{1, 0, 0, 1, 0, 0}";
}
);
guideLines = (
{
position = "{410, -271}";
}
);
layerId = "C9B29665-C437-4A1D-A258-6E2E4B235112";
leftMetricsKey = H;
rightMetricsKey = "Dje-cy";
name = Light;
paths = (
{
closed = 1;
nodes = (
"291 407 OFFCURVE",
"226 392 OFFCURVE",
"187 369 CURVE",
"187 322 LINE",
"217 343 OFFCURVE",
"260 358 OFFCURVE",
"308 358 CURVE SMOOTH",
"472 358 OFFCURVE",
"504 212 OFFCURVE",
"504 89 CURVE SMOOTH",
"504 -171 OFFCURVE",
"378 -230 OFFCURVE",
"310 -230 CURVE SMOOTH",
"304 -230 OFFCURVE",
"299 -228 OFFCURVE",
"296 -225 CURVE",
"300 -216 OFFCURVE",
"302 -210 OFFCURVE",
"302 -200 CURVE SMOOTH",
"302 -184 OFFCURVE",
"291 -157 OFFCURVE",
"253 -157 CURVE SMOOTH",
"226 -157 OFFCURVE",
"205 -177 OFFCURVE",
"205 -211 CURVE SMOOTH",
"205 -249 OFFCURVE",
"239 -271 OFFCURVE",
"291 -271 CURVE SMOOTH",
"473 -271 OFFCURVE",
"592 -114 OFFCURVE",
"592 97 CURVE SMOOTH",
"592 231 OFFCURVE",
"559 407 OFFCURVE",
"342 407 CURVE SMOOTH"
);
}
);
width = 634;
}
);
leftMetricsKey = H;
rightMetricsKey = "Dje-cy";
unicode = 0494;
},
{
color = 1;
glyphname = "Zhedescender-cy";
layers = (
{
anchors = (
{
name = bottomright;
position = "{0, 0}";
},
{
name = top;
position = "{480, 700}";
}
);
background = {
anchors = (
{
name = top;
position = "{480, 700}";
},
{
name = bottomright;
position = "{0, 0}";
}
);
paths = (
{
closed = 1;
nodes = (
"953 43 LINE",
"890 40 LINE",
"861 0 LINE",
"927 0 OFFCURVE",
"941 -78 OFFCURVE",
"941 -178 CURVE",
"982 -178 LINE",
"982 45 LINE"
);
},
{
closed = 1;
nodes = (
"733 291 LINE SMOOTH",
"708 331 OFFCURVE",
"688 353 OFFCURVE",
"650 376 CURVE",
"741 532 LINE SMOOTH",
"805 644 OFFCURVE",
"856 660 OFFCURVE",
"940 667 CURVE",
"940 700 LINE",
"725 700 LINE",
"725 659 LINE",
"786 661 LINE",
"758 639 OFFCURVE",
"730 604 OFFCURVE",
"715 577 CURVE SMOOTH",
"600 380 LINE",
"525 380 LINE",
"525 544 LINE SMOOTH",
"525 615 OFFCURVE",
"519 664 OFFCURVE",
"594 667 CURVE",
"594 700 LINE",
"369 700 LINE",
"369 656 LINE",
"441 660 LINE",
"438 640 OFFCURVE",
"438 615 OFFCURVE",
"438 588 CURVE SMOOTH",
"438 380 LINE",
"363 380 LINE",
"248 577 LINE SMOOTH",
"232 604 OFFCURVE",
"204 639 OFFCURVE",
"176 661 CURVE",
"237 659 LINE",
"237 700 LINE",
"22 700 LINE",
"22 667 LINE",
"106 660 OFFCURVE",
"157 644 OFFCURVE",
"222 532 CURVE SMOOTH",
"313 376 LINE",
"275 353 OFFCURVE",
"254 331 OFFCURVE",
"229 291 CURVE SMOOTH",
"143 149 LINE SMOOTH",
"83 52 OFFCURVE",
"48 33 OFFCURVE",
"5 33 CURVE",
"5 0 LINE",
"112 0 LINE SMOOTH",
"132 0 OFFCURVE",
"177 34 OFFCURVE",
"215 98 CURVE SMOOTH",
"313 260 LINE SMOOTH",
"332 291 OFFCURVE",
"348 317 OFFCURVE",
"378 341 CURVE",
"438 340 LINE",
"438 156 LINE SMOOTH",
"438 85 OFFCURVE",
"444 36 OFFCURVE",
"369 33 CURVE",
"369 0 LINE",
"594 0 LINE",
"594 44 LINE",
"521 40 LINE",
"524 57 OFFCURVE",
"525 83 OFFCURVE",
"525 119 CURVE SMOOTH",
"525 340 LINE",
"584 341 LINE",
"615 317 OFFCURVE",
"630 291 OFFCURVE",
"649 260 CURVE SMOOTH",
"749 98 LINE SMOOTH",
"789 35 OFFCURVE",
"835 0 OFFCURVE",
"855 0 CURVE SMOOTH",
"958 0 LINE",
"958 33 LINE",
"915 33 OFFCURVE",
"880 52 OFFCURVE",
"820 149 CURVE SMOOTH"
);
}
);
};
layerId = "C9B29665-C437-4A1D-A258-6E2E4B235112";
name = Light;
paths = (
{
closed = 1;
nodes = (
"954 43 LINE",
"913 43 OFFCURVE",
"904 46 OFFCURVE",
"876 73 CURVE SMOOTH",
"857 92 OFFCURVE",
"841 115 OFFCURVE",
"820 149 CURVE SMOOTH",
"733 291 LINE SMOOTH",
"708 331 OFFCURVE",
"688 353 OFFCURVE",
"650 376 CURVE",
"741 532 LINE SMOOTH",
"805 644 OFFCURVE",
"856 660 OFFCURVE",
"940 667 CURVE",
"940 700 LINE",
"725 700 LINE",
"725 659 LINE",
"786 661 LINE",
"758 639 OFFCURVE",
"730 604 OFFCURVE",
"715 577 CURVE SMOOTH",
"600 380 LINE",
"525 380 LINE",
"525 544 LINE SMOOTH",
"525 615 OFFCURVE",
"519 664 OFFCURVE",
"594 667 CURVE",
"594 700 LINE",
"369 700 LINE",
"369 656 LINE",
"441 660 LINE",
"438 640 OFFCURVE",
"438 615 OFFCURVE",
"438 588 CURVE SMOOTH",
"438 380 LINE",
"363 380 LINE",
"248 577 LINE SMOOTH",
"232 604 OFFCURVE",
"204 639 OFFCURVE",
"176 661 CURVE",
"237 659 LINE",
"237 700 LINE",
"22 700 LINE",
"22 667 LINE",
"106 660 OFFCURVE",
"157 644 OFFCURVE",
"222 532 CURVE SMOOTH",
"313 376 LINE",
"275 353 OFFCURVE",
"254 331 OFFCURVE",
"229 291 CURVE SMOOTH",
"143 149 LINE SMOOTH",
"83 52 OFFCURVE",
"48 33 OFFCURVE",
"5 33 CURVE",
"5 0 LINE",
"112 0 LINE SMOOTH",
"132 0 OFFCURVE",
"177 34 OFFCURVE",
"215 98 CURVE SMOOTH",
"313 260 LINE SMOOTH",
"332 291 OFFCURVE",
"348 317 OFFCURVE",
"378 341 CURVE",
"438 340 LINE",
"438 156 LINE SMOOTH",
"438 85 OFFCURVE",
"444 36 OFFCURVE",
"369 33 CURVE",
"369 0 LINE",
"594 0 LINE",
"594 44 LINE",
"521 40 LINE",
"524 57 OFFCURVE",
"525 83 OFFCURVE",
"525 119 CURVE SMOOTH",
"525 340 LINE",
"584 341 LINE",
"615 317 OFFCURVE",
"630 291 OFFCURVE",
"649 260 CURVE SMOOTH",
"749 98 LINE SMOOTH",
"801 15 OFFCURVE",
"840 6 OFFCURVE",
"881 -4 CURVE SMOOTH",
"930 -16 OFFCURVE",
"942 -89 OFFCURVE",
"942 -178 CURVE",
"983 -178 LINE",
"983 44 LINE"
);
}
);
width = 962;
}
);
unicode = 0496;
},
{
color = 1;
glyphname = "Zedescender-cy";
layers = (
{
components = (
{
name = "Ze-cy";
transform = "{1, 0, 0, 1, 0, 0}";
}
);
layerId = "C9B29665-C437-4A1D-A258-6E2E4B235112";
name = Light;
paths = (
{
closed = 1;
nodes = (
"280 -1 LINE",
"280 -186 LINE SMOOTH",
"344 -186 LINE",
"333 0 LINE"
);
}
);
width = 613;
}
);
unicode = 0498;
},
{
color = 1;
glyphname = "Kadescender-cy";
layers = (
{
anchors = (
{
name = bottom;
position = "{378, 0}";
},
{
name = top;
position = "{347, 700}";
}
);
background = {
paths = (
{
closed = 1;
nodes = (
"421 700 LINE",
"421 659 LINE",
"482 661 LINE",
"455 639 OFFCURVE",
"428 603 OFFCURVE",
"411 577 CURVE SMOOTH",
"286 380 LINE",
"211 380 LINE",
"211 544 LINE SMOOTH",
"211 615 OFFCURVE",
"205 664 OFFCURVE",
"280 667 CURVE",
"280 700 LINE",
"55 700 LINE",
"55 656 LINE",
"127 660 LINE",
"125 640 OFFCURVE",
"124 615 OFFCURVE",
"124 588 CURVE SMOOTH",
"124 156 LINE SMOOTH",
"124 85 OFFCURVE",
"130 36 OFFCURVE",
"55 33 CURVE",
"55 0 LINE",
"280 0 LINE",
"280 44 LINE",
"208 40 LINE",
"210 57 OFFCURVE",
"211 83 OFFCURVE",
"211 119 CURVE SMOOTH",
"211 340 LINE",
"260 341 LINE",
"284 326 OFFCURVE",
"310 293 OFFCURVE",
"335 260 CURVE SMOOTH",
"455 98 LINE SMOOTH",
"494 47 OFFCURVE",
"536 0 OFFCURVE",
"556 0 CURVE SMOOTH",
"678 0 LINE",
"678 33 LINE",
"635 33 OFFCURVE",
"607 41 OFFCURVE",
"531 142 CURVE SMOOTH",
"419 291 LINE SMOOTH",
"395 322 OFFCURVE",
"374 353 OFFCURVE",
"336 376 CURVE",
"434 532 LINE SMOOTH",
"502 641 OFFCURVE",
"552 660 OFFCURVE",
"636 667 CURVE",
"636 700 LINE"
);
},
{
closed = 1;
nodes = (
"694 45 LINE",
"602 40 LINE",
"573 0 LINE",
"639 0 OFFCURVE",
"653 -78 OFFCURVE",
"653 -178 CURVE",
"694 -178 LINE"
);
}
);
};
layerId = "C9B29665-C437-4A1D-A258-6E2E4B235112";
name = Light;
paths = (
{
closed = 1;
nodes = (
"611 40 OFFCURVE",
"602 48 OFFCURVE",
"531 142 CURVE SMOOTH",
"419 291 LINE SMOOTH",
"395 322 OFFCURVE",
"374 353 OFFCURVE",
"336 376 CURVE",
"434 532 LINE SMOOTH",
"502 641 OFFCURVE",
"552 660 OFFCURVE",
"636 667 CURVE",
"636 700 LINE",
"421 700 LINE",
"421 659 LINE",
"482 661 LINE",
"455 639 OFFCURVE",
"428 603 OFFCURVE",
"411 577 CURVE SMOOTH",
"286 380 LINE",
"211 380 LINE",
"211 544 LINE SMOOTH",
"211 615 OFFCURVE",
"205 664 OFFCURVE",
"280 667 CURVE",
"280 700 LINE",
"55 700 LINE",
"55 656 LINE",
"127 660 LINE",
"125 640 OFFCURVE",
"124 615 OFFCURVE",
"124 588 CURVE SMOOTH",
"124 156 LINE SMOOTH",
"124 85 OFFCURVE",
"130 36 OFFCURVE",
"55 33 CURVE",
"55 0 LINE",
"280 0 LINE",
"280 44 LINE",
"208 40 LINE",
"210 57 OFFCURVE",
"211 83 OFFCURVE",
"211 119 CURVE SMOOTH",
"211 340 LINE",
"260 341 LINE",
"284 326 OFFCURVE",
"310 293 OFFCURVE",
"335 260 CURVE SMOOTH",
"455 98 LINE SMOOTH",
"500 39 OFFCURVE",
"526 5 OFFCURVE",
"573 0 CURVE SMOOTH",
"640 -7 OFFCURVE",
"650 -80 OFFCURVE",
"650 -178 CURVE",
"691 -178 LINE",
"691 44 LINE"
);
}
);
width = 683;
}
);
unicode = 049A;
},
{
color = 1;
glyphname = "Kaverticalstroke-cy";
layers = (
{
anchors = (
{
name = bottom;
position = "{378, 0}";
},
{
name = top;
position = "{347, 700}";
}
);
background = {
paths = (
{
closed = 1;
nodes = (
"421 700 LINE",
"421 659 LINE",
"482 661 LINE",
"455 639 OFFCURVE",
"428 603 OFFCURVE",
"411 577 CURVE SMOOTH",
"286 380 LINE",
"211 380 LINE",
"211 544 LINE SMOOTH",
"211 615 OFFCURVE",
"205 664 OFFCURVE",
"280 667 CURVE",
"280 700 LINE",
"55 700 LINE",
"55 656 LINE",
"127 660 LINE",
"125 640 OFFCURVE",
"124 615 OFFCURVE",
"124 588 CURVE SMOOTH",
"124 156 LINE SMOOTH",
"124 85 OFFCURVE",
"130 36 OFFCURVE",
"55 33 CURVE",
"55 0 LINE",
"280 0 LINE",
"280 44 LINE",
"208 40 LINE",
"210 57 OFFCURVE",
"211 83 OFFCURVE",
"211 119 CURVE SMOOTH",
"211 340 LINE",
"260 341 LINE",
"284 326 OFFCURVE",
"310 293 OFFCURVE",
"335 260 CURVE SMOOTH",
"455 98 LINE SMOOTH",
"494 47 OFFCURVE",
"536 0 OFFCURVE",
"556 0 CURVE SMOOTH",
"678 0 LINE",
"678 33 LINE",
"635 33 OFFCURVE",
"607 41 OFFCURVE",
"531 142 CURVE SMOOTH",
"419 291 LINE SMOOTH",
"395 322 OFFCURVE",
"374 353 OFFCURVE",
"336 376 CURVE",
"434 532 LINE SMOOTH",
"502 641 OFFCURVE",
"552 660 OFFCURVE",
"636 667 CURVE",
"636 700 LINE"
);
}
);
};
components = (
{
name = "verticalbar-cy.case";
transform = "{1, 0, 0, 1, 209, 50}";
}
);
layerId = "C9B29665-C437-4A1D-A258-6E2E4B235112";
name = Light;
paths = (
{
closed = 1;
nodes = (
"451 700 LINE",
"451 659 LINE",
"512 661 LINE",
"485 639 OFFCURVE",
"458 603 OFFCURVE",
"441 577 CURVE SMOOTH",
"316 380 LINE",
"211 380 LINE",
"211 544 LINE SMOOTH",
"211 615 OFFCURVE",
"205 664 OFFCURVE",
"280 667 CURVE",
"280 700 LINE",
"55 700 LINE",
"55 656 LINE",
"127 660 LINE",
"125 640 OFFCURVE",
"124 615 OFFCURVE",
"124 588 CURVE SMOOTH",
"124 156 LINE SMOOTH",
"124 85 OFFCURVE",
"130 36 OFFCURVE",
"55 33 CURVE",
"55 0 LINE",
"280 0 LINE",
"280 44 LINE",
"208 40 LINE",
"210 57 OFFCURVE",
"211 83 OFFCURVE",
"211 119 CURVE SMOOTH",
"211 340 LINE",
"290 341 LINE",
"314 326 OFFCURVE",
"340 293 OFFCURVE",
"365 260 CURVE SMOOTH",
"485 98 LINE SMOOTH",
"524 47 OFFCURVE",
"566 0 OFFCURVE",
"586 0 CURVE SMOOTH",
"708 0 LINE",
"708 33 LINE",
"665 33 OFFCURVE",
"637 41 OFFCURVE",
"561 142 CURVE SMOOTH",
"449 291 LINE SMOOTH",
"425 322 OFFCURVE",
"404 353 OFFCURVE",
"366 376 CURVE",
"464 532 LINE SMOOTH",
"532 641 OFFCURVE",
"582 660 OFFCURVE",
"666 667 CURVE",
"666 700 LINE"
);
}
);
width = 683;
}
);
unicode = 049C;
},
{
color = 1;
glyphname = "Kastroke-cy";
lastChange = "2016-08-19 11:25:05 +0000";
layers = (
{
components = (
{
name = K;
transform = "{1, 0, 0, 1, 0, 0}";
}
);
layerId = "C9B29665-C437-4A1D-A258-6E2E4B235112";
leftMetricsKey = K;
rightMetricsKey = K;
name = Light;
paths = (
{
closed = 1;
nodes = (
"280 601 LINE",
"55 601 LINE",
"55 558 LINE",
"280 562 LINE"
);
}
);
width = 683;
}
);
leftMetricsKey = K;
rightMetricsKey = K;
unicode = 049E;
},
{
color = 1;
glyphname = "Kabashkir-cy";
layers = (
{
anchors = (
{
name = bottom;
position = "{495, 0}";
},
{
name = top;
position = "{464, 700}";
}
);
layerId = "C9B29665-C437-4A1D-A258-6E2E4B235112";
name = Light;
paths = (
{
closed = 1;
nodes = (
"28 700 LINE",
"22 489 LINE",
"59 489 LINE",
"59 607 OFFCURVE",
"90 659 OFFCURVE",
"174 659 CURVE SMOOTH",
"280 660 LINE",
"280 700 LINE"
);
},
{
closed = 1;
nodes = (
"538 700 LINE",
"538 659 LINE",
"599 661 LINE",
"572 639 OFFCURVE",
"545 603 OFFCURVE",
"528 577 CURVE SMOOTH",
"403 380 LINE",
"328 380 LINE",
"328 544 LINE SMOOTH",
"328 615 OFFCURVE",
"322 664 OFFCURVE",
"397 667 CURVE",
"397 700 LINE",
"172 700 LINE",
"244 660 LINE",
"242 640 OFFCURVE",
"241 615 OFFCURVE",
"241 588 CURVE SMOOTH",
"241 156 LINE SMOOTH",
"241 85 OFFCURVE",
"247 36 OFFCURVE",
"172 33 CURVE",
"172 0 LINE",
"397 0 LINE",
"397 44 LINE",
"325 40 LINE",
"327 57 OFFCURVE",
"328 83 OFFCURVE",
"328 119 CURVE SMOOTH",
"328 340 LINE",
"377 341 LINE",
"401 326 OFFCURVE",
"427 293 OFFCURVE",
"452 260 CURVE SMOOTH",
"572 98 LINE SMOOTH",
"611 47 OFFCURVE",
"653 0 OFFCURVE",
"673 0 CURVE SMOOTH",
"795 0 LINE",
"795 33 LINE",
"752 33 OFFCURVE",
"724 41 OFFCURVE",
"648 142 CURVE SMOOTH",
"536 291 LINE SMOOTH",
"512 322 OFFCURVE",
"491 353 OFFCURVE",
"453 376 CURVE",
"551 532 LINE SMOOTH",
"619 641 OFFCURVE",
"669 660 OFFCURVE",
"753 667 CURVE",
"753 700 LINE"
);
}
);
width = 800;
}
);
leftMetricsKey = "Te-cy";
rightMetricsKey = "Ka-cy";
unicode = 04A0;
},
{
color = 1;
glyphname = "Endescender-cy";
layers = (
{
anchors = (
{
name = center;
position = "{390, 350}";
},
{
name = top;
position = "{390, 700}";
}
);
layerId = "C9B29665-C437-4A1D-A258-6E2E4B235112";
name = Light;
paths = (
{
closed = 1;
nodes = (
"653 40 LINE",
"624 0 LINE",
"690 0 OFFCURVE",
"704 -78 OFFCURVE",
"704 -178 CURVE",
"745 -178 LINE",
"745 45 LINE"
);
},
{
closed = 1;
nodes = (
"500 700 LINE",
"500 656 LINE",
"572 660 LINE",
"570 640 OFFCURVE",
"569 615 OFFCURVE",
"569 588 CURVE SMOOTH",
"569 378 LINE",
"211 378 LINE",
"211 544 LINE SMOOTH",
"211 615 OFFCURVE",
"205 664 OFFCURVE",
"280 667 CURVE",
"280 700 LINE",
"55 700 LINE",
"55 656 LINE",
"127 660 LINE",
"125 640 OFFCURVE",
"124 615 OFFCURVE",
"124 588 CURVE SMOOTH",
"124 156 LINE SMOOTH",
"124 85 OFFCURVE",
"130 36 OFFCURVE",
"55 33 CURVE",
"55 0 LINE",
"280 0 LINE",
"280 44 LINE",
"208 40 LINE",
"210 57 OFFCURVE",
"211 83 OFFCURVE",
"211 119 CURVE SMOOTH",
"211 334 LINE",
"569 338 LINE",
"569 156 LINE SMOOTH",
"569 85 OFFCURVE",
"575 36 OFFCURVE",
"500 33 CURVE",
"500 0 LINE",
"725 0 LINE",
"725 34 LINE",
"653 40 LINE",
"655 57 OFFCURVE",
"656 83 OFFCURVE",
"656 119 CURVE SMOOTH",
"656 544 LINE SMOOTH",
"656 615 OFFCURVE",
"650 664 OFFCURVE",
"725 667 CURVE",
"725 700 LINE"
);
}
);
width = 780;
}
);
unicode = 04A2;
},
{
color = 1;
glyphname = "Pemiddlehook-cy";
lastChange = "2016-08-19 12:47:31 +0000";
layers = (
{
components = (
{
name = "Pe-cy";
transform = "{1, 0, 0, 1, 0, 0}";
}
);
layerId = "C9B29665-C437-4A1D-A258-6E2E4B235112";
leftMetricsKey = H;
name = Light;
paths = (
{
closed = 1;
nodes = (
"717 407 OFFCURVE",
"652 392 OFFCURVE",
"613 369 CURVE",
"613 322 LINE",
"643 343 OFFCURVE",
"686 358 OFFCURVE",
"734 358 CURVE SMOOTH",
"898 358 OFFCURVE",
"930 212 OFFCURVE",
"930 89 CURVE SMOOTH",
"930 -171 OFFCURVE",
"804 -230 OFFCURVE",
"736 -230 CURVE SMOOTH",
"730 -230 OFFCURVE",
"725 -228 OFFCURVE",
"722 -225 CURVE",
"726 -216 OFFCURVE",
"728 -210 OFFCURVE",
"728 -200 CURVE SMOOTH",
"728 -184 OFFCURVE",
"717 -157 OFFCURVE",
"679 -157 CURVE SMOOTH",
"652 -157 OFFCURVE",
"631 -177 OFFCURVE",
"631 -211 CURVE SMOOTH",
"631 -249 OFFCURVE",
"665 -271 OFFCURVE",
"717 -271 CURVE SMOOTH",
"899 -271 OFFCURVE",
"1018 -114 OFFCURVE",
"1018 97 CURVE SMOOTH",
"1018 231 OFFCURVE",
"985 407 OFFCURVE",
"768 407 CURVE SMOOTH"
);
}
);
width = 993;
}
);
leftMetricsKey = H;
unicode = 04A6;
},
{
color = 1;
glyphname = "Pedescender-cy";
layers = (
{
layerId = "C9B29665-C437-4A1D-A258-6E2E4B235112";
name = Light;
paths = (
{
closed = 1;
nodes = (
"634 40 LINE",
"605 0 LINE",
"671 0 OFFCURVE",
"685 -78 OFFCURVE",
"685 -178 CURVE",
"726 -178 LINE",
"726 45 LINE"
);
},
{
closed = 1;
nodes = (
"55 700 LINE",
"55 656 LINE",
"127 660 LINE",
"125 640 OFFCURVE",
"124 615 OFFCURVE",
"124 588 CURVE SMOOTH",
"124 156 LINE SMOOTH",
"124 85 OFFCURVE",
"130 36 OFFCURVE",
"55 33 CURVE",
"55 0 LINE",
"280 0 LINE",
"280 44 LINE",
"208 40 LINE",
"210 57 OFFCURVE",
"211 83 OFFCURVE",
"211 119 CURVE SMOOTH",
"211 656 LINE",
"550 661 LINE",
"550 156 LINE SMOOTH",
"550 85 OFFCURVE",
"556 36 OFFCURVE",
"480 33 CURVE",
"480 0 LINE",
"706 0 LINE",
"706 34 LINE",
"634 40 LINE",
"636 57 OFFCURVE",
"637 83 OFFCURVE",
"637 119 CURVE SMOOTH",
"637 544 LINE SMOOTH",
"637 615 OFFCURVE",
"631 664 OFFCURVE",
"706 667 CURVE",
"706 700 LINE"
);
},
{
closed = 1;
nodes = (
"172 690 LINE",
"172 565 LINE",
"211 534 LINE",
"211 605 OFFCURVE",
"205 654 OFFCURVE",
"280 657 CURVE",
"280 690 LINE"
);
}
);
width = 760;
}
);
unicode = 0524;
},
{
color = 1;
glyphname = "Haabkhasian-cy";
lastChange = "2016-08-19 17:57:13 +0000";
layers = (
{
anchors = (
{
name = top;
position = "{-511, 700}";
}
);
background = {
paths = (
{
closed = 1;
nodes = (
"720 -34 OFFCURVE",
"691 -46 OFFCURVE",
"650 -46 CURVE SMOOTH",
"427 -46 OFFCURVE",
"304 188 OFFCURVE",
"304 324 CURVE SMOOTH",
"304 508 OFFCURVE",
"432 566 OFFCURVE",
"514 566 CURVE SMOOTH",
"618 567 OFFCURVE",
"705 509 OFFCURVE",
"720 390 CURVE SMOOTH",
"739 234 OFFCURVE",
"628 -16 OFFCURVE",
"402 -16 CURVE SMOOTH",
"148 -16 OFFCURVE",
"46 176 OFFCURVE",
"46 350 CURVE SMOOTH",
"46 518 OFFCURVE",
"158 716 OFFCURVE",
"394 716 CURVE SMOOTH",
"458 716 OFFCURVE",
"510 702 OFFCURVE",
"556 678 CURVE",
"538 640 LINE",
"502 664 OFFCURVE",
"431 677 OFFCURVE",
"391 677 CURVE SMOOTH",
"226 677 OFFCURVE",
"145 516 OFFCURVE",
"145 368 CURVE SMOOTH",
"145 220 OFFCURVE",
"225 25 OFFCURVE",
"404 25 CURVE SMOOTH",
"584 25 OFFCURVE",
"622 230 OFFCURVE",
"622 367 CURVE SMOOTH",
"622 463 OFFCURVE",
"578 536 OFFCURVE",
"505 527 CURVE SMOOTH",
"446 520 OFFCURVE",
"403 465 OFFCURVE",
"403 366 CURVE SMOOTH",
"403 229 OFFCURVE",
"473 -2 OFFCURVE",
"651 -2 CURVE SMOOTH",
"681 -2 OFFCURVE",
"701 2 OFFCURVE",
"728 16 CURVE",
"743 -20 LINE"
);
}
);
};
guideLines = (
{
position = "{-404, 433}";
}
);
layerId = "C9B29665-C437-4A1D-A258-6E2E4B235112";
leftMetricsKey = O;
name = Light;
paths = (
{
closed = 1;
nodes = (
"710 -4 OFFCURVE",
"681 -16 OFFCURVE",
"640 -16 CURVE SMOOTH",
"407 -16 OFFCURVE",
"294 188 OFFCURVE",
"294 324 CURVE SMOOTH",
"294 508 OFFCURVE",
"422 565 OFFCURVE",
"504 566 CURVE SMOOTH",
"662 568 OFFCURVE",
"722 462 OFFCURVE",
"722 349 CURVE SMOOTH",
"722 213 OFFCURVE",
"618 -16 OFFCURVE",
"402 -16 CURVE SMOOTH",
"148 -16 OFFCURVE",
"46 166 OFFCURVE",
"46 335 CURVE SMOOTH",
"46 518 OFFCURVE",
"158 716 OFFCURVE",
"394 716 CURVE SMOOTH",
"448 716 OFFCURVE",
"510 702 OFFCURVE",
"556 676 CURVE",
"536 640 LINE",
"492 663 OFFCURVE",
"443 670 OFFCURVE",
"410 670 CURVE SMOOTH",
"262 670 OFFCURVE",
"145 575 OFFCURVE",
"145 353 CURVE SMOOTH",
"145 209 OFFCURVE",
"225 25 OFFCURVE",
"404 25 CURVE SMOOTH",
"584 25 OFFCURVE",
"622 230 OFFCURVE",
"622 367 CURVE SMOOTH",
"622 473 OFFCURVE",
"568 536 OFFCURVE",
"495 527 CURVE SMOOTH",
"436 520 OFFCURVE",
"393 465 OFFCURVE",
"393 366 CURVE SMOOTH",
"393 229 OFFCURVE",
"463 28 OFFCURVE",
"641 28 CURVE SMOOTH",
"671 28 OFFCURVE",
"691 32 OFFCURVE",
"718 46 CURVE",
"733 10 LINE"
);
}
);
width = 773;
}
);
leftMetricsKey = O;
unicode = 04A8;
},
{
color = 1;
glyphname = "Esdescender-cy";
layers = (
{
components = (
{
name = "Es-cy";
transform = "{1, 0, 0, 1, 0, 0}";
}
);
layerId = "C9B29665-C437-4A1D-A258-6E2E4B235112";
name = Light;
paths = (
{
closed = 1;
nodes = (
"350 -1 LINE",
"350 -186 LINE SMOOTH",
"414 -186 LINE",
"403 0 LINE"
);
}
);
width = 699;
}
);
unicode = 04AA;
},
{
color = 1;
glyphname = "Tedescender-cy";
lastChange = "2016-08-19 12:54:31 +0000";
layers = (
{
anchors = (
{
name = bottom;
position = "{321, 0}";
},
{
name = center;
position = "{320, 350}";
},
{
name = top;
position = "{320, 700}";
}
);
layerId = "C9B29665-C437-4A1D-A258-6E2E4B235112";
leftMetricsKey = T;
rightMetricsKey = T;
name = Light;
paths = (
{
closed = 1;
nodes = (
"360 40 LINE",
"331 0 LINE",
"397 0 OFFCURVE",
"411 -78 OFFCURVE",
"411 -178 CURVE",
"452 -178 LINE",
"452 45 LINE"
);
},
{
closed = 1;
nodes = (
"28 700 LINE",
"22 489 LINE",
"59 489 LINE",
"59 607 OFFCURVE",
"90 662 OFFCURVE",
"174 662 CURVE SMOOTH",
"277 663 LINE",
"276 156 LINE SMOOTH",
"276 88 OFFCURVE",
"283 36 OFFCURVE",
"208 33 CURVE",
"208 0 LINE",
"443 0 LINE",
"360 40 LINE",
"362 57 OFFCURVE",
"363 83 OFFCURVE",
"363 119 CURVE SMOOTH",
"364 664 LINE",
"449 664 LINE SMOOTH",
"552 665 OFFCURVE",
"577 607 OFFCURVE",
"579 489 CURVE",
"617 489 LINE",
"611 700 LINE"
);
}
);
width = 640;
}
);
leftMetricsKey = T;
rightMetricsKey = T;
unicode = 04AC;
},
{
color = 4;
glyphname = "Ustraitstroke-cy";
layers = (
{
components = (
{
name = Y;
transform = "{1, 0, 0, 1, 0, 0}";
}
);
layerId = "C9B29665-C437-4A1D-A258-6E2E4B235112";
name = Light;
paths = (
{
closed = 1;
nodes = (
"134 275 LINE",
"134 220 LINE",
"517 224 LINE",
"517 275 LINE"
);
}
);
width = 634;
}
);
unicode = 04B0;
},
{
color = 1;
glyphname = "Hadescender-cy";
lastChange = "2016-08-19 12:59:33 +0000";
layers = (
{
layerId = "C9B29665-C437-4A1D-A258-6E2E4B235112";
leftMetricsKey = X;
name = Light;
paths = (
{
closed = 1;
nodes = (
"599 40 LINE",
"570 0 LINE",
"636 0 OFFCURVE",
"650 -78 OFFCURVE",
"650 -178 CURVE",
"691 -178 LINE",
"691 45 LINE"
);
},
{
closed = 1;
nodes = (
"426 700 LINE",
"426 656 LINE",
"510 660 LINE",
"489 641 OFFCURVE",
"455 592 OFFCURVE",
"421 544 CURVE SMOOTH",
"325 405 LINE",
"273 477 OFFCURVE",
"225 544 OFFCURVE",
"201 584 CURVE SMOOTH",
"178 621 OFFCURVE",
"151 662 OFFCURVE",
"224 665 CURVE SMOOTH",
"268 667 LINE",
"268 700 LINE",
"9 700 LINE",
"9 656 LINE",
"64 658 LINE",
"86 604 OFFCURVE",
"104 584 OFFCURVE",
"279 339 CURVE",
"149 153 LINE SMOOTH",
"104 87 OFFCURVE",
"76 46 OFFCURVE",
"12 33 CURVE",
"12 0 LINE",
"208 0 LINE",
"208 44 LINE",
"125 39 LINE",
"158 77 OFFCURVE",
"183 117 OFFCURVE",
"207 153 CURVE SMOOTH",
"240 203 OFFCURVE",
"273 252 OFFCURVE",
"306 300 CURVE",
"367 215 OFFCURVE",
"422 147 OFFCURVE",
"453 106 CURVE SMOOTH",
"477 73 OFFCURVE",
"488 30 OFFCURVE",
"411 33 CURVE",
"411 0 LINE",
"656 0 LINE",
"599 40 LINE",
"529 135 LINE SMOOTH",
"499 176 OFFCURVE",
"424 272 OFFCURVE",
"353 368 CURVE",
"466 528 LINE SMOOTH",
"508 588 OFFCURVE",
"559 658 OFFCURVE",
"623 667 CURVE",
"623 700 LINE"
);
}
);
width = 651;
}
);
leftMetricsKey = X;
unicode = 04B2;
},
{
color = 1;
glyphname = "Chedescender-cy";
layers = (
{
anchors = (
{
name = bottomright;
position = "{682, 0}";
},
{
name = center;
position = "{314, 301}";
},
{
name = top;
position = "{353, 700}";
}
);
layerId = "C9B29665-C437-4A1D-A258-6E2E4B235112";
name = Light;
paths = (
{
closed = 1;
nodes = (
"575 40 LINE",
"546 0 LINE",
"612 0 OFFCURVE",
"626 -78 OFFCURVE",
"626 -178 CURVE",
"667 -178 LINE",
"667 45 LINE"
);
},
{
closed = 1;
nodes = (
"422 700 LINE",
"422 656 LINE",
"494 660 LINE",
"492 640 OFFCURVE",
"491 615 OFFCURVE",
"491 588 CURVE SMOOTH",
"491 156 LINE SMOOTH",
"491 85 OFFCURVE",
"497 36 OFFCURVE",
"422 33 CURVE",
"422 0 LINE",
"647 0 LINE",
"647 34 LINE",
"575 40 LINE",
"577 57 OFFCURVE",
"578 83 OFFCURVE",
"578 119 CURVE SMOOTH",
"578 544 LINE SMOOTH",
"578 615 OFFCURVE",
"572 664 OFFCURVE",
"647 667 CURVE",
"647 700 LINE"
);
},
{
closed = 1;
nodes = (
"101 345 OFFCURVE",
"163 273 OFFCURVE",
"308 273 CURVE SMOOTH",
"378 273 OFFCURVE",
"445 288 OFFCURVE",
"492 311 CURVE",
"491 360 LINE",
"456 339 OFFCURVE",
"403 325 OFFCURVE",
"344 324 CURVE SMOOTH",
"234 323 OFFCURVE",
"189 383 OFFCURVE",
"188 451 CURVE",
"101 473 LINE"
);
},
{
closed = 1;
nodes = (
"32 700 LINE",
"32 656 LINE",
"104 660 LINE",
"101 638 OFFCURVE",
"101 610 OFFCURVE",
"101 473 CURVE",
"188 451 LINE",
"189 610 OFFCURVE",
"178 664 OFFCURVE",
"257 667 CURVE",
"257 700 LINE"
);
}
);
width = 702;
}
);
unicode = 04B6;
},
{
color = 1;
glyphname = "Cheverticalstroke-cy";
lastChange = "2016-08-18 15:03:55 +0000";
layers = (
{
anchors = (
{
name = bottomright;
position = "{682, 0}";
},
{
name = center;
position = "{314, 301}";
},
{
name = top;
position = "{353, 700}";
}
);
components = (
{
name = "verticalbar-cy.case";
transform = "{1, 0, 0, 1, 285, 0}";
}
);
layerId = "C9B29665-C437-4A1D-A258-6E2E4B235112";
name = Light;
paths = (
{
closed = 1;
nodes = (
"432 700 LINE",
"432 656 LINE",
"504 660 LINE",
"502 640 OFFCURVE",
"501 615 OFFCURVE",
"501 588 CURVE SMOOTH",
"501 156 LINE SMOOTH",
"501 85 OFFCURVE",
"507 36 OFFCURVE",
"432 33 CURVE",
"432 0 LINE",
"657 0 LINE",
"657 44 LINE",
"585 40 LINE",
"587 57 OFFCURVE",
"588 83 OFFCURVE",
"588 119 CURVE SMOOTH",
"588 544 LINE SMOOTH",
"588 615 OFFCURVE",
"582 664 OFFCURVE",
"657 667 CURVE",
"657 700 LINE"
);
},
{
closed = 1;
nodes = (
"101 345 OFFCURVE",
"163 273 OFFCURVE",
"308 273 CURVE SMOOTH",
"388 273 OFFCURVE",
"455 288 OFFCURVE",
"502 311 CURVE",
"501 360 LINE",
"466 339 OFFCURVE",
"413 325 OFFCURVE",
"344 324 CURVE SMOOTH",
"234 322 OFFCURVE",
"189 383 OFFCURVE",
"188 451 CURVE",
"101 473 LINE"
);
},
{
closed = 1;
nodes = (
"32 700 LINE",
"32 656 LINE",
"104 660 LINE",
"101 638 OFFCURVE",
"101 610 OFFCURVE",
"101 473 CURVE",
"188 451 LINE",
"189 610 OFFCURVE",
"178 664 OFFCURVE",
"257 667 CURVE",
"257 700 LINE"
);
}
);
width = 702;
}
);
unicode = 04B8;
},
{
color = 1;
glyphname = "Shhadescender-cy";
lastChange = "2016-08-19 11:19:58 +0000";
layers = (
{
anchors = (
{
name = bottom;
position = "{349, 0}";
},
{
name = center;
position = "{388, 399}";
},
{
name = topleft;
position = "{20, 700}";
}
);
layerId = "C9B29665-C437-4A1D-A258-6E2E4B235112";
leftMetricsKey = H;
name = Light;
paths = (
{
closed = 1;
nodes = (
"280 0 LINE",
"280 44 LINE",
"208 40 LINE",
"210 60 OFFCURVE",
"211 85 OFFCURVE",
"211 112 CURVE SMOOTH",
"211 544 LINE SMOOTH",
"211 615 OFFCURVE",
"205 664 OFFCURVE",
"280 667 CURVE",
"280 700 LINE",
"55 700 LINE",
"55 656 LINE",
"127 660 LINE",
"125 643 OFFCURVE",
"124 617 OFFCURVE",
"124 581 CURVE SMOOTH",
"124 156 LINE SMOOTH",
"124 85 OFFCURVE",
"130 36 OFFCURVE",
"55 33 CURVE",
"55 0 LINE"
);
},
{
closed = 1;
nodes = (
"601 355 OFFCURVE",
"539 427 OFFCURVE",
"394 427 CURVE SMOOTH",
"324 427 OFFCURVE",
"257 412 OFFCURVE",
"210 389 CURVE",
"211 340 LINE",
"246 361 OFFCURVE",
"299 375 OFFCURVE",
"358 376 CURVE SMOOTH",
"468 377 OFFCURVE",
"513 316 OFFCURVE",
"514 248 CURVE",
"601 227 LINE"
);
},
{
closed = 1;
nodes = (
"670 0 LINE",
"598 40 LINE",
"601 62 OFFCURVE",
"601 90 OFFCURVE",
"601 227 CURVE",
"514 249 LINE",
"513 90 OFFCURVE",
"524 36 OFFCURVE",
"445 33 CURVE",
"445 0 LINE"
);
},
{
closed = 1;
nodes = (
"598 40 LINE",
"569 0 LINE",
"635 0 OFFCURVE",
"649 -78 OFFCURVE",
"649 -178 CURVE",
"690 -178 LINE",
"690 45 LINE"
);
}
);
width = 690;
}
);
leftMetricsKey = H;
unicode = 0526;
},
{
color = 1;
glyphname = "Cheabkhasian-cy";
lastChange = "2016-08-19 18:44:39 +0000";
layers = (
{
background = {
paths = (
{
closed = 1;
nodes = (
"358 46 OFFCURVE",
"254 156 OFFCURVE",
"254 347 CURVE SMOOTH",
"254 595 OFFCURVE",
"390 675 OFFCURVE",
"488 675 CURVE SMOOTH",
"634 675 OFFCURVE",
"712 521 OFFCURVE",
"692 360 CURVE SMOOTH",
"691 355 OFFCURVE",
"696 357 OFFCURVE",
"696 351 CURVE",
"789 352 LINE",
"790 372 OFFCURVE",
"790 378 OFFCURVE",
"790 388 CURVE SMOOTH",
"790 546 OFFCURVE",
"715 716 OFFCURVE",
"475 716 CURVE SMOOTH",
"285 716 OFFCURVE",
"154 543 OFFCURVE",
"154 332 CURVE SMOOTH",
"154 162 OFFCURVE",
"257 -15 OFFCURVE",
"495 -15 CURVE SMOOTH",
"580 -15 OFFCURVE",
"698 11 OFFCURVE",
"787 130 CURVE",
"759 155 LINE",
"703 80 OFFCURVE",
"611 46 OFFCURVE",
"520 46 CURVE SMOOTH"
);
},
{
closed = 1;
nodes = (
"118 391 OFFCURVE",
"48 425 OFFCURVE",
"46 456 CURVE SMOOTH",
"46 463 OFFCURVE",
"47 467 OFFCURVE",
"52 474 CURVE",
"61 466 OFFCURVE",
"67 466 OFFCURVE",
"80 467 CURVE SMOOTH",
"100 469 OFFCURVE",
"124 486 OFFCURVE",
"119 519 CURVE SMOOTH",
"116 547 OFFCURVE",
"91 560 OFFCURVE",
"64 558 CURVE SMOOTH",
"20 554 OFFCURVE",
"0 513 OFFCURVE",
"4 465 CURVE SMOOTH",
"12 388 OFFCURVE",
"98 351 OFFCURVE",
"238 351 CURVE SMOOTH",
"709 351 LINE",
"709 395 LINE",
"244 391 LINE SMOOTH"
);
}
);
};
layerId = "C9B29665-C437-4A1D-A258-6E2E4B235112";
rightMetricsKey = O;
name = Light;
paths = (
{
closed = 1;
nodes = (
"358 46 OFFCURVE",
"254 156 OFFCURVE",
"254 347 CURVE SMOOTH",
"254 595 OFFCURVE",
"390 675 OFFCURVE",
"488 675 CURVE SMOOTH",
"634 675 OFFCURVE",
"712 521 OFFCURVE",
"692 360 CURVE SMOOTH",
"691 355 OFFCURVE",
"696 357 OFFCURVE",
"696 351 CURVE",
"789 352 LINE",
"790 372 OFFCURVE",
"790 378 OFFCURVE",
"790 388 CURVE SMOOTH",
"790 546 OFFCURVE",
"715 716 OFFCURVE",
"475 716 CURVE SMOOTH",
"285 716 OFFCURVE",
"154 543 OFFCURVE",
"154 332 CURVE SMOOTH",
"154 162 OFFCURVE",
"257 -15 OFFCURVE",
"495 -15 CURVE SMOOTH",
"580 -15 OFFCURVE",
"698 11 OFFCURVE",
"787 130 CURVE",
"759 155 LINE",
"703 80 OFFCURVE",
"611 46 OFFCURVE",
"520 46 CURVE SMOOTH"
);
},
{
closed = 1;
nodes = (
"93 390 OFFCURVE",
"46 426 OFFCURVE",
"46 457 CURVE SMOOTH",
"46 463 OFFCURVE",
"47 468 OFFCURVE",
"52 474 CURVE",
"59 467 OFFCURVE",
"69 464 OFFCURVE",
"74 464 CURVE SMOOTH",
"94 464 OFFCURVE",
"122 479 OFFCURVE",
"122 512 CURVE SMOOTH",
"122 539 OFFCURVE",
"104 561 OFFCURVE",
"68 561 CURVE SMOOTH",
"27 561 OFFCURVE",
"-2 518 OFFCURVE",
"0 474 CURVE SMOOTH",
"4 399 OFFCURVE",
"68 351 OFFCURVE",
"208 351 CURVE SMOOTH",
"709 351 LINE",
"709 395 LINE",
"204 391 LINE SMOOTH"
);
}
);
width = 835;
}
);
rightMetricsKey = "-O";
unicode = 04BC;
},
{
color = 1;
glyphname = "Chedescenderabkhasian-cy";
lastChange = "2016-08-19 18:44:39 +0000";
layers = (
{
components = (
{
name = "Cheabkhasian-cy";
transform = "{1, 0, 0, 1, 0, 0}";
}
);
layerId = "C9B29665-C437-4A1D-A258-6E2E4B235112";
rightMetricsKey = O;
name = Light;
paths = (
{
closed = 1;
nodes = (
"457 -1 LINE",
"457 -186 LINE SMOOTH",
"521 -186 LINE",
"510 0 LINE"
);
}
);
width = 835;
}
);
rightMetricsKey = "-O";
unicode = 04BE;
},
{
color = 1;
glyphname = "Kahook-cy";
lastChange = "2016-08-19 12:47:06 +0000";
layers = (
{
anchors = (
{
name = bottom;
position = "{378, 0}";
},
{
name = top;
position = "{347, 700}";
}
);
layerId = "C9B29665-C437-4A1D-A258-6E2E4B235112";
name = Light;
paths = (
{
closed = 1;
nodes = (
"291 407 OFFCURVE",
"226 392 OFFCURVE",
"187 369 CURVE",
"187 322 LINE",
"217 343 OFFCURVE",
"260 358 OFFCURVE",
"308 358 CURVE SMOOTH",
"480 358 OFFCURVE",
"524 219 OFFCURVE",
"524 89 CURVE SMOOTH",
"524 -171 OFFCURVE",
"381 -230 OFFCURVE",
"310 -230 CURVE SMOOTH",
"304 -230 OFFCURVE",
"299 -228 OFFCURVE",
"296 -225 CURVE",
"300 -216 OFFCURVE",
"302 -210 OFFCURVE",
"302 -200 CURVE SMOOTH",
"302 -184 OFFCURVE",
"291 -157 OFFCURVE",
"253 -157 CURVE SMOOTH",
"226 -157 OFFCURVE",
"205 -177 OFFCURVE",
"205 -211 CURVE SMOOTH",
"205 -249 OFFCURVE",
"239 -271 OFFCURVE",
"291 -271 CURVE SMOOTH",
"479 -271 OFFCURVE",
"612 -114 OFFCURVE",
"612 97 CURVE SMOOTH",
"612 231 OFFCURVE",
"567 407 OFFCURVE",
"342 407 CURVE SMOOTH"
);
},
{
closed = 1;
nodes = (
"211 544 LINE SMOOTH",
"211 615 OFFCURVE",
"205 664 OFFCURVE",
"280 667 CURVE",
"280 700 LINE",
"55 700 LINE",
"55 656 LINE",
"127 660 LINE",
"125 640 OFFCURVE",
"124 615 OFFCURVE",
"124 588 CURVE SMOOTH",
"124 156 LINE SMOOTH",
"124 85 OFFCURVE",
"130 36 OFFCURVE",
"55 33 CURVE",
"55 0 LINE",
"280 0 LINE",
"280 44 LINE",
"208 40 LINE",
"210 57 OFFCURVE",
"211 83 OFFCURVE",
"211 119 CURVE SMOOTH",
"211 350 LINE SMOOTH"
);
},
{
closed = 1;
nodes = (
"336 376 LINE",
"434 532 LINE SMOOTH",
"502 641 OFFCURVE",
"552 660 OFFCURVE",
"636 667 CURVE",
"636 700 LINE",
"421 700 LINE",
"421 659 LINE",
"482 661 LINE",
"455 639 OFFCURVE",
"428 603 OFFCURVE",
"411 577 CURVE SMOOTH",
"286 380 LINE"
);
}
);
width = 681;
}
);
unicode = 04C3;
},
{
color = 1;
glyphname = "Eltail-cy";
lastChange = "2016-08-19 18:04:36 +0000";
layers = (
{
layerId = "C9B29665-C437-4A1D-A258-6E2E4B235112";
name = Light;
paths = (
{
closed = 1;
nodes = (
"573 40 LINE",
"544 0 LINE",
"584 0 OFFCURVE",
"579 -19 OFFCURVE",
"544 -178 CURVE",
"585 -178 LINE",
"665 45 LINE"
);
},
{
closed = 1;
nodes = (
"150 700 LINE",
"150 656 LINE",
"223 660 LINE",
"489 661 LINE",
"489 156 LINE SMOOTH",
"489 85 OFFCURVE",
"495 36 OFFCURVE",
"419 33 CURVE",
"419 0 LINE",
"645 0 LINE",
"645 34 LINE",
"573 40 LINE",
"575 57 OFFCURVE",
"576 83 OFFCURVE",
"576 119 CURVE SMOOTH",
"576 544 LINE SMOOTH",
"576 615 OFFCURVE",
"570 664 OFFCURVE",
"645 667 CURVE",
"645 700 LINE"
);
},
{
closed = 1;
nodes = (
"244 700 LINE",
"244 511 LINE SMOOTH",
"244 178 OFFCURVE",
"167 25 OFFCURVE",
"112 25 CURVE SMOOTH",
"105 25 OFFCURVE",
"101 27 OFFCURVE",
"95 33 CURVE",
"103 41 OFFCURVE",
"105 47 OFFCURVE",
"105 60 CURVE SMOOTH",
"105 80 OFFCURVE",
"89 106 OFFCURVE",
"56 104 CURVE SMOOTH",
"27 103 OFFCURVE",
"7 81 OFFCURVE",
"7 52 CURVE SMOOTH",
"7 10 OFFCURVE",
"51 -16 OFFCURVE",
"99 -16 CURVE SMOOTH",
"239 -16 OFFCURVE",
"292 290 OFFCURVE",
"292 582 CURVE SMOOTH",
"292 700 LINE"
);
},
{
closed = 1;
nodes = (
"262 660 LINE",
"255 629 LINE",
"292 604 LINE",
"294 637 OFFCURVE",
"313 661 OFFCURVE",
"359 661 CURVE"
);
}
);
width = 699;
}
);
unicode = 04C5;
},
{
color = 1;
glyphname = "Enhook-cy";
lastChange = "2016-08-19 12:51:58 +0000";
layers = (
{
anchors = (
{
name = center;
position = "{390, 350}";
},
{
name = top;
position = "{390, 700}";
}
);
layerId = "C9B29665-C437-4A1D-A258-6E2E4B235112";
leftMetricsKey = H;
rightMetricsKey = H;
name = Light;
paths = (
{
closed = 1;
nodes = (
"656 544 LINE SMOOTH",
"656 615 OFFCURVE",
"650 664 OFFCURVE",
"725 667 CURVE",
"725 700 LINE",
"500 700 LINE",
"500 656 LINE",
"572 660 LINE",
"570 640 OFFCURVE",
"569 615 OFFCURVE",
"569 588 CURVE SMOOTH",
"569 378 LINE",
"211 378 LINE",
"211 544 LINE SMOOTH",
"211 615 OFFCURVE",
"205 664 OFFCURVE",
"280 667 CURVE",
"280 700 LINE",
"55 700 LINE",
"55 656 LINE",
"127 660 LINE",
"125 640 OFFCURVE",
"124 615 OFFCURVE",
"124 588 CURVE SMOOTH",
"124 156 LINE SMOOTH",
"124 85 OFFCURVE",
"130 36 OFFCURVE",
"55 33 CURVE",
"55 0 LINE",
"280 0 LINE",
"280 44 LINE",
"208 40 LINE",
"210 57 OFFCURVE",
"211 83 OFFCURVE",
"211 119 CURVE SMOOTH",
"211 334 LINE",
"569 338 LINE",
"569 89 LINE SMOOTH",
"569 -171 OFFCURVE",
"442 -230 OFFCURVE",
"374 -230 CURVE SMOOTH",
"368 -230 OFFCURVE",
"363 -228 OFFCURVE",
"360 -225 CURVE",
"364 -216 OFFCURVE",
"366 -210 OFFCURVE",
"366 -200 CURVE SMOOTH",
"366 -184 OFFCURVE",
"355 -157 OFFCURVE",
"317 -157 CURVE SMOOTH",
"290 -157 OFFCURVE",
"269 -177 OFFCURVE",
"269 -211 CURVE SMOOTH",
"269 -249 OFFCURVE",
"303 -271 OFFCURVE",
"355 -271 CURVE SMOOTH",
"537 -271 OFFCURVE",
"656 -123 OFFCURVE",
"656 97 CURVE SMOOTH"
);
}
);
width = 780;
}
);
leftMetricsKey = H;
rightMetricsKey = H;
unicode = 04C7;
},
{
color = 1;
glyphname = "Entail-cy";
lastChange = "2016-08-19 18:05:39 +0000";
layers = (
{
anchors = (
{
name = center;
position = "{390, 350}";
},
{
name = top;
position = "{390, 700}";
}
);
layerId = "C9B29665-C437-4A1D-A258-6E2E4B235112";
leftMetricsKey = H;
name = Light;
paths = (
{
closed = 1;
nodes = (
"653 40 LINE",
"624 0 LINE",
"664 0 OFFCURVE",
"659 -19 OFFCURVE",
"624 -178 CURVE",
"665 -178 LINE",
"745 45 LINE"
);
},
{
closed = 1;
nodes = (
"500 700 LINE",
"500 656 LINE",
"572 660 LINE",
"570 640 OFFCURVE",
"569 615 OFFCURVE",
"569 588 CURVE SMOOTH",
"569 378 LINE",
"211 378 LINE",
"211 544 LINE SMOOTH",
"211 615 OFFCURVE",
"205 664 OFFCURVE",
"280 667 CURVE",
"280 700 LINE",
"55 700 LINE",
"55 656 LINE",
"127 660 LINE",
"125 640 OFFCURVE",
"124 615 OFFCURVE",
"124 588 CURVE SMOOTH",
"124 156 LINE SMOOTH",
"124 85 OFFCURVE",
"130 36 OFFCURVE",
"55 33 CURVE",
"55 0 LINE",
"280 0 LINE",
"280 44 LINE",
"208 40 LINE",
"210 57 OFFCURVE",
"211 83 OFFCURVE",
"211 119 CURVE SMOOTH",
"211 334 LINE",
"569 338 LINE",
"569 156 LINE SMOOTH",
"569 85 OFFCURVE",
"575 36 OFFCURVE",
"500 33 CURVE",
"500 0 LINE",
"725 0 LINE",
"653 40 LINE",
"655 57 OFFCURVE",
"656 83 OFFCURVE",
"656 119 CURVE SMOOTH",
"656 544 LINE SMOOTH",
"656 615 OFFCURVE",
"650 664 OFFCURVE",
"725 667 CURVE",
"725 700 LINE"
);
}
);
width = 780;
}
);
leftMetricsKey = H;
unicode = 04C9;
},
{
color = 1;
glyphname = "Chekhakassian-cy";
layers = (
{
anchors = (
{
name = bottomright;
position = "{682, 0}";
},
{
name = center;
position = "{314, 301}";
},
{
name = top;
position = "{353, 700}";
}
);
background = {
paths = (
{
closed = 1;
nodes = (
"101 345 OFFCURVE",
"163 273 OFFCURVE",
"308 273 CURVE SMOOTH",
"378 273 OFFCURVE",
"445 288 OFFCURVE",
"492 311 CURVE",
"491 360 LINE",
"456 339 OFFCURVE",
"403 325 OFFCURVE",
"344 324 CURVE SMOOTH",
"234 323 OFFCURVE",
"189 383 OFFCURVE",
"188 451 CURVE",
"101 473 LINE"
);
},
{
closed = 1;
nodes = (
"32 700 LINE",
"32 656 LINE",
"104 660 LINE",
"101 638 OFFCURVE",
"101 610 OFFCURVE",
"101 473 CURVE",
"188 451 LINE",
"189 610 OFFCURVE",
"178 664 OFFCURVE",
"257 667 CURVE",
"257 700 LINE"
);
},
{
closed = 1;
nodes = (
"647 700 LINE",
"422 700 LINE",
"422 656 LINE",
"494 660 LINE",
"492 640 OFFCURVE",
"491 615 OFFCURVE",
"491 588 CURVE SMOOTH",
"491 156 LINE SMOOTH",
"491 85 OFFCURVE",
"497 36 OFFCURVE",
"422 33 CURVE",
"369 33 LINE",
"369 -178 LINE",
"410 -178 LINE",
"410 -78 OFFCURVE",
"424 0 OFFCURVE",
"490 0 CURVE SMOOTH",
"647 0 LINE",
"647 44 LINE",
"575 40 LINE",
"577 57 OFFCURVE",
"578 83 OFFCURVE",
"578 119 CURVE SMOOTH",
"578 544 LINE SMOOTH",
"578 615 OFFCURVE",
"572 664 OFFCURVE",
"647 667 CURVE"
);
}
);
};
layerId = "C9B29665-C437-4A1D-A258-6E2E4B235112";
leftMetricsKey = "=Che-cy";
rightMetricsKey = "=Che-cy";
name = Light;
paths = (
{
closed = 1;
nodes = (
"101 345 OFFCURVE",
"163 273 OFFCURVE",
"308 273 CURVE SMOOTH",
"378 273 OFFCURVE",
"445 288 OFFCURVE",
"492 311 CURVE",
"491 360 LINE",
"456 339 OFFCURVE",
"403 325 OFFCURVE",
"344 324 CURVE SMOOTH",
"234 323 OFFCURVE",
"189 383 OFFCURVE",
"188 451 CURVE",
"101 473 LINE"
);
},
{
closed = 1;
nodes = (
"32 700 LINE",
"32 656 LINE",
"104 660 LINE",
"101 638 OFFCURVE",
"101 610 OFFCURVE",
"101 473 CURVE",
"188 451 LINE",
"189 610 OFFCURVE",
"178 664 OFFCURVE",
"257 667 CURVE",
"257 700 LINE"
);
},
{
closed = 1;
nodes = (
"647 700 LINE",
"422 700 LINE",
"422 656 LINE",
"494 660 LINE",
"492 640 OFFCURVE",
"491 615 OFFCURVE",
"491 588 CURVE SMOOTH",
"491 143 LINE SMOOTH",
"491 64 OFFCURVE",
"488 39 OFFCURVE",
"422 35 CURVE SMOOTH",
"369 32 LINE",
"369 -178 LINE",
"410 -178 LINE",
"410 -78 OFFCURVE",
"424 0 OFFCURVE",
"490 0 CURVE SMOOTH",
"647 0 LINE",
"647 44 LINE",
"575 40 LINE",
"577 57 OFFCURVE",
"578 83 OFFCURVE",
"578 119 CURVE SMOOTH",
"578 544 LINE SMOOTH",
"578 615 OFFCURVE",
"572 664 OFFCURVE",
"647 667 CURVE"
);
}
);
width = 702;
}
);
leftMetricsKey = "=|Che-cy";
rightMetricsKey = "Che-cy";
unicode = 04CB;
},
{
color = 1;
glyphname = "Emtail-cy";
lastChange = "2016-08-19 18:06:28 +0000";
layers = (
{
layerId = "C9B29665-C437-4A1D-A258-6E2E4B235112";
name = Light;
paths = (
{
closed = 1;
nodes = (
"704 700 LINE",
"642 543 OFFCURVE",
"577 397 OFFCURVE",
"519 251 CURVE SMOOTH",
"505 215 OFFCURVE",
"483 158 OFFCURVE",
"468 122 CURVE",
"466 122 LINE",
"381 316 OFFCURVE",
"308 491 OFFCURVE",
"216 700 CURVE",
"63 700 LINE",
"63 657 LINE",
"135 660 LINE",
"113 125 LINE SMOOTH",
"111 76 OFFCURVE",
"106 34 OFFCURVE",
"44 33 CURVE",
"44 0 LINE",
"235 0 LINE",
"235 44 LINE",
"160 40 LINE",
"163 65 OFFCURVE",
"163 95 OFFCURVE",
"164 125 CURVE SMOOTH",
"166 260 OFFCURVE",
"172 447 OFFCURVE",
"175 543 CURVE SMOOTH",
"176 587 LINE",
"254 379 OFFCURVE",
"345 186 OFFCURVE",
"432 -10 CURVE",
"462 -10 LINE",
"687 546 LINE SMOOTH",
"691 558 OFFCURVE",
"696 568 OFFCURVE",
"700 578 CURVE",
"726 152 LINE SMOOTH",
"730 76 OFFCURVE",
"722 35 OFFCURVE",
"660 33 CURVE",
"660 0 LINE",
"884 0 LINE",
"884 34 LINE",
"811 40 LINE",
"811 57 OFFCURVE",
"811 80 OFFCURVE",
"809 103 CURVE SMOOTH",
"783 558 LINE SMOOTH",
"778 640 OFFCURVE",
"802 668 OFFCURVE",
"852 667 CURVE",
"852 700 LINE"
);
},
{
closed = 1;
nodes = (
"811 40 LINE",
"782 0 LINE",
"822 0 OFFCURVE",
"817 -19 OFFCURVE",
"782 -178 CURVE",
"823 -178 LINE",
"903 45 LINE"
);
}
);
width = 918;
}
);
unicode = 04CD;
},
{
color = 1;
glyphname = "Schwa-cy";
lastChange = "2016-08-19 18:48:29 +0000";
layers = (
{
anchors = (
{
name = top;
position = "{385, 700}";
}
);
layerId = "C9B29665-C437-4A1D-A258-6E2E4B235112";
leftMetricsKey = "=O";
rightMetricsKey = "=O";
name = Light;
paths = (
{
closed = 1;
nodes = (
"627 370 LINE",
"132 370 LINE",
"132 326 LINE",
"627 330 LINE"
);
},
{
closed = 1;
nodes = (
"582 -15 OFFCURVE",
"717 158 OFFCURVE",
"717 369 CURVE SMOOTH",
"717 539 OFFCURVE",
"614 716 OFFCURVE",
"376 716 CURVE SMOOTH",
"306 716 OFFCURVE",
"211 702 OFFCURVE",
"144 655 CURVE",
"149 709 LINE",
"95 709 LINE",
"95 487 LINE",
"131 487 LINE",
"145 606 OFFCURVE",
"235 675 OFFCURVE",
"350 675 CURVE SMOOTH",
"512 675 OFFCURVE",
"619 545 OFFCURVE",
"619 354 CURVE SMOOTH",
"619 170 OFFCURVE",
"526 25 OFFCURVE",
"380 25 CURVE",
"223 25 OFFCURVE",
"133 198 OFFCURVE",
"144 361 CURVE SMOOTH",
"144 366 OFFCURVE",
"144 365 OFFCURVE",
"144 371 CURVE",
"46 369 LINE",
"46 345 OFFCURVE",
"46 353 OFFCURVE",
"46 343 CURVE SMOOTH",
"46 155 OFFCURVE",
"139 -15 OFFCURVE",
"386 -15 CURVE"
);
}
);
width = 761;
}
);
leftMetricsKey = O;
rightMetricsKey = O;
unicode = 04D8;
},
{
color = 1;
glyphname = "Dzeabkhasian-cy";
lastChange = "2016-08-22 08:53:15 +0000";
layers = (
{
background = {
paths = (
{
closed = 1;
nodes = (
"269 348 LINE",
"402 347 OFFCURVE",
"465 301 OFFCURVE",
"465 202 CURVE SMOOTH",
"465 89 OFFCURVE",
"380 32 OFFCURVE",
"281 32 CURVE SMOOTH",
"195 32 OFFCURVE",
"110 76 OFFCURVE",
"56 151 CURVE",
"30 130 LINE",
"101 31 OFFCURVE",
"196 -16 OFFCURVE",
"303 -16 CURVE SMOOTH",
"435 -16 OFFCURVE",
"564 57 OFFCURVE",
"564 201 CURVE SMOOTH",
"564 301 OFFCURVE",
"485 388 OFFCURVE",
"331 385 CURVE"
);
}
);
};
layerId = "C9B29665-C437-4A1D-A258-6E2E4B235112";
rightMetricsKey = "Be-cy";
name = Light;
paths = (
{
closed = 1;
nodes = (
"318 404 OFFCURVE",
"301 387 OFFCURVE",
"314 404 CURVE SMOOTH",
"374 479 OFFCURVE",
"427 549 OFFCURVE",
"506 632 CURVE",
"506 700 LINE",
"99 700 LINE",
"99 552 LINE",
"123 552 LINE",
"123 606 OFFCURVE",
"154 630 OFFCURVE",
"208 630 CURVE SMOOTH",
"444 631 LINE",
"388 555 OFFCURVE",
"354 513 OFFCURVE",
"268 431 CURVE SMOOTH",
"258 421 OFFCURVE",
"222 401 OFFCURVE",
"191 401 CURVE"
);
},
{
closed = 1;
nodes = (
"269 362 LINE",
"402 361 OFFCURVE",
"465 295 OFFCURVE",
"465 206 CURVE SMOOTH",
"465 93 OFFCURVE",
"380 32 OFFCURVE",
"281 32 CURVE SMOOTH",
"195 32 OFFCURVE",
"110 76 OFFCURVE",
"56 151 CURVE",
"30 130 LINE",
"101 31 OFFCURVE",
"196 -16 OFFCURVE",
"303 -16 CURVE SMOOTH",
"435 -16 OFFCURVE",
"564 61 OFFCURVE",
"564 205 CURVE SMOOTH",
"564 305 OFFCURVE",
"487 403 OFFCURVE",
"286 403 CURVE"
);
},
{
closed = 1;
nodes = (
"191 401 LINE",
"191 359 LINE",
"296 362 LINE",
"286 403 LINE"
);
}
);
width = 603;
}
);
rightMetricsKey = "Be-cy";
unicode = 04E0;
},
{
color = 1;
glyphname = "Obarred-cy";
lastChange = "2016-08-19 18:45:58 +0000";
layers = (
{
anchors = (
{
name = top;
position = "{400, 700}";
}
);
components = (
{
name = O;
transform = "{1, 0, 0, 1, 0, 0}";
}
);
layerId = "C9B29665-C437-4A1D-A258-6E2E4B235112";
name = Light;
paths = (
{
closed = 1;
nodes = (
"659 378 LINE",
"131 378 LINE",
"131 334 LINE",
"659 338 LINE"
);
}
);
width = 794;
}
);
unicode = 04E8;
},
{
color = 1;
glyphname = "Gedescender-cy";
layers = (
{
components = (
{
name = "Ge-cy";
transform = "{1, 0, 0, 1, 0, 0}";
}
);
layerId = "C9B29665-C437-4A1D-A258-6E2E4B235112";
name = Light;
paths = (
{
closed = 1;
nodes = (
"208 40 LINE",
"190 0 LINE",
"256 0 OFFCURVE",
"270 -78 OFFCURVE",
"270 -178 CURVE",
"311 -178 LINE",
"311 45 LINE"
);
}
);
width = 548;
}
);
unicode = 04F6;
},
{
color = 6;
glyphname = "Gestrokehook-cy";
lastChange = "2016-08-22 09:14:11 +0000";
layers = (
{
anchors = (
{
name = top;
position = "{280, 700}";
}
);
layerId = "C9B29665-C437-4A1D-A258-6E2E4B235112";
rightMetricsKey = "Ge-cy";
name = Light;
paths = (
{
closed = 1;
nodes = (
"32 327 LINE",
"390 331 LINE",
"390 371 LINE",
"32 371 LINE"
);
},
{
closed = 1;
nodes = (
"217 540 LINE SMOOTH",
"217 609 OFFCURVE",
"212 661 OFFCURVE",
"286 663 CURVE SMOOTH",
"359 665 LINE SMOOTH",
"434 667 OFFCURVE",
"493 643 OFFCURVE",
"493 525 CURVE",
"530 525 LINE",
"525 700 LINE",
"61 700 LINE",
"61 656 LINE",
"133 660 LINE",
"131 640 OFFCURVE",
"130 615 OFFCURVE",
"130 588 CURVE SMOOTH",
"130 89 LINE SMOOTH",
"130 -171 OFFCURVE",
"3 -230 OFFCURVE",
"-65 -230 CURVE SMOOTH",
"-71 -230 OFFCURVE",
"-76 -228 OFFCURVE",
"-79 -225 CURVE",
"-75 -216 OFFCURVE",
"-73 -210 OFFCURVE",
"-73 -200 CURVE SMOOTH",
"-73 -184 OFFCURVE",
"-84 -157 OFFCURVE",
"-122 -157 CURVE SMOOTH",
"-149 -157 OFFCURVE",
"-170 -177 OFFCURVE",
"-170 -211 CURVE SMOOTH",
"-170 -249 OFFCURVE",
"-136 -271 OFFCURVE",
"-84 -271 CURVE SMOOTH",
"98 -271 OFFCURVE",
"217 -123 OFFCURVE",
"217 97 CURVE SMOOTH"
);
}
);
width = 554;
}
);
rightMetricsKey = F;
unicode = 04FA;
},
{
color = 1;
glyphname = "Hahook-cy";
lastChange = "2016-08-22 08:37:43 +0000";
layers = (
{
background = {
paths = (
{
closed = 1;
nodes = (
"572 -33 OFFCURVE",
"509 -155 OFFCURVE",
"457 -199 CURVE SMOOTH",
"452 -203 OFFCURVE",
"447 -204 OFFCURVE",
"443 -204 CURVE",
"440 -194 OFFCURVE",
"438 -189 OFFCURVE",
"431 -181 CURVE SMOOTH",
"421 -169 OFFCURVE",
"395 -155 OFFCURVE",
"366 -179 CURVE SMOOTH",
"345 -197 OFFCURVE",
"342 -226 OFFCURVE",
"364 -252 CURVE SMOOTH",
"389 -281 OFFCURVE",
"429 -276 OFFCURVE",
"469 -242 CURVE SMOOTH",
"608 -125 OFFCURVE",
"604 52 OFFCURVE",
"474 207 CURVE SMOOTH",
"440 252 OFFCURVE",
"396 310 OFFCURVE",
"353 368 CURVE",
"466 528 LINE SMOOTH",
"508 588 OFFCURVE",
"559 658 OFFCURVE",
"623 667 CURVE",
"623 700 LINE",
"426 700 LINE",
"426 656 LINE",
"510 660 LINE",
"489 641 OFFCURVE",
"455 592 OFFCURVE",
"421 544 CURVE SMOOTH",
"325 405 LINE",
"273 477 OFFCURVE",
"225 544 OFFCURVE",
"201 584 CURVE SMOOTH",
"178 621 OFFCURVE",
"151 662 OFFCURVE",
"224 665 CURVE SMOOTH",
"268 667 LINE",
"268 700 LINE",
"9 700 LINE",
"9 656 LINE",
"64 658 LINE",
"86 604 OFFCURVE",
"104 584 OFFCURVE",
"279 339 CURVE",
"149 153 LINE SMOOTH",
"104 87 OFFCURVE",
"76 46 OFFCURVE",
"12 33 CURVE",
"12 0 LINE",
"208 0 LINE",
"208 44 LINE",
"125 39 LINE",
"158 77 OFFCURVE",
"183 117 OFFCURVE",
"207 153 CURVE SMOOTH",
"240 203 OFFCURVE",
"273 252 OFFCURVE",
"306 300 CURVE",
"347 243 OFFCURVE",
"390 187 OFFCURVE",
"420 148 CURVE SMOOTH"
);
}
);
};
layerId = "C9B29665-C437-4A1D-A258-6E2E4B235112";
name = Light;
paths = (
{
closed = 1;
nodes = (
"481 71 OFFCURVE",
"534 10 OFFCURVE",
"534 -66 CURVE SMOOTH",
"534 -157 OFFCURVE",
"496 -210 OFFCURVE",
"443 -210 CURVE",
"441 -182 OFFCURVE",
"421 -167 OFFCURVE",
"399 -167 CURVE SMOOTH",
"371 -167 OFFCURVE",
"349 -191 OFFCURVE",
"349 -219 CURVE SMOOTH",
"349 -243 OFFCURVE",
"367 -271 OFFCURVE",
"405 -271 CURVE SMOOTH",
"495 -271 OFFCURVE",
"594 -175 OFFCURVE",
"594 -39 CURVE SMOOTH",
"594 41 OFFCURVE",
"563 96 OFFCURVE",
"484 197 CURVE SMOOTH",
"448 243 OFFCURVE",
"397 310 OFFCURVE",
"353 368 CURVE",
"466 528 LINE SMOOTH",
"508 588 OFFCURVE",
"559 658 OFFCURVE",
"623 667 CURVE",
"623 700 LINE",
"426 700 LINE",
"426 656 LINE",
"510 660 LINE",
"489 641 OFFCURVE",
"455 592 OFFCURVE",
"421 544 CURVE SMOOTH",
"325 405 LINE",
"273 477 OFFCURVE",
"225 544 OFFCURVE",
"201 584 CURVE SMOOTH",
"178 621 OFFCURVE",
"151 662 OFFCURVE",
"224 665 CURVE SMOOTH",
"268 667 LINE",
"268 700 LINE",
"9 700 LINE",
"9 656 LINE",
"64 658 LINE",
"86 604 OFFCURVE",
"104 584 OFFCURVE",
"279 339 CURVE",
"149 153 LINE SMOOTH",
"104 87 OFFCURVE",
"76 46 OFFCURVE",
"12 33 CURVE",
"12 0 LINE",
"208 0 LINE",
"208 44 LINE",
"125 39 LINE",
"158 77 OFFCURVE",
"183 117 OFFCURVE",
"207 153 CURVE SMOOTH",
"240 203 OFFCURVE",
"273 252 OFFCURVE",
"306 300 CURVE",
"348 243 OFFCURVE",
"399 179 OFFCURVE",
"430 138 CURVE SMOOTH"
);
}
);
width = 643;
}
);
unicode = 04FC;
},
{
color = 6;
glyphname = "Hastroke-cy";
lastChange = "2016-08-22 09:04:10 +0000";
layers = (
{
components = (
{
name = X;
transform = "{1, 0, 0, 1, 0, 0}";
}
);
layerId = "C9B29665-C437-4A1D-A258-6E2E4B235112";
name = Light;
paths = (
{
closed = 1;
nodes = (
"105 327 LINE",
"513 331 LINE",
"513 371 LINE",
"105 371 LINE"
);
}
);
width = 649;
}
);
unicode = 04FE;
},
{
color = 1;
glyphname = "Reversedze-cy";
lastChange = "2016-08-20 11:51:57 +0000";
layers = (
{
background = {
paths = (
{
closed = 0;
nodes = (
"279 676 LINE SMOOTH",
"395 676 OFFCURVE",
"473 602 OFFCURVE",
"487 477 CURVE",
"523 477 LINE",
"523 709 LINE",
"469 709 LINE",
"474 655 LINE",
"412 696 OFFCURVE",
"347 716 OFFCURVE",
"272 716 CURVE SMOOTH"
);
}
);
};
layerId = "C9B29665-C437-4A1D-A258-6E2E4B235112";
leftMetricsKey = "=|Ze-cy";
rightMetricsKey = "=|Ze-cy";
name = Light;
paths = (
{
closed = 1;
nodes = (
"120 373 OFFCURVE",
"36 265 OFFCURVE",
"39 171 CURVE SMOOTH",
"44 27 OFFCURVE",
"193 -16 OFFCURVE",
"320 -16 CURVE SMOOTH",
"427 -16 OFFCURVE",
"520 30 OFFCURVE",
"583 122 CURVE",
"556 142 LINE",
"509 73 OFFCURVE",
"423 32 OFFCURVE",
"337 32 CURVE SMOOTH",
"238 32 OFFCURVE",
"141 72 OFFCURVE",
"139 185 CURVE SMOOTH",
"137 284 OFFCURVE",
"211 344 OFFCURVE",
"334 345 CURVE",
"272 373 LINE"
);
},
{
closed = 1;
nodes = (
"307 345 LINE",
"402 345 LINE",
"402 386 LINE",
"317 385 LINE"
);
},
{
closed = 1;
nodes = (
"151 716 OFFCURVE",
"62 626 OFFCURVE",
"64 515 CURVE SMOOTH",
"65 441 OFFCURVE",
"112 373 OFFCURVE",
"241 373 CURVE",
"241 371 LINE",
"317 347 LINE",
"330 385 LINE",
"217 382 OFFCURVE",
"156 453 OFFCURVE",
"156 528 CURVE SMOOTH",
"156 626 OFFCURVE",
"214 676 OFFCURVE",
"283 676 CURVE SMOOTH",
"388 676 OFFCURVE",
"457 605 OFFCURVE",
"473 487 CURVE",
"509 487 LINE",
"509 709 LINE",
"455 709 LINE",
"460 655 LINE",
"402 697 OFFCURVE",
"357 716 OFFCURVE",
"280 716 CURVE SMOOTH"
);
}
);
width = 623;
}
);
leftMetricsKey = Z;
rightMetricsKey = "Ze-cy";
unicode = 0510;
},
{
color = 1;
glyphname = "Elhook-cy";
lastChange = "2016-08-20 11:53:55 +0000";
layers = (
{
layerId = "C9B29665-C437-4A1D-A258-6E2E4B235112";
leftMetricsKey = "El-cy";
rightMetricsKey = "El-cy";
name = Light;
paths = (
{
closed = 1;
nodes = (
"576 544 LINE SMOOTH",
"576 615 OFFCURVE",
"570 664 OFFCURVE",
"645 667 CURVE",
"645 700 LINE",
"150 700 LINE",
"150 656 LINE",
"223 660 LINE",
"489 661 LINE",
"489 89 LINE SMOOTH",
"489 -171 OFFCURVE",
"362 -230 OFFCURVE",
"294 -230 CURVE SMOOTH",
"288 -230 OFFCURVE",
"283 -228 OFFCURVE",
"280 -225 CURVE",
"284 -216 OFFCURVE",
"286 -210 OFFCURVE",
"286 -200 CURVE SMOOTH",
"286 -184 OFFCURVE",
"275 -157 OFFCURVE",
"237 -157 CURVE SMOOTH",
"210 -157 OFFCURVE",
"189 -177 OFFCURVE",
"189 -211 CURVE SMOOTH",
"189 -249 OFFCURVE",
"223 -271 OFFCURVE",
"275 -271 CURVE SMOOTH",
"457 -271 OFFCURVE",
"576 -123 OFFCURVE",
"576 97 CURVE SMOOTH"
);
},
{
closed = 1;
nodes = (
"244 700 LINE",
"244 511 LINE SMOOTH",
"244 178 OFFCURVE",
"167 25 OFFCURVE",
"112 25 CURVE SMOOTH",
"105 25 OFFCURVE",
"101 27 OFFCURVE",
"95 33 CURVE",
"103 41 OFFCURVE",
"105 47 OFFCURVE",
"105 60 CURVE SMOOTH",
"105 80 OFFCURVE",
"89 106 OFFCURVE",
"56 104 CURVE SMOOTH",
"27 103 OFFCURVE",
"7 81 OFFCURVE",
"7 52 CURVE SMOOTH",
"7 10 OFFCURVE",
"51 -16 OFFCURVE",
"99 -16 CURVE SMOOTH",
"239 -16 OFFCURVE",
"292 290 OFFCURVE",
"292 582 CURVE SMOOTH",
"292 700 LINE"
);
},
{
closed = 1;
nodes = (
"262 660 LINE",
"255 629 LINE",
"292 604 LINE",
"294 637 OFFCURVE",
"313 661 OFFCURVE",
"359 661 CURVE"
);
}
);
width = 699;
}
);
leftMetricsKey = "El-cy";
rightMetricsKey = El;
unicode = 0512;
},
{
color = 1;
glyphname = "Semisoftsign-cy";
lastChange = "2016-08-22 09:00:20 +0000";
layers = (
{
components = (
{
name = "Softsign-cy";
transform = "{1, 0, 0, 1, 0, 0}";
}
);
layerId = "C9B29665-C437-4A1D-A258-6E2E4B235112";
name = Light;
paths = (
{
closed = 1;
nodes = (
"26 517 LINE",
"384 521 LINE",
"384 561 LINE",
"26 561 LINE"
);
}
);
width = 615;
}
);
unicode = 048C;
},
{
color = 1;
glyphname = "Ertick-cy";
lastChange = "2016-08-22 08:58:20 +0000";
layers = (
{
components = (
{
name = P;
transform = "{1, 0, 0, 1, 0, 0}";
}
);
layerId = "C9B29665-C437-4A1D-A258-6E2E4B235112";
name = Light;
paths = (
{
closed = 1;
nodes = (
"414 184 LINE",
"446 204 LINE",
"318 426 LINE",
"286 406 LINE"
);
}
);
width = 606;
}
);
unicode = 048E;
},
{
color = 1;
glyphname = "El-cy.loclBGR";
lastChange = "2016-08-18 13:51:19 +0000";
layers = (
{
layerId = "C9B29665-C437-4A1D-A258-6E2E4B235112";
leftMetricsKey = "=A";
rightMetricsKey = "=A";
name = Light;
paths = (
{
closed = 1;
nodes = (
"138 144 OFFCURVE",
"168 230 OFFCURVE",
"200 323 CURVE SMOOTH",
"216 369 OFFCURVE",
"232 415 OFFCURVE",
"286 572 CURVE",
"288 572 LINE",
"335 450 LINE",
"458 128 LINE SMOOTH",
"472 91 OFFCURVE",
"484 35 OFFCURVE",
"409 33 CURVE",
"409 0 LINE",
"633 0 LINE",
"633 44 LINE",
"570 40 LINE",
"572 70 OFFCURVE",
"555 122 OFFCURVE",
"544 150 CURVE SMOOTH",
"317 719 LINE",
"293 719 LINE",
"91 158 LINE SMOOTH",
"64 84 OFFCURVE",
"54 33 OFFCURVE",
"-6 33 CURVE",
"-6 0 LINE",
"181 0 LINE",
"181 44 LINE",
"102 40 LINE",
"111 62 OFFCURVE",
"117 77 OFFCURVE",
"127 109 CURVE SMOOTH"
);
}
);
width = 621;
}
);
leftMetricsKey = A;
rightMetricsKey = "-A";
},
{
color = 4;
glyphname = "be-cy";
layers = (
{
layerId = "C9B29665-C437-4A1D-A258-6E2E4B235112";
name = Light;
paths = (
{
closed = 1;
nodes = (
"432 730 OFFCURVE",
"417 722 OFFCURVE",
"382 712 CURVE SMOOTH",
"329 698 OFFCURVE",
"276 699 OFFCURVE",
"226 679 CURVE SMOOTH",
"94 629 OFFCURVE",
"42 474 OFFCURVE",
"42 299 CURVE SMOOTH",
"42 87 OFFCURVE",
"145 -15 OFFCURVE",
"273 -15 CURVE SMOOTH",
"403 -15 OFFCURVE",
"508 89 OFFCURVE",
"508 250 CURVE SMOOTH",
"508 400 OFFCURVE",
"411 481 OFFCURVE",
"286 481 CURVE SMOOTH",
"189 481 OFFCURVE",
"125 430 OFFCURVE",
"95 352 CURVE",
"88 352 LINE",
"87 466 OFFCURVE",
"130 563 OFFCURVE",
"232 594 CURVE SMOOTH",
"279 608 OFFCURVE",
"336 608 OFFCURVE",
"391 627 CURVE SMOOTH",
"460 651 OFFCURVE",
"463 684 OFFCURVE",
"478 749 CURVE",
"443 760 LINE"
);
},
{
closed = 1;
nodes = (
"370 445 OFFCURVE",
"411 331 OFFCURVE",
"411 222 CURVE SMOOTH",
"411 121 OFFCURVE",
"375 23 OFFCURVE",
"277 23 CURVE SMOOTH",
"185 23 OFFCURVE",
"136 110 OFFCURVE",
"136 254 CURVE SMOOTH",
"136 353 OFFCURVE",
"178 445 OFFCURVE",
"268 445 CURVE SMOOTH"
);
}
);
width = 544;
}
);
unicode = 0431;
userData = {
public.markColor = "0.67,0.95,0.38,1";
};
},
{
color = 4;
glyphname = "ve-cy";
layers = (
{
layerId = "C9B29665-C437-4A1D-A258-6E2E4B235112";
name = Light;
paths = (
{
closed = 1;
nodes = (
"206 501 OFFCURVE",
"98 500 OFFCURVE",
"45 500 CURVE",
"45 459 LINE",
"108 462 LINE",
"105 446 OFFCURVE",
"104 428 OFFCURVE",
"104 404 CURVE SMOOTH",
"104 115 LINE SMOOTH",
"104 63 OFFCURVE",
"93 31 OFFCURVE",
"44 30 CURVE",
"44 0 LINE",
"321 0 LINE SMOOTH",
"411 0 OFFCURVE",
"492 52 OFFCURVE",
"492 142 CURVE SMOOTH",
"492 210 OFFCURVE",
"444 259 OFFCURVE",
"354 263 CURVE",
"354 264 LINE",
"430 281 OFFCURVE",
"464 332 OFFCURVE",
"465 386 CURVE SMOOTH",
"466 463 OFFCURVE",
"400 501 OFFCURVE",
"307 501 CURVE SMOOTH"
);
},
{
closed = 1;
nodes = (
"338 237 OFFCURVE",
"396 209 OFFCURVE",
"396 139 CURVE SMOOTH",
"396 69 OFFCURVE",
"347 40 OFFCURVE",
"273 40 CURVE SMOOTH",
"264 40 OFFCURVE",
"210 39 OFFCURVE",
"188 41 CURVE",
"189 53 OFFCURVE",
"190 71 OFFCURVE",
"190 97 CURVE SMOOTH",
"190 235 LINE",
"212 236 OFFCURVE",
"245 237 OFFCURVE",
"273 237 CURVE SMOOTH"
);
},
{
closed = 1;
nodes = (
"323 465 OFFCURVE",
"372 450 OFFCURVE",
"373 381 CURVE SMOOTH",
"374 332 OFFCURVE",
"347 276 OFFCURVE",
"265 274 CURVE SMOOTH",
"190 273 LINE",
"190 396 LINE SMOOTH",
"190 453 OFFCURVE",
"221 465 OFFCURVE",
"269 465 CURVE SMOOTH"
);
}
);
width = 521;
}
);
leftMetricsKey = "en-cy";
unicode = 0432;
userData = {
public.markColor = "0.67,0.95,0.38,1";
};
},
{
color = 4;
glyphname = "ge-cy";
layers = (
{
anchors = (
{
name = top;
position = "{213, 500}";
}
);
layerId = "C9B29665-C437-4A1D-A258-6E2E4B235112";
name = Light;
paths = (
{
closed = 1;
nodes = (
"45 500 LINE",
"45 459 LINE",
"108 462 LINE",
"104 439 OFFCURVE",
"104 421 OFFCURVE",
"104 394 CURVE SMOOTH",
"104 335 LINE",
"104 152 LINE SMOOTH",
"103 80 OFFCURVE",
"105 30 OFFCURVE",
"44 30 CURVE",
"44 0 LINE",
"248 0 LINE",
"248 41 LINE",
"185 38 LINE",
"189 61 OFFCURVE",
"189 79 OFFCURVE",
"189 106 CURVE SMOOTH",
"190 348 LINE SMOOTH",
"190 420 OFFCURVE",
"192 460 OFFCURVE",
"251 460 CURVE SMOOTH",
"359 460 OFFCURVE",
"385 433 OFFCURVE",
"387 349 CURVE",
"425 349 LINE",
"421 500 LINE"
);
}
);
width = 438;
}
);
leftMetricsKey = "en-cy";
unicode = 0433;
userData = {
public.markColor = "0.67,0.95,0.38,1";
};
},
{
color = 4;
glyphname = "gheupturn-cy";
layers = (
{
layerId = "C9B29665-C437-4A1D-A258-6E2E4B235112";
name = Light;
paths = (
{
closed = 1;
nodes = (
"421 460 LINE",
"425 611 LINE",
"387 611 LINE",
"385 527 OFFCURVE",
"359 500 OFFCURVE",
"251 500 CURVE",
"251 460 LINE"
);
},
{
closed = 1;
nodes = (
"251 500 LINE",
"45 500 LINE",
"45 459 LINE",
"108 462 LINE",
"104 439 OFFCURVE",
"104 421 OFFCURVE",
"104 394 CURVE SMOOTH",
"104 335 LINE",
"104 152 LINE SMOOTH",
"103 80 OFFCURVE",
"105 30 OFFCURVE",
"44 30 CURVE",
"44 0 LINE",
"248 0 LINE",
"248 41 LINE",
"185 38 LINE",
"189 61 OFFCURVE",
"189 79 OFFCURVE",
"189 106 CURVE SMOOTH",
"190 348 LINE SMOOTH",
"190 420 OFFCURVE",
"192 460 OFFCURVE",
"251 460 CURVE SMOOTH"
);
}
);
width = 438;
}
);
unicode = 0491;
},
{
color = 4;
glyphname = "de-cy";
layers = (
{
layerId = "C9B29665-C437-4A1D-A258-6E2E4B235112";
name = Light;
paths = (
{
closed = 1;
nodes = (
"473 38 LINE",
"477 61 OFFCURVE",
"477 79 OFFCURVE",
"479 106 CURVE",
"479 348 LINE SMOOTH",
"479 420 OFFCURVE",
"477 470 OFFCURVE",
"538 470 CURVE",
"538 500 LINE",
"96 500 LINE",
"96 457 LINE",
"184 461 LINE",
"179 293 OFFCURVE",
"164 180 OFFCURVE",
"134 101 CURVE SMOOTH",
"114 47 OFFCURVE",
"95 38 OFFCURVE",
"63 38 CURVE SMOOTH",
"22 38 LINE",
"22 -178 LINE",
"60 -178 LINE",
"60 -68 OFFCURVE",
"78 0 OFFCURVE",
"144 0 CURVE SMOOTH",
"443 0 LINE SMOOTH",
"509 0 OFFCURVE",
"526 -69 OFFCURVE",
"526 -178 CURVE",
"564 -178 LINE",
"564 42 LINE"
);
},
{
closed = 1;
nodes = (
"153 38 LINE",
"166 52 OFFCURVE",
"177 71 OFFCURVE",
"186 97 CURVE SMOOTH",
"203 147 OFFCURVE",
"223 261 OFFCURVE",
"234 395 CURVE SMOOTH",
"239 436 OFFCURVE",
"250 462 OFFCURVE",
"292 462 CURVE SMOOTH",
"396 462 LINE",
"393 439 OFFCURVE",
"393 421 OFFCURVE",
"393 394 CURVE SMOOTH",
"393 160 LINE SMOOTH",
"393 88 OFFCURVE",
"393 38 OFFCURVE",
"332 38 CURVE SMOOTH"
);
}
);
width = 591;
}
);
unicode = 0434;
userData = {
public.markColor = "0.67,0.95,0.38,1";
};
},
{
color = 4;
glyphname = "zhe-cy";
layers = (
{
anchors = (
{
name = bottomright;
position = "{0, 0}";
},
{
name = top;
position = "{388, 500}";
}
);
layerId = "C9B29665-C437-4A1D-A258-6E2E4B235112";
name = Light;
paths = (
{
closed = 1;
nodes = (
"289 500 LINE",
"289 459 LINE",
"352 462 LINE",
"348 439 OFFCURVE",
"348 421 OFFCURVE",
"348 394 CURVE SMOOTH",
"347 152 LINE SMOOTH",
"346 80 OFFCURVE",
"348 30 OFFCURVE",
"287 30 CURVE",
"287 0 LINE",
"486 0 LINE",
"486 41 LINE",
"423 38 LINE",
"427 61 OFFCURVE",
"427 79 OFFCURVE",
"427 106 CURVE SMOOTH",
"429 348 LINE SMOOTH",
"429 420 OFFCURVE",
"427 470 OFFCURVE",
"488 470 CURVE",
"488 500 LINE"
);
},
{
closed = 1;
nodes = (
"221 263 OFFCURVE",
"164 185 OFFCURVE",
"121 126 CURVE SMOOTH",
"77 65 OFFCURVE",
"42 30 OFFCURVE",
"7 30 CURVE",
"7 0 LINE",
"95 0 LINE SMOOTH",
"127 0 OFFCURVE",
"159 40 OFFCURVE",
"201 95 CURVE SMOOTH",
"234 140 OFFCURVE",
"275 203 OFFCURVE",
"314 248 CURVE",
"261 285 LINE"
);
},
{
closed = 1;
nodes = (
"19 500 LINE",
"19 470 LINE",
"86 463 OFFCURVE",
"144 403 OFFCURVE",
"179 365 CURVE SMOOTH",
"275 246 LINE",
"361 243 LINE",
"361 282 LINE",
"299 282 LINE",
"191 410 LINE SMOOTH",
"169 433 OFFCURVE",
"151 451 OFFCURVE",
"132 463 CURVE",
"201 460 LINE",
"201 500 LINE"
);
},
{
closed = 1;
nodes = (
"461 248 LINE",
"500 203 OFFCURVE",
"541 140 OFFCURVE",
"575 95 CURVE SMOOTH",
"616 40 OFFCURVE",
"648 0 OFFCURVE",
"680 0 CURVE SMOOTH",
"768 0 LINE",
"768 30 LINE",
"733 30 OFFCURVE",
"698 65 OFFCURVE",
"654 126 CURVE SMOOTH",
"612 185 OFFCURVE",
"555 263 OFFCURVE",
"515 285 CURVE"
);
},
{
closed = 1;
nodes = (
"575 500 LINE",
"575 460 LINE",
"643 463 LINE",
"624 451 OFFCURVE",
"606 433 OFFCURVE",
"584 410 CURVE SMOOTH",
"477 282 LINE",
"414 282 LINE",
"414 243 LINE",
"500 246 LINE",
"597 365 LINE SMOOTH",
"632 403 OFFCURVE",
"689 463 OFFCURVE",
"757 470 CURVE",
"757 500 LINE"
);
}
);
width = 775;
}
);
leftMetricsKey = "=|ka-cy";
rightMetricsKey = "ka-cy";
unicode = 0436;
userData = {
public.markColor = "0.67,0.95,0.38,1";
};
},
{
color = 4;
glyphname = "ze-cy";
layers = (
{
anchors = (
{
name = bottom;
position = "{230, 0}";
},
{
name = top;
position = "{225, 500}";
}
);
layerId = "C9B29665-C437-4A1D-A258-6E2E4B235112";
name = Light;
paths = (
{
closed = 1;
nodes = (
"210 237 LINE",
"276 237 OFFCURVE",
"334 205 OFFCURVE",
"334 121 CURVE SMOOTH",
"334 51 OFFCURVE",
"279 19 OFFCURVE",
"220 19 CURVE SMOOTH",
"176 19 OFFCURVE",
"131 35 OFFCURVE",
"104 75 CURVE",
"116 87 OFFCURVE",
"120 102 OFFCURVE",
"120 115 CURVE SMOOTH",
"120 132 OFFCURVE",
"108 161 OFFCURVE",
"73 160 CURVE SMOOTH",
"43 160 OFFCURVE",
"27 136 OFFCURVE",
"27 107 CURVE SMOOTH",
"22 59 OFFCURVE",
"92 -16 OFFCURVE",
"226 -16 CURVE SMOOTH",
"345 -16 OFFCURVE",
"430 40 OFFCURVE",
"430 132 CURVE SMOOTH",
"430 209 OFFCURVE",
"369 263 OFFCURVE",
"278 263 CURVE"
);
},
{
closed = 1;
nodes = (
"196 516 OFFCURVE",
"150 506 OFFCURVE",
"109 473 CURVE",
"111 511 LINE",
"69 511 LINE",
"69 336 LINE",
"101 336 LINE",
"105 405 OFFCURVE",
"145 479 OFFCURVE",
"227 479 CURVE SMOOTH",
"284 479 OFFCURVE",
"314 442 OFFCURVE",
"314 382 CURVE SMOOTH",
"314 319 OFFCURVE",
"281 274 OFFCURVE",
"206 274 CURVE SMOOTH",
"165 274 LINE",
"165 237 LINE",
"228 237 LINE",
"295 259 LINE",
"295 264 LINE",
"364 282 OFFCURVE",
"406 331 OFFCURVE",
"406 390 CURVE SMOOTH",
"406 467 OFFCURVE",
"335 516 OFFCURVE",
"239 516 CURVE SMOOTH"
);
}
);
width = 459;
}
);
rightMetricsKey = "ve-cy";
unicode = 0437;
userData = {
public.markColor = "0.67,0.95,0.38,1";
};
},
{
color = 4;
glyphname = "ii-cy";
layers = (
{
anchors = (
{
name = top;
position = "{308, 500}";
}
);
layerId = "C9B29665-C437-4A1D-A258-6E2E4B235112";
name = Light;
paths = (
{
closed = 1;
nodes = (
"137 71 LINE",
"171 43 LINE",
"478 428 LINE",
"446 452 LINE"
);
},
{
closed = 1;
nodes = (
"45 500 LINE",
"45 459 LINE",
"108 462 LINE",
"104 439 OFFCURVE",
"104 421 OFFCURVE",
"104 394 CURVE SMOOTH",
"104 152 LINE SMOOTH",
"103 80 OFFCURVE",
"105 30 OFFCURVE",
"44 30 CURVE",
"44 0 LINE",
"248 0 LINE",
"248 41 LINE",
"185 38 LINE",
"189 61 OFFCURVE",
"189 79 OFFCURVE",
"189 106 CURVE SMOOTH",
"190 348 LINE SMOOTH",
"191 420 OFFCURVE",
"188 470 OFFCURVE",
"250 470 CURVE",
"250 500 LINE"
);
},
{
closed = 1;
nodes = (
"379 500 LINE",
"379 459 LINE",
"442 462 LINE",
"438 439 OFFCURVE",
"438 421 OFFCURVE",
"438 394 CURVE SMOOTH",
"437 152 LINE SMOOTH",
"437 80 OFFCURVE",
"438 30 OFFCURVE",
"377 30 CURVE",
"377 0 LINE",
"582 0 LINE",
"582 41 LINE",
"519 38 LINE",
"522 61 OFFCURVE",
"522 79 OFFCURVE",
"522 106 CURVE SMOOTH",
"524 348 LINE SMOOTH",
"524 420 OFFCURVE",
"522 470 OFFCURVE",
"583 470 CURVE",
"583 500 LINE"
);
}
);
width = 627;
}
);
unicode = 0438;
userData = {
public.markColor = "0.67,0.95,0.38,1";
};
},
{
color = 4;
glyphname = "iishort-cy";
layers = (
{
components = (
{
name = "ii-cy";
transform = "{1, 0, 0, 1, 0, 0}";
}
);
layerId = "C9B29665-C437-4A1D-A258-6E2E4B235112";
name = Light;
paths = (
{
closed = 1;
nodes = (
"383 711 OFFCURVE",
"375 684 OFFCURVE",
"375 669 CURVE SMOOTH",
"375 658 OFFCURVE",
"377 644 OFFCURVE",
"384 633 CURVE",
"376 619 OFFCURVE",
"343 614 OFFCURVE",
"316 614 CURVE SMOOTH",
"289 614 OFFCURVE",
"255 619 OFFCURVE",
"248 633 CURVE",
"254 644 OFFCURVE",
"257 658 OFFCURVE",
"257 669 CURVE SMOOTH",
"257 684 OFFCURVE",
"249 711 OFFCURVE",
"215 710 CURVE SMOOTH",
"190 709 OFFCURVE",
"176 688 OFFCURVE",
"176 664 CURVE SMOOTH",
"176 610 OFFCURVE",
"239 577 OFFCURVE",
"316 577 CURVE SMOOTH",
"393 577 OFFCURVE",
"456 610 OFFCURVE",
"456 664 CURVE SMOOTH",
"456 688 OFFCURVE",
"441 709 OFFCURVE",
"417 710 CURVE SMOOTH"
);
}
);
width = 627;
}
);
unicode = 0439;
userData = {
public.markColor = "0.67,0.95,0.38,1";
};
},
{
color = 4;
glyphname = "ka-cy";
lastChange = "2016-08-18 12:52:08 +0000";
layers = (
{
layerId = "C9B29665-C437-4A1D-A258-6E2E4B235112";
name = Light;
paths = (
{
closed = 1;
nodes = (
"332 500 LINE",
"332 460 LINE",
"400 463 LINE",
"381 451 OFFCURVE",
"363 433 OFFCURVE",
"341 410 CURVE SMOOTH",
"219 282 LINE",
"171 282 LINE",
"171 243 LINE",
"220 245 LINE",
"246 220 OFFCURVE",
"281 166 OFFCURVE",
"333 94 CURVE SMOOTH",
"370 46 OFFCURVE",
"402 0 OFFCURVE",
"439 0 CURVE SMOOTH",
"530 0 LINE",
"530 30 LINE",
"484 30 OFFCURVE",
"421 122 OFFCURVE",
"409 138 CURVE SMOOTH",
"338 229 LINE SMOOTH",
"319 252 OFFCURVE",
"302 271 OFFCURVE",
"276 283 CURVE",
"354 365 LINE SMOOTH",
"390 402 OFFCURVE",
"446 463 OFFCURVE",
"514 470 CURVE",
"514 500 LINE"
);
},
{
closed = 1;
nodes = (
"36 500 LINE",
"36 459 LINE",
"99 462 LINE",
"95 439 OFFCURVE",
"95 421 OFFCURVE",
"95 394 CURVE SMOOTH",
"94 152 LINE SMOOTH",
"93 80 OFFCURVE",
"95 30 OFFCURVE",
"34 30 CURVE",
"34 0 LINE",
"238 0 LINE",
"238 41 LINE",
"175 38 LINE",
"179 61 OFFCURVE",
"179 79 OFFCURVE",
"179 106 CURVE SMOOTH",
"181 348 LINE SMOOTH",
"181 420 OFFCURVE",
"179 470 OFFCURVE",
"240 470 CURVE",
"240 500 LINE"
);
}
);
width = 537;
}
);
unicode = 043A;
userData = {
public.markColor = "0.67,0.95,0.38,1";
};
},
{
color = 4;
glyphname = "el-cy";
layers = (
{
layerId = "C9B29665-C437-4A1D-A258-6E2E4B235112";
name = Light;
paths = (
{
closed = 1;
nodes = (
"117 500 LINE",
"117 457 LINE",
"226 462 LINE",
"407 462 LINE",
"403 439 OFFCURVE",
"403 421 OFFCURVE",
"403 394 CURVE SMOOTH",
"403 152 LINE SMOOTH",
"401 80 OFFCURVE",
"403 30 OFFCURVE",
"342 30 CURVE",
"342 0 LINE",
"546 0 LINE",
"546 41 LINE",
"483 38 LINE",
"487 61 OFFCURVE",
"487 79 OFFCURVE",
"489 106 CURVE",
"489 348 LINE SMOOTH",
"489 420 OFFCURVE",
"487 470 OFFCURVE",
"548 470 CURVE",
"548 500 LINE"
);
},
{
closed = 1;
nodes = (
"212 492 LINE",
"199 155 OFFCURVE",
"144 40 OFFCURVE",
"103 40 CURVE SMOOTH",
"100 40 OFFCURVE",
"97 41 OFFCURVE",
"94 42 CURVE",
"95 46 OFFCURVE",
"96 53 OFFCURVE",
"96 57 CURVE SMOOTH",
"96 73 OFFCURVE",
"83 93 OFFCURVE",
"51 93 CURVE SMOOTH",
"22 92 OFFCURVE",
"7 71 OFFCURVE",
"7 42 CURVE SMOOTH",
"7 10 OFFCURVE",
"34 -11 OFFCURVE",
"82 -11 CURVE SMOOTH",
"209 -11 OFFCURVE",
"250 193 OFFCURVE",
"260 383 CURVE SMOOTH",
"260 418 OFFCURVE",
"261 451 OFFCURVE",
"262 492 CURVE"
);
},
{
closed = 1;
nodes = (
"237 472 LINE",
"234 383 LINE",
"260 383 LINE",
"260 431 OFFCURVE",
"273 462 OFFCURVE",
"319 462 CURVE",
"319 477 LINE"
);
}
);
width = 592;
}
);
rightMetricsKey = "en-cy";
unicode = 043B;
userData = {
public.markColor = "0.67,0.95,0.38,1";
};
},
{
color = 4;
glyphname = "em-cy";
layers = (
{
layerId = "C9B29665-C437-4A1D-A258-6E2E4B235112";
name = Light;
paths = (
{
closed = 1;
nodes = (
"528 500 LINE",
"363 99 LINE",
"372 109 LINE",
"206 500 LINE",
"73 500 LINE",
"73 459 LINE",
"134 462 LINE",
"90 97 LINE SMOOTH",
"85 55 OFFCURVE",
"74 29 OFFCURVE",
"32 30 CURVE",
"32 0 LINE",
"186 0 LINE",
"186 41 LINE",
"123 39 LINE",
"128 55 OFFCURVE",
"133 80 OFFCURVE",
"135 97 CURVE SMOOTH",
"170 382 LINE",
"326 0 LINE",
"366 0 LINE",
"519 372 LINE",
"558 115 LINE SMOOTH",
"567 55 OFFCURVE",
"546 28 OFFCURVE",
"505 30 CURVE",
"505 0 LINE",
"707 0 LINE",
"707 41 LINE",
"642 39 LINE",
"644 54 OFFCURVE",
"644 77 OFFCURVE",
"642 94 CURVE SMOOTH",
"596 398 LINE SMOOTH",
"588 451 OFFCURVE",
"609 470 OFFCURVE",
"646 470 CURVE",
"646 500 LINE"
);
}
);
width = 738;
}
);
unicode = 043C;
userData = {
public.markColor = "0.67,0.95,0.38,1";
};
},
{
color = 4;
glyphname = "en-cy";
lastChange = "2016-08-18 13:40:18 +0000";
layers = (
{
layerId = "C9B29665-C437-4A1D-A258-6E2E4B235112";
name = Light;
paths = (
{
closed = 1;
nodes = (
"374 500 LINE",
"374 459 LINE",
"437 462 LINE",
"433 439 OFFCURVE",
"433 421 OFFCURVE",
"433 394 CURVE SMOOTH",
"432 152 LINE SMOOTH",
"432 80 OFFCURVE",
"434 30 OFFCURVE",
"373 30 CURVE",
"373 0 LINE",
"577 0 LINE",
"577 41 LINE",
"514 38 LINE",
"518 61 OFFCURVE",
"518 79 OFFCURVE",
"518 106 CURVE SMOOTH",
"519 348 LINE SMOOTH",
"520 420 OFFCURVE",
"517 470 OFFCURVE",
"578 470 CURVE",
"578 500 LINE"
);
},
{
closed = 1;
nodes = (
"45 500 LINE",
"45 459 LINE",
"108 462 LINE",
"104 439 OFFCURVE",
"104 421 OFFCURVE",
"104 394 CURVE SMOOTH",
"104 152 LINE SMOOTH",
"103 80 OFFCURVE",
"105 30 OFFCURVE",
"44 30 CURVE",
"44 0 LINE",
"248 0 LINE",
"248 41 LINE",
"185 38 LINE",
"189 61 OFFCURVE",
"189 79 OFFCURVE",
"189 106 CURVE SMOOTH",
"190 348 LINE SMOOTH",
"191 420 OFFCURVE",
"188 470 OFFCURVE",
"250 470 CURVE",
"250 500 LINE"
);
},
{
closed = 1;
nodes = (
"154 276 LINE",
"154 233 LINE",
"468 237 LINE",
"468 276 LINE"
);
}
);
width = 622;
}
);
unicode = 043D;
userData = {
public.markColor = "0.67,0.95,0.38,1";
};
},
{
color = 4;
glyphname = "pe-cy";
lastChange = "2016-08-18 13:42:35 +0000";
layers = (
{
layerId = "C9B29665-C437-4A1D-A258-6E2E4B235112";
name = Light;
paths = (
{
closed = 1;
nodes = (
"148 500 LINE",
"148 459 LINE",
"429 462 LINE",
"425 439 OFFCURVE",
"425 421 OFFCURVE",
"425 394 CURVE SMOOTH",
"424 152 LINE SMOOTH",
"423 80 OFFCURVE",
"425 30 OFFCURVE",
"364 30 CURVE",
"364 0 LINE",
"569 0 LINE",
"569 41 LINE",
"506 38 LINE",
"510 61 OFFCURVE",
"510 79 OFFCURVE",
"510 106 CURVE SMOOTH",
"512 348 LINE SMOOTH",
"512 420 OFFCURVE",
"510 470 OFFCURVE",
"571 470 CURVE",
"571 500 LINE"
);
},
{
closed = 1;
nodes = (
"45 500 LINE",
"45 459 LINE",
"108 462 LINE",
"104 439 OFFCURVE",
"104 421 OFFCURVE",
"104 394 CURVE SMOOTH",
"104 152 LINE SMOOTH",
"103 80 OFFCURVE",
"105 30 OFFCURVE",
"44 30 CURVE",
"44 0 LINE",
"249 0 LINE",
"249 41 LINE",
"186 38 LINE",
"190 61 OFFCURVE",
"190 79 OFFCURVE",
"190 106 CURVE SMOOTH",
"191 348 LINE SMOOTH",
"192 420 OFFCURVE",
"189 460 OFFCURVE",
"251 460 CURVE",
"251 500 LINE"
);
}
);
width = 615;
}
);
leftMetricsKey = "en-cy";
rightMetricsKey = "en-cy";
unicode = 043F;
userData = {
public.markColor = "0.67,0.95,0.38,1";
};
},
{
color = 4;
glyphname = "te-cy";
lastChange = "2016-08-18 13:43:15 +0000";
layers = (
{
layerId = "C9B29665-C437-4A1D-A258-6E2E4B235112";
name = Light;
paths = (
{
closed = 1;
nodes = (
"26 500 LINE",
"22 349 LINE",
"60 349 LINE",
"60 433 OFFCURVE",
"83 458 OFFCURVE",
"137 458 CURVE SMOOTH",
"208 458 LINE",
"204 435 OFFCURVE",
"204 421 OFFCURVE",
"204 394 CURVE SMOOTH",
"204 152 LINE SMOOTH",
"203 80 OFFCURVE",
"205 30 OFFCURVE",
"144 30 CURVE",
"144 0 LINE",
"349 0 LINE",
"349 41 LINE",
"286 38 LINE",
"290 61 OFFCURVE",
"290 79 OFFCURVE",
"290 106 CURVE SMOOTH",
"290 458 LINE",
"352 458 LINE",
"415 458 OFFCURVE",
"433 433 OFFCURVE",
"435 349 CURVE",
"473 349 LINE",
"468 500 LINE"
);
}
);
width = 495;
}
);
unicode = 0442;
userData = {
public.markColor = "0.67,0.95,0.38,1";
};
},
